<svg xmlns="http://www.w3.org/2000/svg" xmlns:xlink="http://www.w3.org/1999/xlink" viewBox="0 0 427.71 452.1"><defs><style>.cls-1{fill:none;}.cls-2{isolation:isolate;}.cls-3{font-size:221.57px;fill:#d08bbb;font-family:LuckiestGuy-Regular, Luckiest Guy;}.cls-4,.cls-7{fill:#d6b177;}.cls-12,.cls-14,.cls-15,.cls-17,.cls-5,.cls-7{mix-blend-mode:multiply;}.cls-6{fill:#715131;}.cls-8{fill:#724e2b;}.cls-9{clip-path:url(#clip-path);}.cls-10{fill:#9e602b;}.cls-11,.cls-13{fill:#f2b675;}.cls-12,.cls-14,.cls-15{fill:#e0a556;}.cls-12{opacity:0.4;}.cls-13,.cls-16{mix-blend-mode:screen;}.cls-14{opacity:0.7;}.cls-15{opacity:0.6;}.cls-16{opacity:0.5;}.cls-17{fill:#78532e;}</style><clipPath id="clip-path" transform="translate(-6.56 -60.55)"><path class="cls-1" d="M141.91,481.54l0,0c-9.76-38.31,42-69.42,65.11-115.95s52.75-46.54,76.88-58.11,26.65-42.88,31.72-69.68,23.14-18.61,37.52,16.37-11.56,68.54-22.77,74.47-4,8.46,12,33.28,19.18,74.19,20.6,99.26-22.29,22.32-52.35,16.69-39.61-3.53-52-1.43-11.14,9.74-11.14,9.74c-17.49-4.79-26.37,3.67-26.37,3.67a16.13,16.13,0,0,0-15.1,3.95c-2.82-4.23-8.32-8-19.46-8.74s-17.49,5.5-17.49,5.5c-11.85-15.52-26.77-8.24-26.77-8.24Z"/></clipPath></defs><g class="cls-2"><g id="Calque_2" data-name="Calque 2"><text class="cls-3" transform="translate(23.41 185.39) rotate(9.22)">404</text></g><g id="Layer_1" data-name="Layer 1"><path class="cls-4" d="M428.15,475.77c5.73-2.7.91-6.06-4.15-8.07-7.1-2.82-16.49-4.18-25.54-5.25-5.91-.7-11.92-1.2-17.93-1.7s-12-1-18.11-1c-2.73,0-5.42.19-8.17.16-1.6,0-3.64,0-4.54-.66-.59-.45-.51-1-.89-1.52-.68-.87-2.53-1.3-4.3-1.68-2.86-.62-5.8-1.13-8.87-1.51-6-.74-11.88-1.63-17.94-2.29s-12.2-1.12-18.37-1.5c-12.44-.77-25-1.3-37.55-1.73q-19-.64-38-.5-8.23.06-16.45.22c-5.75-.31-11.5-.6-17.32-.7-11-.18-22.09.12-33.09.55-10.07.38-20.37.9-30.22,1.93a58.72,58.72,0,0,0-11.36,1.94c-2.77.91-3.82,1.85-2.12,3.08C89.45,456,65,457.4,42.68,461.18c-10.26,1.74-20.33,4.14-28.18,7.59-6.32,2.79-11.86,7.31-4.26,10.67,3.67,1.62,9.36,2.32,14.22,2.86,5.91.67,12.12,1,18.18,1.22,11.38.44,22.82.27,34.23,0a66.12,66.12,0,0,0-7.38,1.38c-2.93.72-7.21,2-8.33,3.47s2.49,2.75,5.31,3.43a131.41,131.41,0,0,0,13.66,2.28c10.52,1.35,21.29,1.69,32.14,2.13,10.22.42,20.5.67,30.76.39-6.22,1.23-11.07,4.07-7.05,7,2.41,1.77,7.3,2.81,11.39,3.64,5.49,1.12,11.3,2,17.07,2.76s12,1.22,18,1.56,11.89.63,17.85.81c13,.38,26,.26,38.89-.41a451.54,451.54,0,0,0,50.84-5.09c3.43-.58,7-1.2,10.13-2.05,1.89-.52,4.11-1.44,3.25-2.55s-3-1.75-5.17-2.28c2.05,0,4.11,0,6.15,0,6.36-.08,12.72-.32,19.08-.47,12.75-.29,25.37-1,37.85-2.15,12.16-1.16,24.38-2.28,36.46-3.6,9-1,20.6-2.41,25.14-6.41,2.44-2.14.2-4.32-4-5.59a63.51,63.51,0,0,0-14.14-2c4-.31,8-.73,11.92-1.23A40.08,40.08,0,0,0,428.15,475.77Z" transform="translate(-6.56 -60.55)"/><g class="cls-5"><path class="cls-4" d="M81.52,481c-1.79-.07-3.57-.12-5.34-.13-6.86,0-13.74-.1-20.58-.73-3.05-.28-6.1-.55-9.16-.79A114.5,114.5,0,0,1,34.9,478c-3.09-.56-6.61-1.23-9.22-3.1a4.42,4.42,0,0,1-2.08-4.58,7.17,7.17,0,0,1,3.2-3.93,31.51,31.51,0,0,1,7.55-3.63,104.65,104.65,0,0,0-19.85,6c-6.32,2.79-11.86,7.31-4.26,10.67,3.67,1.62,9.36,2.32,14.22,2.86,5.91.67,12.12,1,18.18,1.22,11.3.44,22.66.27,34,0A12.69,12.69,0,0,1,81.52,481Z" transform="translate(-6.56 -60.55)"/><path class="cls-4" d="M424,467.7c-6.58-2.61-15.13-4-23.54-5l1.36.45a26.13,26.13,0,0,1,6.48,3.05c1.12.79,2.41,1.94,2.42,3.42,0,2.24-2.37,3.86-4.18,4.66a32.28,32.28,0,0,1-11.22,2.16,104.18,104.18,0,0,1-10.75,0,69.94,69.94,0,0,0-8.68.16c.84.05,1.68.11,2.51.18a65,65,0,0,1,10.31,1.47c2.15.53,4.85,1.23,6.29,3.07,3.33,4.24-5.28,6.72-7.8,7.38A130.15,130.15,0,0,1,367,491.76c-3.42.34-6.81.84-10.21,1.26q-10.23,1.29-20.51,2c-6.84.48-13.69.78-20.55.86-6.38.07-12.75-.2-19.13-.1-4.24.07-8.58.23-12.92.21a12.81,12.81,0,0,1,3.89,2.81.23.23,0,0,1,0,.26c-1.52,2.24-4.59,2.9-7.08,3.32-3.46.58-7,1.08-10.43,1.6-6.74,1-13.51,1.55-20.29,2.14q-10.4.9-20.83,1.29a411.39,411.39,0,0,1-41.7-.35c-4.69-.31-9.39-.38-14.08-.72-6.53-.48-13.28-1-19.6-2.82-2.67-.77-8.91-3-5.63-6.78a9.66,9.66,0,0,1,2.74-2.1c-13.08-.12-26.14-1-39.18-2.11-5.4-.44-10.84-1.15-16.25-1.33-3-.1-6.09-.16-9.12-.48s-6.34-.62-8.84-2.28c-1.69-1.12-2.38-3.27-.77-4.83l.06-.06a66.93,66.93,0,0,0-7.09,1.34c-2.93.72-7.21,2-8.33,3.47s2.49,2.75,5.31,3.43a131.41,131.41,0,0,0,13.66,2.28c10.52,1.35,21.29,1.69,32.14,2.13,10.22.42,20.5.67,30.76.39-6.22,1.23-11.07,4.07-7.05,7,2.41,1.77,7.3,2.81,11.39,3.64,5.49,1.12,11.3,2,17.07,2.76s12,1.22,18,1.56,11.89.63,17.85.81c13,.38,26,.26,38.89-.41a451.54,451.54,0,0,0,50.84-5.09c3.43-.58,7-1.2,10.13-2.05,1.89-.52,4.11-1.44,3.25-2.55s-3-1.75-5.17-2.28c2.05,0,4.11,0,6.15,0,6.36-.08,12.72-.32,19.08-.47,12.75-.29,25.37-1,37.85-2.15,12.16-1.16,24.38-2.28,36.46-3.6,9-1,20.6-2.41,25.14-6.41,2.44-2.14.2-4.32-4-5.59a63.51,63.51,0,0,0-14.14-2c4-.31,8-.73,11.92-1.23a40.08,40.08,0,0,0,11.44-2.84C433.88,473.07,429.06,469.71,424,467.7Z" transform="translate(-6.56 -60.55)"/></g><g class="cls-5"><path class="cls-4" d="M298.55,458.34a17.74,17.74,0,0,1,6.29.16,18.71,18.71,0,0,0-4.47-1.75A46.53,46.53,0,0,0,292,455.6c-2.91-.2-5.84-.47-8.76-.52a43.92,43.92,0,0,0-10.3.81c-1.25.28-2.63,1-3.95.82-.87-.1-1.08-.47-1.57-1.16-.85-1.18-2.66-1.67-3.93-2.23a48.25,48.25,0,0,0-4.65-1.76,49.68,49.68,0,0,0-9.56-2.06,61,61,0,0,0-12.38-.07,27.31,27.31,0,0,0-11,4.89.21.21,0,0,1-.31-.24c1.69-4.75-9.19-1.57-11.17-1-.19.06-.31-.15-.24-.31.94-2-1.28-2.68-2.84-2.91a20.44,20.44,0,0,0-4.69-.11,27.47,27.47,0,0,0-7.14,2c-1.36.5-2.74.93-4.12,1.34a1.82,1.82,0,0,1-1.51-.17,35.43,35.43,0,0,0-8.28-3.61c-5.84-1.46-11.67-1.06-17.6-.72-4.12.23-10.08.08-12.55,4.08a.21.21,0,0,1-.24.1,17.74,17.74,0,0,0-7.09-.84c-2.44.22-5.21,1-6.19,3.51a.21.21,0,0,1-.31.13,12.93,12.93,0,0,0-7.14-2.33,17.35,17.35,0,0,0-5.52.44,18.28,18.28,0,0,0-3.67,1.51c-.61,2.15.87,4.22,3,5.37.23.12.07.43-.16.39a39.71,39.71,0,0,0-17,.78c-4.25,1.09-9,2.8-11.91,6.33,3.77-1.41,7.33-3.36,11.32-4.13a27.4,27.4,0,0,1,13,.42.21.21,0,0,1-.12.41c-3.59-.73-7.29,1.68-10.08,3.69-1.28.93-2.49,2.45-4,3a17.34,17.34,0,0,1-2.87.56,6.21,6.21,0,0,0-3.08,1.43,7.06,7.06,0,0,1-3.88,2.08,25.33,25.33,0,0,0-5.81.92,27.9,27.9,0,0,0-8.63,4.75,22.93,22.93,0,0,1,10-1.5,14.67,14.67,0,0,1,6,1.27,21.78,21.78,0,0,1,4.82,3.43c.34-1.15-.55-2.17-1.42-2.84-.16-.12-.13-.4.1-.39,2.79.08,4.26,2.3,5.57,4.47.38-1.81-.27-3.81.48-5.52a5.18,5.18,0,0,1,2.87-2.61,21,21,0,0,1,9-1.42c6.69.27,13.74,3.16,15.9,10,.06.16-.11.29-.26.26-3.89-.77-8.55.65-11.77,3.07a18.12,18.12,0,0,1,9.77.19.21.21,0,0,1-.06.41,3.76,3.76,0,0,0-1.92.52,24.76,24.76,0,0,1,9-.66c4.16.31,7.12,2.76,10.49,4.9-.11-3.78-2.7-6.67-5.81-8.59a.22.22,0,0,1,0-.37c2.26-1.58,5.77,0,7.94,1a22.35,22.35,0,0,1,8.54,6.36.21.21,0,0,1,0,.33c-1.76,1.11-2.65,3.28-3.06,5.24a12.84,12.84,0,0,0-.23,4.24c.07-.09.12-.19.19-.28,4.66-6.58,12.53-10.07,20.4-10.79s16.29,1,22.52,6.05a.21.21,0,0,1,0,.26c-1.77,2.7-.93,6.28.22,9.14a13.66,13.66,0,0,1,3.59-8.36,15.79,15.79,0,0,1,9.63-4.62A18.09,18.09,0,0,1,230,497.5a12.92,12.92,0,0,1,1.42,1.23,25,25,0,0,0-2.31-5.33c-.63-1.12.42-2.15,1.42-2.55,3-1.19,6.75-.89,9.92-.69a17.42,17.42,0,0,1,11.29,4.58,15.8,15.8,0,0,1,4.23,7,18.54,18.54,0,0,0,2.15-5.88c.65-3.52.22-7.54-3-9.67a.22.22,0,0,1-.08-.29c1.27-2.21,4.08-3.26,6.42-3.83s5.4-1.07,7.91-.4a16.89,16.89,0,0,1,5.79,2.68v-.12A5.76,5.76,0,0,0,274,481.5c-.55-.77-1.31-2-.78-3s1.69-1.05,2.55-1.36a49.51,49.51,0,0,1,5.85-1.82c3.52-.78,7.81-1.53,11.26-.08a22.53,22.53,0,0,1,4.38,2.61c1.26.91,2.49,2.18,4,2.53-.38-2.78-3.12-5.38-5.35-6.82-3.11-2-6.7-2.15-10.25-2.73a.21.21,0,0,1-.06-.38c5.11-2.59,10.9-3.94,16.31-1.65a10.64,10.64,0,0,0-5.12-4.31c-1.78-.76-4-1-5.3-2.6a.22.22,0,0,1,0-.3C293.25,459.58,296,458.72,298.55,458.34Z" transform="translate(-6.56 -60.55)"/></g><path class="cls-6" d="M290,458.3c-6.45-2.52-14.14-.49-20.29,2-5.33,2.16-10.19,5.72-12.55,11.09-.11.25-.07.39,0,.47a10.41,10.41,0,0,0-2.52,5.47c-.1.87,1,.08,1.08-.39A12.54,12.54,0,0,1,266,467.6c.32,0,.72-.79.27-.76a13.64,13.64,0,0,0-7.42,3.31c2.84-4.63,7.25-7.32,12.33-9.32,5.52-2.17,12.49-3.73,18.27-1.64C289.84,459.33,290.41,458.47,290,458.3Z" transform="translate(-6.56 -60.55)"/><path class="cls-6" d="M289.25,472.14a28.66,28.66,0,0,0-21.1,4.82.53.53,0,0,0-.17.19,19.18,19.18,0,0,0-11.92,1.66,24.78,24.78,0,0,0-7.07,5c-.9.92-1.45,1.22-1.64,2a54.73,54.73,0,0,0-8.56-1.49,24.3,24.3,0,0,0-17.39,4.93c-3.31-1.08-8.56.07-11.14,1.37a11.67,11.67,0,0,0-4.08,3.52c-2.07-7.66-13.62-9.46-20.18-9.34a28.61,28.61,0,0,0-12.36,2.72,20.25,20.25,0,0,0-4.13,3c-2.25-4.21-7.11-7.45-11.38-9.09-4.64-1.78-11.63-2.08-16.22.11a18.53,18.53,0,0,0-14.2-9.34c-8.29-.95-16.06,1.88-23,6.13a43,43,0,0,0-9.26-.1c-4.46.24-9.46,2.42-13.39,4.4-.26.13-.44.86,0,.66a40.41,40.41,0,0,1,25.85-2.8c.33.08,1-.63.59-.86a9.94,9.94,0,0,0-2.95-1.13c6.64-3.62,13.86-5.91,21.51-5.09,7.12.77,12.37,5.46,15.55,11.66.18.35.69-.26.6-.54a17.36,17.36,0,0,0-.88-2.24c4.51-1.71,10.77-1.05,15.14.37,4.91,1.59,7.73,5.3,11.18,8.72-1.75,1.74-3.31,3.68-4.94,5.58-.52.61.08,1.05.6.49,1.69-1.81,3.28-3.72,5.07-5.4.22.06.48-.23.56-.5a20.49,20.49,0,0,1,3-2.26c3.67-2.18,8.37-2.72,12.54-2.93,7.3-.37,16.37,2,20.11,8.82a5.64,5.64,0,0,0-.67,3.53c.1.58.89-.14.86-.52-.3-4.07,4.19-6.23,7.33-7.1a18.93,18.93,0,0,1,9.34,0c.37.1,1-.61.62-.9a4.1,4.1,0,0,0-.85-.54,26.74,26.74,0,0,1,15-4c4.88.07,15.25,1.2,16.87,7,.2.71,1.09-.18,1.06-.65-.17-2.25-2.72-4.32-4.71-5.09-.71-.27-1.43-.51-2.16-.73.21-.75,1.42-1.73,1.84-2.14a24.33,24.33,0,0,1,6.78-4.31c4-1.86,10.16-2.14,13.95.42.55.44,1.61-.92,1.05-1.3a11.23,11.23,0,0,0-3-1.39,30.24,30.24,0,0,1,16.44-4.29,27.1,27.1,0,0,1,8.1,1.69c.54.19,3.84.88,3.91,1.42s.61.14.76-.06C299.59,474,290.24,472.31,289.25,472.14Z" transform="translate(-6.56 -60.55)"/><path class="cls-6" d="M137.35,469.49c-2.41-6.24-10.31-7.89-16.21-7.87-6.31,0-15.63,1.3-20.56,5.6-.29.25-.17.73.21.42,2.66-2.16,6.87-3.07,10.14-3.8a54.34,54.34,0,0,1,8.71-1.12c6.26-.36,13.83,1.46,16.76,7.61C136.66,470.86,137.52,470,137.35,469.49Z" transform="translate(-6.56 -60.55)"/><path class="cls-6" d="M138.45,461.29c-.27,0-.65.66-.32.69,2.43.19,5.06,3.35,4.47,5.83-.16.68.87.14,1-.35C144.07,464.69,141.17,461.39,138.45,461.29Z" transform="translate(-6.56 -60.55)"/><path class="cls-7" d="M285.65,470.84a.2.2,0,0,1-.15-.23,42.63,42.63,0,0,0-20.07,3.81c-.13.05-.34,0-.32-.18.29-2.54,2.42-4.29,4.52-5.45a25.62,25.62,0,0,1,3-1.39c-3,.91-5.79,2.23-8.74,3.23a.21.21,0,0,1-.27-.2c.07-3.82,3.17-6.67,6.15-8.62a43.46,43.46,0,0,1,9.62-4.55c-8.45-.16-17.23,4-23.24,9.72a.21.21,0,0,1-.35-.09,13.34,13.34,0,0,0-5.4-6.54c-.43-.25-.88-.49-1.34-.72a21.76,21.76,0,0,0-11.83-1c-5.6,1.05-10.74,3.63-15.61,6.5a.21.21,0,0,1-.31-.24c.29-1.27.4-3.41-.94-4.19a3.5,3.5,0,0,0-3.81.29,11.68,11.68,0,0,0-4.15,5.71c0,.15-.3.23-.38.05-2.18-4.92-9.48-3.39-12.79-.6a.21.21,0,0,1-.36-.15c.7-10-16.21-13.32-18.63-3.32a.21.21,0,0,1-.35.09,6.3,6.3,0,0,0-10.24,1.86.22.22,0,0,1-.34,0c-7.82-6.83-20.58-4.6-25.69,4.4a.21.21,0,0,1-.39-.1c0-1.58-.61-4.17-2.52-4.51-2.16-.38-1.95,2.76-1.72,4a.21.21,0,0,1-.35.2,28.09,28.09,0,0,0-6.52-4.45,16.82,16.82,0,0,0-7.19-1.44,21.54,21.54,0,0,1,4.94,2.93c1.6,1.3,3.14,3,3.2,5.14a.2.2,0,0,1-.31.18,21.79,21.79,0,0,0-18,.3,25,25,0,0,0-6.11,4.1,12.54,12.54,0,0,0-2.16,2.58,25.9,25.9,0,0,1,10.21-4.26c4.59-.86,9.89-1,14.35.55a16.53,16.53,0,0,1,9.49,8.94,23.86,23.86,0,0,1,8.28-1.36,22.22,22.22,0,0,1,10.75,2.36,14.26,14.26,0,0,1,6.73,7.95c.11.33.21.67.3,1a41.64,41.64,0,0,1,13.13-6.1c4.63-1.27,9.35-2.12,14-.51a18.3,18.3,0,0,1,10.35,9.07,23.14,23.14,0,0,1,14.62-5.89,15.08,15.08,0,0,1,1.66.06l.32-.24a.2.2,0,0,1,.06-.29c7.42-4.63,16.44-4.74,24.66-2.39.86.25,1.72.51,2.58.8.83-4.12,6.44-6.33,10-7.46a28.62,28.62,0,0,1,10.5-1.55l.95.07c2.53-3.43,7-5.25,11-6.18a32.48,32.48,0,0,1,10.92-.81C289.52,471.34,287.58,471.16,285.65,470.84Z" transform="translate(-6.56 -60.55)"/><path class="cls-7" d="M362.79,466.71a5.35,5.35,0,0,0-1.72-1c-1.82-.57-3.6-1.28-5.45-1.78-8.85-2.41-18.46-2-27.55-2.63-5.34-.36-10.65-.73-16-1-5.13,0-10.26,0-15.37,0-6.17,0-12.35-.11-18.51.28-5.63.36-11.56.91-16.92,2.77a24.89,24.89,0,0,0-8.56,5c-.25.23-.56.52-.86.85a2.83,2.83,0,0,0,.84,1.17c2.88,2.6,7.59,2.89,11.27,3.23,9.47.89,18.9.27,28.35-.53a210,210,0,0,1,27.93-.46c.29,0,.3.33.17.53-1,1.49-2.88,2.19-4.44,2.93a37.11,37.11,0,0,0-5.11,2.59c-.65.44-2.15,1.46-.85,2.28a8.64,8.64,0,0,0,1.56.76,32.8,32.8,0,0,0,10.09,1.54,92.46,92.46,0,0,0,10-.09,157.41,157.41,0,0,0,21.21-2.89,34.92,34.92,0,0,0,5.23-1.35c.31-.11,4.61-1.77,3.19-2.93a5,5,0,0,0-1.69-.91c-3.14-1-6.78-1-10-1-.51,0-.09-.78.21-.85a101.69,101.69,0,0,0,11.57-3.11C362.86,469.52,364.47,468.09,362.79,466.71Z" transform="translate(-6.56 -60.55)"/><path class="cls-7" d="M366.46,484.36a4.59,4.59,0,0,0-3.45-1.82,9,9,0,0,0-5.37.8,10.5,10.5,0,0,0-4.56,3.82c-.78,1.38,1,2.15,1.95,2.6,2.93,1.44,8.83.54,11.06-2C367,486.75,367.41,485.53,366.46,484.36Z" transform="translate(-6.56 -60.55)"/><path class="cls-7" d="M362.27,485.2a2.34,2.34,0,0,0-1.79-.94,4.64,4.64,0,0,0-2.8.41,5.53,5.53,0,0,0-2.37,2c-.4.72.54,1.11,1,1.35,1.52.75,4.59.28,5.75-1A1.29,1.29,0,0,0,362.27,485.2Z" transform="translate(-6.56 -60.55)"/><path class="cls-7" d="M385.38,484.35a4.36,4.36,0,0,0-2.91-1.15,9.81,9.81,0,0,0-4.53.5,8.74,8.74,0,0,0-3.84,2.42c-.65.88.86,1.36,1.65,1.65,2.46.91,7.43.35,9.31-1.26C385.82,485.87,386.17,485.09,385.38,484.35Z" transform="translate(-6.56 -60.55)"/><path class="cls-7" d="M381.85,484.88a2.32,2.32,0,0,0-1.52-.6,5,5,0,0,0-2.35.27,4.62,4.62,0,0,0-2,1.25c-.34.46.45.71.86.86a6.18,6.18,0,0,0,4.84-.65C382.07,485.67,382.26,485.27,381.85,484.88Z" transform="translate(-6.56 -60.55)"/><path class="cls-7" d="M403.14,487.43a3.19,3.19,0,0,0-2.1-.83,7,7,0,0,0-3.27.36,6.37,6.37,0,0,0-2.77,1.75c-.47.63.63,1,1.19,1.19,1.78.65,5.36.25,6.72-.91C403.45,488.52,403.71,488,403.14,487.43Z" transform="translate(-6.56 -60.55)"/><path class="cls-7" d="M391.17,482.81a1.69,1.69,0,0,0-1.1-.43,3.61,3.61,0,0,0-1.71.19,3.25,3.25,0,0,0-1.45.91c-.25.33.32.51.62.62a4.51,4.51,0,0,0,3.52-.47C391.33,483.38,391.47,483.09,391.17,482.81Z" transform="translate(-6.56 -60.55)"/><path class="cls-7" d="M308.77,486.28a4.36,4.36,0,0,0-2.91-1.15,9.68,9.68,0,0,0-4.53.5,8.74,8.74,0,0,0-3.84,2.42c-.66.88.86,1.36,1.65,1.65,2.46.91,7.43.34,9.31-1.26C309.21,487.79,309.57,487,308.77,486.28Z" transform="translate(-6.56 -60.55)"/><path class="cls-7" d="M305.24,486.81a2.27,2.27,0,0,0-1.52-.6,5.14,5.14,0,0,0-2.35.26,4.64,4.64,0,0,0-2,1.26c-.34.46.45.71.86.86a6.19,6.19,0,0,0,4.84-.66C305.46,487.6,305.65,487.2,305.24,486.81Z" transform="translate(-6.56 -60.55)"/><path class="cls-7" d="M326.53,489.36a3.1,3.1,0,0,0-2.1-.83,7,7,0,0,0-3.27.36,6.36,6.36,0,0,0-2.77,1.74c-.47.64.63,1,1.19,1.2,1.78.65,5.36.24,6.72-.92C326.84,490.45,327.1,489.89,326.53,489.36Z" transform="translate(-6.56 -60.55)"/><path class="cls-7" d="M314.56,484.74a1.65,1.65,0,0,0-1.1-.44,3.76,3.76,0,0,0-1.71.19,3.35,3.35,0,0,0-1.45.92c-.25.33.33.51.62.62a4.51,4.51,0,0,0,3.52-.48C314.72,485.31,314.86,485,314.56,484.74Z" transform="translate(-6.56 -60.55)"/><path class="cls-7" d="M219.62,499.07a4.29,4.29,0,0,0-2.91-1.15,9.68,9.68,0,0,0-4.53.5,8.74,8.74,0,0,0-3.84,2.42c-.65.88.87,1.36,1.65,1.65,2.46.91,7.43.34,9.31-1.26C220.06,500.58,220.42,499.81,219.62,499.07Z" transform="translate(-6.56 -60.55)"/><path class="cls-7" d="M216.09,499.6a2.27,2.27,0,0,0-1.51-.6,5.16,5.16,0,0,0-2.36.26,4.64,4.64,0,0,0-2,1.26c-.34.46.45.71.86.86a6.19,6.19,0,0,0,4.84-.66C216.32,500.39,216.5,500,216.09,499.6Z" transform="translate(-6.56 -60.55)"/><path class="cls-7" d="M237.38,502.15a3.08,3.08,0,0,0-2.1-.83,7,7,0,0,0-3.27.36,6.36,6.36,0,0,0-2.77,1.74c-.47.64.63,1,1.19,1.19,1.78.66,5.36.25,6.72-.91C237.7,503.24,238,502.68,237.38,502.15Z" transform="translate(-6.56 -60.55)"/><path class="cls-7" d="M225.41,497.53a1.65,1.65,0,0,0-1.1-.44,3.76,3.76,0,0,0-1.71.19,3.35,3.35,0,0,0-1.45.92c-.25.33.33.51.62.62a4.51,4.51,0,0,0,3.52-.48C225.57,498.1,225.71,497.81,225.41,497.53Z" transform="translate(-6.56 -60.55)"/><path class="cls-7" d="M34.52,475.15a4.33,4.33,0,0,0-2.9-1.15,9.93,9.93,0,0,0-4.53.5,8.7,8.7,0,0,0-3.84,2.43c-.66.87.86,1.36,1.64,1.65,2.47.91,7.44.34,9.32-1.27C35,476.67,35.32,475.9,34.52,475.15Z" transform="translate(-6.56 -60.55)"/><path class="cls-7" d="M31,475.68a2.24,2.24,0,0,0-1.51-.59,5.12,5.12,0,0,0-2.35.26,4.44,4.44,0,0,0-2,1.26c-.34.45.45.7.86.85a6.19,6.19,0,0,0,4.84-.65C31.22,476.47,31.41,476.07,31,475.68Z" transform="translate(-6.56 -60.55)"/><path class="cls-7" d="M52.28,478.23a3.15,3.15,0,0,0-2.09-.83,7,7,0,0,0-3.27.36,6.41,6.41,0,0,0-2.77,1.75c-.47.63.62,1,1.19,1.19,1.78.66,5.36.25,6.71-.91C52.6,479.33,52.86,478.77,52.28,478.23Z" transform="translate(-6.56 -60.55)"/><path class="cls-7" d="M40.31,473.61a1.65,1.65,0,0,0-1.1-.43,3.58,3.58,0,0,0-1.7.19,3.29,3.29,0,0,0-1.46.91c-.24.33.33.52.63.62a4.49,4.49,0,0,0,3.51-.47C40.48,474.19,40.61,473.89,40.31,473.61Z" transform="translate(-6.56 -60.55)"/><path class="cls-8" d="M88.51,486.15c-2.2-.37-4.61,0-6,1.72a3.75,3.75,0,0,0-.56,3.61c.74,1.9,2.16,2.63,4.07,3.09,3,.7,7.14.21,8.33-3.14C95.75,487.57,91.86,485.29,88.51,486.15Z" transform="translate(-6.56 -60.55)"/><g class="cls-9"><path class="cls-10" d="M296.27,461l.14.06c.26.1.57-.33.53-.56a.93.93,0,0,0-.31-.64,7.75,7.75,0,0,1-1.58-2.45,19.31,19.31,0,0,1-.77-2.77.31.31,0,0,0,0-.16c-.69-3.78-1.3-7.56-1.62-11.39s-.38-7.66-.48-11.5-.48-7.92-.26-11.86a25.37,25.37,0,0,1,.34-2.76,18.1,18.1,0,0,0,.55-1.93,2.27,2.27,0,0,0-.89-1.57,1.63,1.63,0,0,0,.31,0,.54.54,0,0,0,.43-.53c-.08-.76-.78-1-1.45-1l.57-.36c.22-.13.61-.69.21-.84a13.38,13.38,0,0,1-5.22-3.39,15.57,15.57,0,0,1-3.27-5.3,108.42,108.42,0,0,1-3.71-12.36c-1.09-4.15-2.18-8.35-3-12.57-.36-1.87-.66-3.75-1-5.62.1-.09.19-.22.17-.31-.13-.75-.28-1.5-.43-2.24l-2,2.27c-4.3,4.79-8.69,9.52-13,14.34-7.3,8.22-14.07,16.88-20.57,25.74.76.41,1.53.81,2.3,1.2,7,3.58,14.51,6.21,21.74,9.36a42.56,42.56,0,0,1,10,6.5,15.8,15.8,0,0,1,2.88,3.17,41.22,41.22,0,0,1,1.67,3.86c.23,1,.41,2,.69,3,0,.15.18.12.31,0a73.09,73.09,0,0,1,2.5,9.23,35.32,35.32,0,0,1,.55,7c-.87,2.84-3.06,4.13-5.78,5.45a10.2,10.2,0,0,0-4.27,3.26c-2,3-1.43,8.9,3.32,8a7.68,7.68,0,0,0,2.7,1.4,7.23,7.23,0,0,0,5.91-.81,1.84,1.84,0,0,0,.25.09h0l.07,0h0a5.62,5.62,0,0,0,3.85.43,10.8,10.8,0,0,0,4.48-2.55,8,8,0,0,0,2-1.7,5.86,5.86,0,0,0,1.12-5.31c.23.09.57-.37.52-.56A4.56,4.56,0,0,0,296.27,461Z" transform="translate(-6.56 -60.55)"/><path class="cls-11" d="M295.88,463a9,9,0,0,0-.77-3.27.29.29,0,0,1,.26-.06l.09,0a6.09,6.09,0,0,1-.5-.65,9,9,0,0,1-.88-2.15,11.39,11.39,0,0,1-.34-1.74.19.19,0,0,1-.19-.18,130.12,130.12,0,0,1-2.11-22.29c-.1-3.65-.39-7.31-.3-11a20,20,0,0,1,.61-5.11c.19-.66.55-1.23.11-1.9-.34-.51-.81-.86-1.19-1.33-.19-.23.11-.66.38-.67a3,3,0,0,1,.52,0,2.78,2.78,0,0,0-1-.21c-.22,0-.19-.21-.1-.36a.7.7,0,0,1,.27-.71l.08-.06a12,12,0,0,1-4.39-2.79,16.16,16.16,0,0,1-3.35-4.87,96.8,96.8,0,0,1-3.7-11.81c-1.22-4.51-2.46-9.14-3.28-13.75-.5-2.8-.86-5.62-1.28-8.43-.44.49-.88,1-1.32,1.47-4.3,4.79-8.69,9.52-13,14.34-7.07,8-13.64,16.34-19.95,24.9,1.75.93,3.54,1.8,5.33,2.64,3.63,1.69,7.36,3.18,11.07,4.7,3.54,1.46,7.45,2.65,10.7,4.71,1.73,1.1,3.34,2.35,5,3.5a23.9,23.9,0,0,1,2,1.56c-.66-1.13-1.35-2.25-2-3.35l.5.21,1,.42a35.76,35.76,0,0,1,2.13,3.49c.35.65.67,1.32,1,2a9.3,9.3,0,0,1,1.52,2.71,19,19,0,0,1,.59,2.42c.31.83.6,1.66.89,2.49,1.88,5.43,3.37,11.33,2.88,17.11a9.18,9.18,0,0,1-.69,1.61c0-.24,0-.49.05-.73-.91,2-2.63,3.3-4.87,4.38-2.45,1.19-5.46,2.71-5.61,5.86-.12,2.47.86,4.17,3.08,4.47a3.22,3.22,0,0,1-.7-1.65,4,4,0,0,1,0-1.2,3.12,3.12,0,0,1,.28-1.95c1.18-2.08,3.49-3.35,5.5-4.48.27-.15.2.22,0,.32A19.42,19.42,0,0,0,276,465c.08,0,.14.09.05.22a6,6,0,0,0-.48.84h.1a5.4,5.4,0,0,0-.4,1.17,2.27,2.27,0,0,0,0,.52,8.46,8.46,0,0,0,.54,2,6.08,6.08,0,0,0,4.22,2.29,6.52,6.52,0,0,0,3.25-.19,6.65,6.65,0,0,0,.65-.34c-1.45-1.15-1.65-4-1.12-5.56.79-2.23,3.39-3.42,5.25-4.56.29-.18.21.25,0,.37-1.5,1.08-3.61,2.11-4.48,3.82a4.77,4.77,0,0,0,.9,5.15l.37,0a2.55,2.55,0,0,0,.5.39,3.19,3.19,0,0,0,1.93.6,5.47,5.47,0,0,0,2.2-.27l.28-.08a6.78,6.78,0,0,0,3.44-2.17,4.94,4.94,0,0,0,.86-.68,7.32,7.32,0,0,0,1.76-5.62Z" transform="translate(-6.56 -60.55)"/><path class="cls-12" d="M274.54,467.77a3.12,3.12,0,0,1,.28-1.95,9.24,9.24,0,0,1,2.93-2.94l.62-.59c-1.43.74-3.12,1.24-4.18.17l0,0a5.07,5.07,0,0,0-2,3.74c-.12,2.47.86,4.17,3.08,4.47a3.22,3.22,0,0,1-.7-1.65A4,4,0,0,1,274.54,467.77Z" transform="translate(-6.56 -60.55)"/><path class="cls-12" d="M295.88,463a9,9,0,0,0-.77-3.27.29.29,0,0,1,.26-.06l.09,0a6.09,6.09,0,0,1-.5-.65,9,9,0,0,1-.88-2.15,11.39,11.39,0,0,1-.34-1.74.19.19,0,0,1-.19-.18,130.12,130.12,0,0,1-2.11-22.29c-.1-3.65-.39-7.31-.3-11a20,20,0,0,1,.61-5.11c.19-.66.55-1.23.11-1.9-.34-.51-.81-.86-1.19-1.33-.19-.23.11-.66.38-.67a3,3,0,0,1,.52,0,2.78,2.78,0,0,0-1-.21c-.22,0-.19-.21-.1-.36a.7.7,0,0,1,.27-.71l.08-.06a12,12,0,0,1-4.39-2.79,16.16,16.16,0,0,1-3.35-4.87,96.8,96.8,0,0,1-3.7-11.81c-1.22-4.51-2.46-9.14-3.28-13.75-.5-2.8-.86-5.62-1.28-8.43-.44.49-.88,1-1.32,1.47-4.3,4.79-8.69,9.52-13,14.34-7.07,8-13.64,16.34-19.95,24.9,1.75.93,3.54,1.8,5.33,2.64,3.63,1.69,7.36,3.18,11.07,4.7,3.54,1.46,7.45,2.65,10.7,4.71,1.73,1.1,3.34,2.35,5,3.5a23.9,23.9,0,0,1,2,1.56c-.66-1.13-1.35-2.25-2-3.35l.5.21,1,.42a35.76,35.76,0,0,1,2.13,3.49c.35.65.67,1.32,1,2a9.08,9.08,0,0,1,1.49,2.64c0-.19,0-.39,0-.58A23.94,23.94,0,0,1,281.1,424c.08-.18.42-.1.39.11-.22,1.72-.35,3.45-.4,5.18.65-1.85,1-3.79,1.53-5.66a.21.21,0,0,1,.41,0c1.72,6.57,3.43,13.15,4.89,19.78.72,3.25,1.39,6.51,2,9.79a53.88,53.88,0,0,1,1.23,8.28,6.68,6.68,0,0,1-1.49,4.82c-1.05,1.07-3,2-4.48,1.36s-1-2.1-.28-3.55a5.42,5.42,0,0,0-1.23,1.53,4.77,4.77,0,0,0,.9,5.15l.37,0a2.55,2.55,0,0,0,.5.39,3.19,3.19,0,0,0,1.93.6,5.47,5.47,0,0,0,2.2-.27l.28-.08a6.78,6.78,0,0,0,3.44-2.17,4.94,4.94,0,0,0,.86-.68,7.32,7.32,0,0,0,1.76-5.62Z" transform="translate(-6.56 -60.55)"/><path class="cls-12" d="M282.83,466a6.46,6.46,0,0,1,2.74-3q.29-.42.57-.78a9.93,9.93,0,0,0-2.37,1.69,24.72,24.72,0,0,0-1.88,2.44,3,3,0,0,1-3.66,1.26,2.53,2.53,0,0,1-1.55-3.21l0-.09a8.31,8.31,0,0,0-.71.75c.08,0,.14.09.05.22a6,6,0,0,0-.48.84h.1a5.4,5.4,0,0,0-.4,1.17,2.27,2.27,0,0,0,0,.52,8.46,8.46,0,0,0,.54,2,6.08,6.08,0,0,0,4.22,2.29,6.52,6.52,0,0,0,3.25-.19,6.65,6.65,0,0,0,.65-.34C282.5,470.44,282.3,467.54,282.83,466Z" transform="translate(-6.56 -60.55)"/><path class="cls-12" d="M274.54,467.77a3.12,3.12,0,0,1,.28-1.95,8.39,8.39,0,0,1,2.3-2.49,8.11,8.11,0,0,0-1.73.76c-.74.48-1.52-.29-1.81-.93l-.06-.16a4.8,4.8,0,0,0-1.4,3.15c-.12,2.47.86,4.17,3.08,4.47a3.22,3.22,0,0,1-.7-1.65A4,4,0,0,1,274.54,467.77Z" transform="translate(-6.56 -60.55)"/><path class="cls-12" d="M295.88,463a9,9,0,0,0-.77-3.27.29.29,0,0,1,.26-.06l.09,0a6.09,6.09,0,0,1-.5-.65,9,9,0,0,1-.88-2.15,11.39,11.39,0,0,1-.34-1.74.19.19,0,0,1-.19-.18,130.12,130.12,0,0,1-2.11-22.29c-.1-3.65-.39-7.31-.3-11a20,20,0,0,1,.61-5.11c.19-.66.55-1.23.11-1.9-.34-.51-.81-.86-1.19-1.33-.19-.23.11-.66.38-.67a3,3,0,0,1,.52,0,2.78,2.78,0,0,0-1-.21c-.22,0-.19-.21-.1-.36a.7.7,0,0,1,.27-.71l.08-.06a12,12,0,0,1-4.39-2.79,16.16,16.16,0,0,1-3.35-4.87,96.8,96.8,0,0,1-3.7-11.81c-1.22-4.51-2.46-9.14-3.28-13.75-.5-2.8-.86-5.62-1.28-8.43-.44.49-.88,1-1.32,1.47-4.3,4.79-8.69,9.52-13,14.34-7.07,8-13.64,16.34-19.95,24.9,1.75.93,3.54,1.8,5.33,2.64,3.63,1.69,7.36,3.18,11.07,4.7,3.54,1.46,7.45,2.65,10.7,4.71,1.73,1.1,3.34,2.35,5,3.5a23.9,23.9,0,0,1,2,1.56c-.66-1.13-1.35-2.25-2-3.35l.5.21,1,.42a35.76,35.76,0,0,1,2.13,3.49c.16.3.32.61.47.92a27.54,27.54,0,0,1,1-6.79,30,30,0,0,1,4.94-9.29c.13-.18.46-.08.39.17-.54,1.85-1.27,3.66-1.63,5.55a15.88,15.88,0,0,1,3.1-4.35.22.22,0,0,1,.36.21,28.72,28.72,0,0,0-1,7.35,10.87,10.87,0,0,1,3.17-6.57c.15-.13.42,0,.36.2-4.23,13.76,6.6,27.49,2.46,41.16.32-.44.65-.88,1-1.3a.21.21,0,0,1,.36.14,11,11,0,0,1-.49,3.14c.34-.38.66-.77,1-1.17.12-.15.35,0,.36.15.12,2.27.12,4.88-1.07,6.91a6.46,6.46,0,0,1-5.35,3,.2.2,0,0,1-.2-.15c-.44-1.77.62-3.57,1.83-4.93l-1.27.46a7.15,7.15,0,0,0-2.51,2.5,4.77,4.77,0,0,0,.9,5.15l.37,0a2.55,2.55,0,0,0,.5.39,3.19,3.19,0,0,0,1.93.6,5.47,5.47,0,0,0,2.2-.27l.28-.08a6.78,6.78,0,0,0,3.44-2.17,4.94,4.94,0,0,0,.86-.68,7.32,7.32,0,0,0,1.76-5.62Z" transform="translate(-6.56 -60.55)"/><path class="cls-12" d="M282.83,466a1,1,0,0,0,0-.1l-.28.39c-.94,1.22-2.63,1-4,.78-1.23-.2-2-1.09-1.32-2.34a7.92,7.92,0,0,1,2.45-2.51l-.56.21A13.49,13.49,0,0,0,276,465c.08,0,.14.09.05.22a6,6,0,0,0-.48.84h.1a5.4,5.4,0,0,0-.4,1.17,2.27,2.27,0,0,0,0,.52,8.46,8.46,0,0,0,.54,2,6.08,6.08,0,0,0,4.22,2.29,6.52,6.52,0,0,0,3.25-.19,6.65,6.65,0,0,0,.65-.34C282.5,470.44,282.3,467.54,282.83,466Z" transform="translate(-6.56 -60.55)"/><path class="cls-10" d="M349.62,275.61c-.06-.26-.33-.3-.54-.15a5.77,5.77,0,0,0-1.5,2c-.67,1.22-1.72,3.58-3.05,4.68a38.65,38.65,0,0,0,2.85-7.93c.48-1.82,1.46-6-.43-7.44a.36.36,0,0,0-.41,0,2.32,2.32,0,0,0-1,1,56,56,0,0,0,.51-15.67,32,32,0,0,0-2.74-9.26c-.86-1.89-2.2-5.27-4.38-6-.27-.08-.57.22-.68.43-.46.83-.18,2-.17,2.92l.06,1.76a26.61,26.61,0,0,0-1.28-3.48c-.49-1.07-1.66-3.5-3-3.61-.56,0-1.23.06-1.23.83a23.3,23.3,0,0,0,.64,4.26c-.13-.37-.26-.74-.41-1.08a31.62,31.62,0,0,0-2.79-5.23,20.35,20.35,0,0,0-3.08-3.47c-.84-.76-1.83-2-2.95-2.25-.34-.08-.61.37-.61.65a6.24,6.24,0,0,0,.85,2.59.36.36,0,0,0,0,.18l.41.93c0,.13.06.25.08.38s.07.14.14.14a33.63,33.63,0,0,1,2.82,12.69,85.36,85.36,0,0,1-1.36,16.19,87.56,87.56,0,0,1-11.31,30.83c-2.62,4.26-5.66,8.31-8.55,12.4a73.77,73.77,0,0,1-9.6,11.34c-6.12,5.72-13.85,9.56-21.72,12.51,0-.17-.06-.28-.31-.19a9.06,9.06,0,0,0-2.64,1.26l-2.37.81c-.21.07-.41.56-.07.47l1.76-.49a1.78,1.78,0,0,0-.21.65c-.24,2.32,2.73,3.31,4.53,3.75,3.34.81,6.91.53,10.32.62a52.3,52.3,0,0,0,12.16-1.1C312,331.75,326,326.15,334.91,315c.23-.29.32-.9-.23-.76a15.46,15.46,0,0,0-3.27,1.41,19.72,19.72,0,0,1-4.49,1.8c.58-.36,1.21-.68,1.7-1,1.16-.8,2.22-1.78,3.31-2.67a46.12,46.12,0,0,0,6.15-6.19,41.85,41.85,0,0,0,5.21-7.45c.83-1.59,2.33-4.13,2.15-6,0-.21-.22-.24-.39-.19-.93.23-1.52,1-2.27,1.59l-1,.74a54,54,0,0,0,4-6.51,39.21,39.21,0,0,0,3.1-7.38C349.55,280.22,350.17,277.82,349.62,275.61Z" transform="translate(-6.56 -60.55)"/><path class="cls-11" d="M347.82,283.11a35.75,35.75,0,0,1-2.77,6.42,45.81,45.81,0,0,1-3.84,6.05c-.36.85-.76,1.68-1.19,2.5l.48-.18c1-.66,2-1.39,3.08-2.08,1.28-.83.07,1.55-.12,2a31.66,31.66,0,0,1-3.19,5.75,51.24,51.24,0,0,1-7.6,8.51,49,49,0,0,1-4.71,3.81,15,15,0,0,0-2.78,1.94c-.12.13-.38.74,0,.77,1.47.16,2.87-.66,4.21-1.18s2.62-1.25,3.95-1.76c-7.38,8.55-18,13.47-28.75,16.37a64.13,64.13,0,0,1-18.72,2.5A69.3,69.3,0,0,1,277,334a9.21,9.21,0,0,1-3.31-1.19c-.65-.38-2-1.53-.69-2.47l.4-.25a64.76,64.76,0,0,0,23.41-12.58,66.05,66.05,0,0,0,9.56-10.95c3.14-4.31,6.28-8.69,9.15-13.17,6.06-9.47,9.61-20.24,11.66-31.24,1.92-10.27,2.85-21.88-2.18-31.39a.2.2,0,0,0-.17-.11,11.39,11.39,0,0,1-.54-1.51,20.08,20.08,0,0,1,2.49,2.33,19,19,0,0,1,3.22,4.13,44.65,44.65,0,0,1,2.3,4.78,7.46,7.46,0,0,1,.31.83c.58,1,1.1,2.11,1.61,3.19a1.1,1.1,0,0,0,.46-.64c.18-2.69-.78-5.16-1-7.77.91.68,2.36,3.47,2.54,3.87a19,19,0,0,1,1,2.57c.72.95,1.44,1.9,2.07,2.91,0-1.39-.07-2.77-.13-4.16a26.84,26.84,0,0,1-.24-3c1.83,1.07,3.07,4.44,3.84,6.12a32.47,32.47,0,0,1,2.46,9.19c.72,5.64,0,11.37-.92,17,0,.88.07,1.76.11,2.64.16-.35.31-.71.45-1.07s.18-.92.26-1.38l0-.07c.35-.69.59-1.45.92-2.16.79-1.7,1,2.29,1,2.68-.08,4-1.91,8.58-3.87,12-.17.3-.11.73.32.6a5.21,5.21,0,0,0,2.56-2.31,24.05,24.05,0,0,0,1.55-2.45,15.91,15.91,0,0,1,1.18-2.12A15.16,15.16,0,0,1,347.82,283.11Z" transform="translate(-6.56 -60.55)"/><path class="cls-13" d="M329,262.65a67.12,67.12,0,0,0,1.09-18.6c-.5-4.83-1.82-10.07-5.32-13.53a1.21,1.21,0,0,1,.05.14.2.2,0,0,1,.17.11c5,9.51,4.1,21.12,2.18,31.39-2.05,11-5.6,21.77-11.66,31.24-1.2,1.88-2.46,3.74-3.74,5.58A80.18,80.18,0,0,0,329,262.65Z" transform="translate(-6.56 -60.55)"/><path class="cls-13" d="M326.05,287.08A28.48,28.48,0,0,0,330,275.47a73.71,73.71,0,0,1-12.89,22.14A34.65,34.65,0,0,0,326.05,287.08Z" transform="translate(-6.56 -60.55)"/><path class="cls-13" d="M311.11,308.51a24.12,24.12,0,0,0,8.21-5.59,27.72,27.72,0,0,0,5-7C320.67,300.78,316.29,305.47,311.11,308.51Z" transform="translate(-6.56 -60.55)"/><path class="cls-14" d="M348.76,276.79a15.91,15.91,0,0,0-1.18,2.12,24.05,24.05,0,0,1-1.55,2.45,5.21,5.21,0,0,1-2.56,2.31c-.43.13-.49-.3-.32-.6,2-3.38,3.79-8,3.87-12,0-.39-.21-4.38-1-2.68-.33.71-.57,1.47-.92,2.16l0,.07c-.08.46-.17.92-.26,1.38s-.29.72-.45,1.07c0-.88-.08-1.76-.11-2.64.91-5.61,1.64-11.34.92-17a32.47,32.47,0,0,0-2.46-9.19c-.77-1.68-2-5.05-3.84-6.12a26.84,26.84,0,0,0,.24,3c.06,1.39.11,2.77.13,4.16-.63-1-1.35-2-2.07-2.91a19,19,0,0,0-1-2.57c-.18-.4-1.63-3.19-2.54-3.87.23,2.61,1.19,5.08,1,7.77a1.1,1.1,0,0,1-.46.64c-.51-1.08-1-2.16-1.61-3.19a7.46,7.46,0,0,0-.31-.83,44.65,44.65,0,0,0-2.3-4.78,22,22,0,0,0-2.15-3,34.53,34.53,0,0,1,2.73,7.88,50.26,50.26,0,0,1,1.54,8.24,80.43,80.43,0,0,1-.12,9.82c.89-3.23,1.2-6.6,1.93-9.88.06-.29.42-.27.57-.08,3.83,5.2.93,12.65-.31,18.56,2.08-3.54,2.73-7.84,3.46-11.81a.31.31,0,0,1,.6,0c2.57,9.93.12,20.3-4.95,29.19,1.47-1.58,2.81-3.28,4.12-5,.22-.28.67.09.49.38-2.3,3.59-3.76,7.64-6.14,11.16,3-2.54,4.67-6.38,7-9.46a.31.31,0,0,1,.53.32,52.55,52.55,0,0,0-2.26,6.94,38,38,0,0,1-2.47,6.07,60.69,60.69,0,0,1-7.36,11.25c-3.71,4.5-8.22,8.55-13.69,10.31a25.46,25.46,0,0,1-12.95,3.12.31.31,0,0,1-.22-.53c1.4-1.39,2.83-2.74,4.23-4.12-2.14,1.74-4.39,3.4-7,3.86a.31.31,0,0,1-.24-.57c2.69-2,4.64-4.94,6.42-7.74l1.58-2.52a61.94,61.94,0,0,1-8.5,9.51A64.76,64.76,0,0,1,273.4,330.1l-.4.25c-1.3.94,0,2.09.69,2.47A9.21,9.21,0,0,0,277,334a69.3,69.3,0,0,0,8.87.49,64.13,64.13,0,0,0,18.72-2.5c10.75-2.9,21.37-7.82,28.75-16.37-1.33.51-2.63,1.27-3.95,1.76s-2.74,1.34-4.21,1.18c-.38,0-.12-.64,0-.77a15,15,0,0,1,2.78-1.94,49,49,0,0,0,4.71-3.81,51.24,51.24,0,0,0,7.6-8.51,31.66,31.66,0,0,0,3.19-5.75c.19-.42,1.4-2.8.12-2-1.07.69-2.06,1.42-3.08,2.08l-.48.18c.43-.82.83-1.65,1.19-2.5a45.81,45.81,0,0,0,3.84-6.05,35.75,35.75,0,0,0,2.77-6.42A15.16,15.16,0,0,0,348.76,276.79Z" transform="translate(-6.56 -60.55)"/><path class="cls-14" d="M325.18,318.57c-.38,0-.12-.64,0-.77a15,15,0,0,1,2.78-1.94,49,49,0,0,0,4.71-3.81c.53-.48,1.05-1,1.57-1.49a81.44,81.44,0,0,1-9.33,6.07c-5.38,3-11.34,6.41-17.58,7.05a15.79,15.79,0,0,1-5.31-.22c-1.85-.44-3.61-1.23-5.44-1.77a28,28,0,0,0-4-.86,68.59,68.59,0,0,1-19.2,9.27l-.4.25c-1.3.94,0,2.09.69,2.47A9.21,9.21,0,0,0,277,334a69.3,69.3,0,0,0,8.87.49,64.13,64.13,0,0,0,18.72-2.5c10.75-2.9,21.37-7.82,28.75-16.37-1.33.51-2.63,1.27-3.95,1.76S326.65,318.73,325.18,318.57Z" transform="translate(-6.56 -60.55)"/><path class="cls-10" d="M354.59,465.6l.14.07c.26.09.57-.33.53-.56a.93.93,0,0,0-.31-.64,7.52,7.52,0,0,1-1.58-2.46,18.61,18.61,0,0,1-.77-2.77.3.3,0,0,0,0-.16c-.69-3.78-1.3-7.56-1.62-11.38s-.38-7.67-.48-11.5-.48-7.92-.26-11.86a25.37,25.37,0,0,1,.34-2.76,16,16,0,0,0,.54-1.93,2.2,2.2,0,0,0-.88-1.57h.31a.54.54,0,0,0,.43-.53c-.08-.76-.78-1-1.45-1l.57-.36c.22-.13.61-.69.21-.85a13.58,13.58,0,0,1-5.23-3.38,15.65,15.65,0,0,1-3.26-5.31,108.26,108.26,0,0,1-3.71-12.35c-1.09-4.15-2.18-8.36-3-12.57-.36-1.88-.66-3.75-1-5.62.1-.09.19-.23.17-.31A65.67,65.67,0,0,0,324.08,350c-5-7.36-10.33-14.43-17.48-19.82a40.7,40.7,0,0,0-15.86-7.52c.08-.15.09-.31-.07-.28a6,6,0,0,1-.82.11c-.51-.1-1-.19-1.56-.26a1.46,1.46,0,0,1-.07.19c-1.36-.16-2.72-.56-4.08-.73a22.88,22.88,0,0,0-6.85.45,93.35,93.35,0,0,0-13.36,3.48c-7.69,2.59-14.5,7.3-20.46,12.72-13.76,12.5-22.74,28.83-32.08,44.66-.46.78-.91,1.57-1.37,2.36-1.6,2.36-3.31,4.65-5.06,6.82a55,55,0,0,0-4.17,5.13,61.31,61.31,0,0,1-4.58,6.09c-6.28,7.83-12.77,15.52-19.33,23.12-3,3.52-6.46,6.72-9.42,10.29s-6.31,6.94-9,10.74c-1.21,1.69-2.24,3.5-3.31,5.29-.73,1.23-1.52,2.44-2.24,3.68-.61.85-1.22,1.71-1.79,2.59-3.83,5.84-6.79,12.71-7.48,19.7,0,.37.26.3.5.1a22.3,22.3,0,0,0,.68,8.85,15.73,15.73,0,0,0,5.56,7.25c5.19,4,12.06,5.8,18.36,7.19,17.93,3.92,36.95,2,54.27-3.71,5.72-1.88,11.81-4.06,16.13-8.42,1.8-1.83,2.86-4.35,4.25-6.49a10,10,0,0,0,1.33-7,24.52,24.52,0,0,1,1.7-5,10.34,10.34,0,0,1,1-1.67c-.3,1-.51,2-.73,3.11-.09.41.41.2.54.05,1.33-1.5,2.12-3.26,3.3-4.86a35,35,0,0,1,3-3.32c-.55,1-1.11,2-1.67,3-.2.36.09.56.4.32a29.67,29.67,0,0,0,2.62-2.52c1.1-1.11,2.38-2.06,3.59-3.06,1-.84,2.08-1.51,3.07-2.39a25,25,0,0,0,2.61-2.3c2.06-2.46,4.72-4.79,6.51-7.57a9.89,9.89,0,0,0,2.05-3.68,32.8,32.8,0,0,0,1.5-5.49c.7-4.23,1.48-8.38,1.95-12.64a72,72,0,0,1,2.68-13.23c1.23-4,3.48-7.47,5.39-11.16,4,5.95,10.06,9.68,16.41,12.9,7,3.58,14.51,6.21,21.74,9.37a42.3,42.3,0,0,1,10,6.5,15.3,15.3,0,0,1,2.89,3.17c.61,1.25,1.18,2.54,1.67,3.86.23,1,.41,2,.69,3,0,.14.18.12.31,0a72.64,72.64,0,0,1,2.5,9.23,36,36,0,0,1,.56,7c-.88,2.84-3.08,4.13-5.79,5.44a10.28,10.28,0,0,0-4.27,3.27c-2,3-1.43,8.89,3.32,8a7.68,7.68,0,0,0,2.7,1.4,7.23,7.23,0,0,0,5.91-.81,1.84,1.84,0,0,0,.25.09h0l.07.05h0a5.7,5.7,0,0,0,3.84.43,11,11,0,0,0,4.48-2.55,8,8,0,0,0,2-1.71,5.83,5.83,0,0,0,1.12-5.3c.23.09.57-.37.52-.57A4.67,4.67,0,0,0,354.59,465.6Z" transform="translate(-6.56 -60.55)"/><path class="cls-11" d="M354.15,469.55a5.55,5.55,0,0,1-1.7,3.64,25.71,25.71,0,0,1-4.31,2.85l-.28.07a5.3,5.3,0,0,1-2.2.28,3.13,3.13,0,0,1-1.93-.61,2.19,2.19,0,0,1-.5-.38l-.37,0c-1.14-1.46-1.81-3.35-.9-5.15s3-2.74,4.48-3.83c.17-.12.25-.54,0-.36-1.86,1.13-4.46,2.32-5.25,4.56-.53,1.5-.33,4.4,1.12,5.56a6.65,6.65,0,0,1-.65.34,6.52,6.52,0,0,1-3.25.19,6.08,6.08,0,0,1-4.22-2.29,8.41,8.41,0,0,1-.54-2,2.19,2.19,0,0,1,0-.51,5.06,5.06,0,0,1,.4-1.17h-.1a5.57,5.57,0,0,1,.48-.85c.09-.12,0-.2-.05-.21a19.42,19.42,0,0,1,4.35-3.38c.16-.11.23-.48,0-.33-2,1.14-4.32,2.41-5.5,4.49a3.12,3.12,0,0,0-.28,1.95,4,4,0,0,0,0,1.2,3.3,3.3,0,0,0,.7,1.65c-2.22-.3-3.2-2-3.08-4.48.15-3.14,3.16-4.66,5.61-5.85,2.24-1.08,4-2.38,4.87-4.38,0,.24,0,.48-.05.73a8.49,8.49,0,0,0,.69-1.61c.49-5.78-1-11.68-2.88-17.11-.29-.83-.58-1.67-.89-2.49a18.55,18.55,0,0,0-.59-2.42,9,9,0,0,0-1.53-2.71c-.31-.67-.63-1.33-1-2a36.84,36.84,0,0,0-2.13-3.48l-1-.42-.5-.22c.7,1.11,1.39,2.23,2.05,3.36a22,22,0,0,0-2-1.56c-1.68-1.16-3.3-2.41-5-3.5-3.25-2.06-7.16-3.25-10.7-4.71-3.71-1.52-7.44-3-11.07-4.71-7.14-3.33-14.31-7.19-19-13.75a51,51,0,0,1-5.23-9.95,30.71,30.71,0,0,1-2.41-12.65c0-.39-.5-.07-.51.18-.05,1.22-.51,2.45-.5,3.65v.06c-.1-.74-.18-1.47-.26-2.15a34.27,34.27,0,0,1-.22-3.51,40.93,40.93,0,0,1,.3-4.15c0-.36-.34-.19-.49,0a5.49,5.49,0,0,0-1.13,3.47c-.08-.43-.15-.87-.2-1.32a28.69,28.69,0,0,1,.17-5.32c.29-3,.82-5.92,1.38-8.84.06-.29-.34-.05-.38.13a96,96,0,0,0-1.67,9.51,34.6,34.6,0,0,0-.18,4.32,30.78,30.78,0,0,0,.77,4.77c.08.45.65-.08.68-.33.13-1.43-.2-3.62.37-5.15a40.52,40.52,0,0,0-.09,6.24,23.89,23.89,0,0,0,1.25,6.75c.15.35.65-.24.62-.47-.11-1.07-.22-2.13-.28-3.2a41.61,41.61,0,0,0,6.12,17l.48.76c-1.82,3.41-3.9,6.57-5.32,10.2a47.86,47.86,0,0,0-1.69,5.78,36.58,36.58,0,0,0-1.19,5.76c-.38,4.17-1,8.3-1.61,12.44a42.67,42.67,0,0,1-2,8.35.56.56,0,0,0-.23.23,20.49,20.49,0,0,1-3.64,6,55.25,55.25,0,0,1-5.13,5.68c-1.75,1.52-3.6,2.89-5.38,4.38-1.61,1.34-3.06,2.85-4.62,4.24.66-1.17,1.31-2.33,1.91-3.53.23-.45-.2-.57-.48-.24-1.4,1.71-3.09,3.17-4.45,4.92-1,1.23-1.65,2.62-2.54,3.88a15.09,15.09,0,0,1,1.27-3.88,9.16,9.16,0,0,0,.46-.8c.27-.53-.3-.51-.54-.14a8.32,8.32,0,0,0-.52.9,36.47,36.47,0,0,0-2.63,4.16,24.43,24.43,0,0,0-1.27,3.6c-.2.09-.44.37-.41.56s.05.57.08.84l0,.1a13.58,13.58,0,0,1,0-3.43,16.48,16.48,0,0,1,.32-2.49,19.8,19.8,0,0,0-1,3.43c-.1.54-.19,1.13-.25,1.74,0-.13.06-.26.08-.39a4.75,4.75,0,0,0,.58,2.65.22.22,0,0,0,.31.06,8.77,8.77,0,0,1-1.32,4.72c-1.12,1.8-2.1,3.75-3.38,5.44-2.9,3.83-8.13,5.87-12.46,7.51a110.66,110.66,0,0,1-27.69,6.45,97.1,97.1,0,0,1-28.37-1.11c-6.73-1.28-13.92-3.17-19.56-7.2a16.06,16.06,0,0,1-5.66-7c-1.46-3.59-1-7.54-.85-11.35a39.26,39.26,0,0,1,2.07-7.26,56.45,56.45,0,0,1,4.58-9.21c3.66-5.86,8.59-10.37,13.62-15,.19-.18.11-.52-.15-.29-2.53,2.28-5.16,4.45-7.57,6.86q-.69.71-1.35,1.44c1.08-1.75,2.1-3.53,3.3-5.21,2.7-3.79,6.09-7.14,9.06-10.73,1.5-1.8,3.24-3.42,4.86-5.11s3.08-3.44,4.59-5.19c6.56-7.6,13-15.3,19.3-23.13,1.3-1.62,2.62-3.24,3.78-5,1.47-2.2,3.28-4.17,4.93-6.23q1.59-2,3.06-4.16a.43.43,0,0,0,.2-.15l1.28-2.07c.74-1.16,1.46-2.34,2.15-3.52,4.1-6.8,8.06-13.69,12.38-20.34a122.21,122.21,0,0,1,17.09-21.24c6.16-6,13.28-11.08,21.41-14a87.23,87.23,0,0,1,14.2-3.71,23,23,0,0,1,7.17-.24,27,27,0,0,0,3.93.46c7.5,1.19,14.35,5.21,20.12,10.07a62.62,62.62,0,0,1,9.45,10.27A121.93,121.93,0,0,1,326,354.87a56.28,56.28,0,0,1,4.63,10.26c.93,2.64,1.61,5.36,2.36,8.06.5,3.19.88,6.4,1.45,9.58.82,4.61,2.06,9.23,3.28,13.75a96.8,96.8,0,0,0,3.7,11.81,16,16,0,0,0,3.35,4.86,12.07,12.07,0,0,0,4.39,2.8l-.08.06a.68.68,0,0,0-.27.7c-.09.16-.12.36.1.37a2.75,2.75,0,0,1,1,.2,3,3,0,0,0-.52,0c-.28,0-.57.44-.38.67.38.47.85.82,1.19,1.33s.08,1.23-.11,1.9a19.89,19.89,0,0,0-.61,5.1c-.09,3.65.2,7.32.29,11a131.24,131.24,0,0,0,2.12,22.29.19.19,0,0,0,.19.18,10.32,10.32,0,0,0,.35,1.74,8.74,8.74,0,0,0,.87,2.15,7.83,7.83,0,0,0,.5.65l-.1,0a.34.34,0,0,0-.25.06,9.27,9.27,0,0,1,.78,3.28A5.7,5.7,0,0,1,354.15,469.55Z" transform="translate(-6.56 -60.55)"/><path class="cls-14" d="M354.21,467.57a9.27,9.27,0,0,0-.78-3.28.34.34,0,0,1,.25-.06l.1,0a7.83,7.83,0,0,1-.5-.65,8.74,8.74,0,0,1-.87-2.15,10.32,10.32,0,0,1-.35-1.74.19.19,0,0,1-.19-.18,131.24,131.24,0,0,1-2.12-22.29c-.09-3.65-.38-7.32-.29-11a19.89,19.89,0,0,1,.61-5.1c.19-.67.55-1.24.11-1.9s-.81-.86-1.19-1.33c-.19-.23.1-.66.38-.67a3,3,0,0,1,.52,0,2.75,2.75,0,0,0-1-.2c-.22,0-.19-.21-.1-.37a.68.68,0,0,1,.27-.7l.08-.06a12.07,12.07,0,0,1-4.39-2.8,16,16,0,0,1-3.35-4.86,96.8,96.8,0,0,1-3.7-11.81c-1.22-4.52-2.46-9.14-3.28-13.75-.57-3.18-.95-6.39-1.45-9.58-.75-2.7-1.43-5.42-2.36-8.06A56.28,56.28,0,0,0,326,354.87a121.93,121.93,0,0,0-7.81-11.38,62.62,62.62,0,0,0-9.45-10.27c-5.77-4.86-12.62-8.88-20.12-10.07a27,27,0,0,1-3.93-.46,23,23,0,0,0-7.17.24,87.23,87.23,0,0,0-14.2,3.71,50.46,50.46,0,0,0-7.85,3.65,89.07,89.07,0,0,1,9.07-2.55,44.56,44.56,0,0,1,18.11-.45,38.2,38.2,0,0,1,8.19,2.43,41.67,41.67,0,0,1,7.65,4.63,45.49,45.49,0,0,1,6.68,5.71,26.11,26.11,0,0,1,3.29,4.77c1.14,1.95,2.23,3.94,3.56,5.77a9.9,9.9,0,0,0,4.17,3.74l.39.12c.25.08.15.49-.12.41a14.57,14.57,0,0,1-5.07-2.62,43.15,43.15,0,0,0,2.78,4,19.39,19.39,0,0,0,2.57,2.71,14.56,14.56,0,0,0,1.73,1.31c.45.29,1.25,1,1.8,1a.22.22,0,0,1,0,.43,13.23,13.23,0,0,1-5.5-1.32c.47.63.93,1.26,1.37,1.91,2.95,4.36,5.29,9.32,5.67,14.64,0,.25-.35.28-.42.06a28.23,28.23,0,0,0-6.34-10.49c1.05,2,2.24,3.85,3.27,5.82a36.54,36.54,0,0,1,2.63,7.18c1.39,5,3.33,10.15,3,15.41a.21.21,0,0,1-.39.11l-.48-.94a42.19,42.19,0,0,1,1.72,7.82c0,.22-.29.27-.39.1-1.32-2.1-2.79-4.1-4.29-6.07A51.19,51.19,0,0,1,327.33,416c0,.22-.3.28-.4.11a23.07,23.07,0,0,0-4.13-5.24c1.92,3.62,4.12,7.14,4.95,11.21a.22.22,0,0,1-.36.21,28.35,28.35,0,0,0-5.76-4.14c-4.79-2.63-10-4.22-15-6.5a37.46,37.46,0,0,1-12.76-9.28c-6.23-7.19-8.23-16.34-7.88-25.62-1.25,3.77-1.44,7.8-1.63,11.75a.21.21,0,0,1-.41.05c-1.9-4.7-1.43-9.81-.66-14.72a22.35,22.35,0,0,0-1.89,8.95c0,.24-.37.3-.42.06-2.08-10.57-2.05-22.57,3.05-32.33a16,16,0,0,0-2.86,4.64,42.18,42.18,0,0,0-2.11,5.69.21.21,0,0,1-.4-.11c.9-3.6.65-7.31,1.26-10.95a15.94,15.94,0,0,1,.44-1.78c-.12.34-.25.67-.37,1a39.94,39.94,0,0,1-2.43,6.17.21.21,0,0,1-.39-.11,21.67,21.67,0,0,0-1.07-6.3c0,5.49-2.29,11.19-5.31,15.5a.21.21,0,0,1-.39-.16c1-5,1.81-10.49.57-15.53a51.32,51.32,0,0,1-3.23,14.83c-1.82,4.89-4.31,9.8-8.19,13.39a.22.22,0,0,1-.37-.15,18.3,18.3,0,0,1,1-6.95,23.46,23.46,0,0,0-5.72,8.33c-.09.19-.4.09-.39-.11a23.94,23.94,0,0,1,1.19-6.22,35.09,35.09,0,0,0-6.7,14.31.21.21,0,0,1-.41,0,25.75,25.75,0,0,1-.43-12.7,38.67,38.67,0,0,0-2.79,9.2c-.7,3.84-1.12,7.72-1.87,11.54a.21.21,0,0,1-.41,0,40.92,40.92,0,0,0-1.66-4.82,39.08,39.08,0,0,1,.82,5.24c.27,3.11.32,6.86-1.77,9.41a.21.21,0,0,1-.35-.09,42.53,42.53,0,0,0-1.82-6.52c.38,4.73.51,9.6-1.6,14a.21.21,0,0,1-.39-.05c-.27-1.45-.52-2.91-.81-4.36a30.71,30.71,0,0,1-.55,5.2c-.94,5-2.57,9.8-3.31,14.82,0,.21-.37.19-.41,0a38.76,38.76,0,0,1-1-6.76c-1,6.78-.26,13.61.11,20.45a.21.21,0,0,1-.36.15,10.07,10.07,0,0,1-2.78-4.25A51.23,51.23,0,0,1,228.1,448a.21.21,0,0,1-.41,0,18.78,18.78,0,0,0-2.71-6.31c1.52,5.24,1.9,10.68-.06,16.05a.21.21,0,0,1-.38.05c-3.52-5.21-6.54-11.1-12.2-14.31a.21.21,0,0,1,.21-.37c2.91,1.51,4.94,4.07,7.4,6.14-5.58-8.14-12.16-18.15-22.95-18.65-.23,0-.29-.37-.05-.42,1.67-.34,3.38-.43,5.06-.72-5.34-2.23-11.3-.33-16.32,2-.21.09-.45-.16-.26-.34,1.9-1.72,3.74-3.52,5.71-5.17C181,428.3,172.61,436.61,169,446.28c1.14-1.86,2.57-3.92,4.7-4,.13,0,.26.15.21.27-2.47,6.15-5.72,12.67-4.56,19.49,1.07,6.3,5.76,11.17,6.88,17.42,0,.17-.14.35-.31.24-2.74-1.76-5.72-3.44-7.12-6.23.63,3.36,1.82,6.62,2.36,10,0,.18-.14.34-.31.24a15.66,15.66,0,0,1-7-8.9c.12,2.2.35,4.4.36,6.6a.22.22,0,0,1-.32.19c-2.61-1.31-4.07-4.34-4.75-7.06a14.25,14.25,0,0,1-.23-6.9,29.75,29.75,0,0,0-3.17,8.12.22.22,0,0,1-.41,0c-1.37-4.47-.65-10.21,2.76-13.63a16.5,16.5,0,0,0-5.55,4.79.21.21,0,0,1-.38-.16,18.78,18.78,0,0,1,4.79-8.4,13.39,13.39,0,0,1-4.8,1.47c-.25,0-.26-.33-.06-.41a20.65,20.65,0,0,0,9.35-7.4,39.81,39.81,0,0,1-7.2,3.72,44.29,44.29,0,0,0-2.84,4,56.45,56.45,0,0,0-4.58,9.21,39.26,39.26,0,0,0-2.07,7.26c-.15,3.81-.61,7.76.85,11.35a16.06,16.06,0,0,0,5.66,7c5.64,4,12.83,5.92,19.56,7.2a97.1,97.1,0,0,0,28.37,1.11,110.66,110.66,0,0,0,27.69-6.45c4.33-1.64,9.56-3.68,12.46-7.51,1.28-1.69,2.26-3.64,3.38-5.44A8.77,8.77,0,0,0,244,478.7a.22.22,0,0,1-.31-.06,4.75,4.75,0,0,1-.58-2.65c0,.13-.05.26-.08.39.06-.61.15-1.2.25-1.74a19.8,19.8,0,0,1,1-3.43,16.48,16.48,0,0,0-.32,2.49,13.58,13.58,0,0,0,0,3.43l0-.1c0-.27-.05-.55-.08-.84s.21-.47.41-.56a24.43,24.43,0,0,1,1.27-3.6,36.47,36.47,0,0,1,2.63-4.16,8.32,8.32,0,0,1,.52-.9c.24-.37.81-.39.54.14a9.16,9.16,0,0,1-.46.8,15.09,15.09,0,0,0-1.27,3.88c.89-1.26,1.58-2.65,2.54-3.88,1.36-1.75,3-3.21,4.45-4.92.28-.33.71-.21.48.24-.6,1.2-1.25,2.36-1.91,3.53,1.56-1.39,3-2.9,4.62-4.24,1.78-1.49,3.63-2.86,5.38-4.38a55.25,55.25,0,0,0,5.13-5.68,20.49,20.49,0,0,0,3.64-6,.56.56,0,0,1,.23-.23,42.67,42.67,0,0,0,2-8.35c.6-4.14,1.23-8.27,1.61-12.44a36.58,36.58,0,0,1,1.19-5.76,47.86,47.86,0,0,1,1.69-5.78c1.42-3.63,3.5-6.79,5.32-10.2l-.48-.76a41.61,41.61,0,0,1-6.12-17c.06,1.07.17,2.13.28,3.2,0,.23-.47.82-.62.47a23.89,23.89,0,0,1-1.25-6.75,40.52,40.52,0,0,1,.09-6.24c-.57,1.53-.24,3.72-.37,5.15,0,.25-.6.78-.68.33a30.78,30.78,0,0,1-.77-4.77,34.6,34.6,0,0,1,.18-4.32,96,96,0,0,1,1.67-9.51c0-.18.44-.42.38-.13-.56,2.92-1.09,5.88-1.38,8.84a28.69,28.69,0,0,0-.17,5.32c.05.45.12.89.2,1.32a5.49,5.49,0,0,1,1.13-3.47c.15-.15.52-.32.49,0a40.93,40.93,0,0,0-.3,4.15,34.27,34.27,0,0,0,.22,3.51c.08.68.16,1.41.26,2.15v-.06c0-1.2.45-2.43.5-3.65,0-.25.52-.57.51-.18A30.71,30.71,0,0,0,280.06,394a51,51,0,0,0,5.23,9.95c4.67,6.56,11.84,10.42,19,13.75,3.63,1.7,7.36,3.19,11.07,4.71,3.54,1.46,7.45,2.65,10.7,4.71,1.72,1.09,3.34,2.34,5,3.5a22,22,0,0,1,2,1.56c-.66-1.13-1.35-2.25-2.05-3.36l.5.22,1,.42a36.84,36.84,0,0,1,2.13,3.48c.35.66.67,1.32,1,2a9,9,0,0,1,1.53,2.71,18.55,18.55,0,0,1,.59,2.42c.31.82.6,1.66.89,2.49,1.88,5.43,3.37,11.33,2.88,17.11a8.49,8.49,0,0,1-.69,1.61c0-.25,0-.49.05-.73-.91,2-2.63,3.3-4.87,4.38-2.45,1.19-5.46,2.71-5.61,5.85-.12,2.47.86,4.18,3.08,4.48a3.3,3.3,0,0,1-.7-1.65,4,4,0,0,1,0-1.2,3.12,3.12,0,0,1,.28-1.95c1.18-2.08,3.49-3.35,5.5-4.49.27-.15.2.22,0,.33a19.42,19.42,0,0,0-4.35,3.38c.09,0,.14.09.05.21a5.57,5.57,0,0,0-.48.85h.1a5.06,5.06,0,0,0-.4,1.17,2.19,2.19,0,0,0,0,.51,8.41,8.41,0,0,0,.54,2,6.08,6.08,0,0,0,4.22,2.29,6.52,6.52,0,0,0,3.25-.19,6.65,6.65,0,0,0,.65-.34c-1.45-1.16-1.65-4.06-1.12-5.56.79-2.24,3.39-3.43,5.25-4.56.29-.18.21.24,0,.36-1.5,1.09-3.61,2.11-4.48,3.83s-.24,3.69.9,5.15l.37,0a2.19,2.19,0,0,0,.5.38,3.13,3.13,0,0,0,1.93.61,5.3,5.3,0,0,0,2.2-.28l.28-.07a25.71,25.71,0,0,0,4.31-2.85,5.55,5.55,0,0,0,1.7-3.64A5.7,5.7,0,0,0,354.21,467.57Zm-159.7-8.11c-.06.25-.39.17-.41-.06-.43-3.73-1.27-7.67-3.65-10.67a16.54,16.54,0,0,0,1,3.57A11.81,11.81,0,0,1,192,456a44.32,44.32,0,0,1-1.47,9.21c-.05.25-.4.17-.41-.05a26.46,26.46,0,0,0-.58-4,25.5,25.5,0,0,1-1.14,7,61.54,61.54,0,0,1-4.8,11.2c-.12.23-.42.06-.39-.17.79-5.27-1.06-10.5-1.47-15.73A23.66,23.66,0,0,1,183.62,452a51.82,51.82,0,0,0-3.37,4.94.22.22,0,0,1-.4-.11,14,14,0,0,1,3-7.73,18.46,18.46,0,0,0-4.17,5.16.21.21,0,0,1-.38-.16,26.17,26.17,0,0,1,4.05-9,16.06,16.06,0,0,1,2-4.09,4.5,4.5,0,0,1,2.27-2,4,4,0,0,1,3.46,1.22C195.46,445,196.12,452.87,194.51,459.46Z" transform="translate(-6.56 -60.55)"/><path class="cls-14" d="M354.21,467.57a9.27,9.27,0,0,0-.78-3.28.34.34,0,0,1,.25-.06l.1,0a7.83,7.83,0,0,1-.5-.65,8.74,8.74,0,0,1-.87-2.15,10.32,10.32,0,0,1-.35-1.74.19.19,0,0,1-.19-.18,131.24,131.24,0,0,1-2.12-22.29c-.09-3.65-.38-7.32-.29-11a19.89,19.89,0,0,1,.61-5.1c.19-.67.55-1.24.11-1.9s-.81-.86-1.19-1.33c-.19-.23.1-.66.38-.67a3,3,0,0,1,.52,0,2.75,2.75,0,0,0-1-.2c-.22,0-.19-.21-.1-.37a.68.68,0,0,1,.27-.7l.08-.06a12.07,12.07,0,0,1-4.39-2.8,16,16,0,0,1-3.35-4.86,96.8,96.8,0,0,1-3.7-11.81c-1.22-4.52-2.46-9.14-3.28-13.75-.57-3.18-.95-6.39-1.45-9.58-.75-2.7-1.43-5.42-2.36-8.06A56.28,56.28,0,0,0,326,354.87a114.14,114.14,0,0,0-6.66-9.85A96.27,96.27,0,0,1,325,357.58a78.72,78.72,0,0,1,3.36,13.53.21.21,0,0,1-.41.11,11.06,11.06,0,0,0-4.9-6.22,24.67,24.67,0,0,1,5.53,13.78c0,.22-.29.28-.4.11a36.88,36.88,0,0,0-3-4.81,55,55,0,0,1,4.29,16.05,44.83,44.83,0,0,1,1-8.23.21.21,0,0,1,.41.06,114.62,114.62,0,0,0,2.76,17.37v-7.22a.21.21,0,0,1,.42,0c.26,10.41,5.36,19.52,8.67,29.14a.21.21,0,0,1-.31.24c-1.23-.78-2.38-1.68-3.59-2.49a40.23,40.23,0,0,1,5.17,9.23c.08.22-.22.33-.36.21A39.6,39.6,0,0,0,340,425.7c3.85,4.57,4.52,10.62,4.62,16.51.09,4.88-.14,10.13,1.38,14.81a18.94,18.94,0,0,0,2.08,3.28,16.54,16.54,0,0,1,2.5,3.5.21.21,0,0,1-.29.29c-1.19-.52-2.31-1.16-3.47-1.74,1.7,1.23,3.5,2.6,2.8,4.92-.81,2.66-3.53,4.16-5.93,5.16-.11.05-.23-.05-.26-.15-.52-1.74.43-3.53,1.63-4.91-.33.22-.66.44-1,.67-.6.54-1.19,1.14-1.79,1.71a4,4,0,0,0-.32.52c-.91,1.8-.24,3.69.9,5.15l.37,0a2.19,2.19,0,0,0,.5.38,3.13,3.13,0,0,0,1.93.61,5.3,5.3,0,0,0,2.2-.28l.28-.07a25.71,25.71,0,0,0,4.31-2.85,5.55,5.55,0,0,0,1.7-3.64A5.7,5.7,0,0,0,354.21,467.57Z" transform="translate(-6.56 -60.55)"/><path class="cls-15" d="M277.28,385.93c.06,1.07.17,2.13.28,3.2,0,.23-.47.82-.62.47a23.89,23.89,0,0,1-1.25-6.75,40.52,40.52,0,0,1,.09-6.24c-.57,1.53-.24,3.72-.37,5.15,0,.25-.6.78-.68.33a30.78,30.78,0,0,1-.77-4.77q0-.45,0-.9c-2,4.49-2.91,9.53-3.76,14.34a.22.22,0,0,1-.41,0c-.62-3.25.09-6.5.35-9.74-3.3,5.78-4.78,12.21-5.73,18.77a.21.21,0,0,1-.38,0,25.28,25.28,0,0,1-1.77-8.34,56.47,56.47,0,0,0-.23,14.29c0,.23-.29.27-.4.11q-1.44-2-2.75-4.14c1.61,4.57,2.88,9.44,1.59,14.11a.22.22,0,0,1-.41,0c-.35-1-.71-2.07-1.11-3.08a35.8,35.8,0,0,1,.25,7.53.21.21,0,0,1-.41.06,55.6,55.6,0,0,0-3.35-9.2c1.62,5.88,3.2,11.78,1.64,17.8a.21.21,0,0,1-.41,0c-.38-1.68-.87-3.34-1.35-5a44.3,44.3,0,0,1-.13,10c-.48,3.7-1.4,8.13-4.55,10.53-.14.11-.31,0-.32-.18-.19-2.47-.35-4.94-.64-7.39a39.26,39.26,0,0,1-1.63,6.6c-.07.22-.43.19-.41-.06a32,32,0,0,0-.12-7.58,32.58,32.58,0,0,1-2.14,8.91c-1.4,3.46-3.32,6.69-3.38,10.52a.22.22,0,0,1-.42.06,23.83,23.83,0,0,1-.73-8.15,30.46,30.46,0,0,0-1.22,5.51,29.1,29.1,0,0,0-.12,5.9c.19,2,.49,4,.51,6,0,.17-.24.3-.36.15a13.55,13.55,0,0,1-2.3-4.25c0,3.46.17,6.95-1,10.22a.22.22,0,0,1-.42-.05,30.41,30.41,0,0,0-.59-4.88,26.36,26.36,0,0,1-1.17,6.31,27.36,27.36,0,0,1-3.11,6.75c-1.11,1.72-2.58,3.64-4.73,4a.21.21,0,0,1-.26-.26c.49-2.36,2-4.41,2.39-6.77a19.74,19.74,0,0,0,0-6.37,9.65,9.65,0,0,1-2.37,5.45.21.21,0,0,1-.35-.21c1.08-4.47,1.19-9.71-.69-14a11.21,11.21,0,0,1-.74,4.27c-.08.2-.45.2-.42-.06.49-4.05-2.18-7.7-4.67-10.62-1.24-1.45-2.55-2.83-3.82-4.25s-2.53-3-3.86-4.52c-2.89-3.16-6.23-6.24-10.19-8-3.35-1.49-7.65-2.46-11-.48a32.43,32.43,0,0,1,4.37,1.08,16.27,16.27,0,0,1,4,2.48,17,17,0,0,1,5.67,7.47c.09.24-.25.34-.38.16a11,11,0,0,0-4.36-3.18,30.62,30.62,0,0,1,4.46,9.37.21.21,0,0,1-.39.16c-1.29-2.26-3.21-4.92-5.71-6a20.19,20.19,0,0,1,3.23,5.5,16.81,16.81,0,0,1,.66,5.23c0,3-.11,7.32-2.5,9.56-.16.16-.38,0-.35-.21.17-1.18.29-2.37.4-3.56-1.24,4.07-2.85,8.15-6,11.1a.21.21,0,0,1-.36-.15c.13-2.84.71-5.71.43-8.54a14.13,14.13,0,0,1-3.46,8c-.15.17-.39,0-.35-.21a27.68,27.68,0,0,0-.09-10.42,29.15,29.15,0,0,1-.72,8.06,27.83,27.83,0,0,1-2,5.67,8.61,8.61,0,0,1-3.11,3.84.21.21,0,0,1-.31-.24,24.45,24.45,0,0,0,1-4.84c-.52,2.32-1.52,4.68-3.63,5.65a.21.21,0,0,1-.31-.24c1.06-5.25-.11-10.52-.39-15.78a15.47,15.47,0,0,0-.6,3.85.21.21,0,0,1-.42.05c-1.18-4.5-2.59-10.53-.57-15.08a29.66,29.66,0,0,0-2.29,3.43c-.1.17-.41.11-.39-.11a30.32,30.32,0,0,1,2-9,25.15,25.15,0,0,1,4.31-6.79,12.76,12.76,0,0,0-5.54,4.9c-.11.2-.47.07-.38-.16a31.19,31.19,0,0,1,7.71-10.92c-9.11,4.51-12,15.67-12.71,25.19a7.29,7.29,0,0,1,1.67-2.37.21.21,0,0,1,.35.2,15.19,15.19,0,0,0,1.1,8c1,2.39,2.16,4.67,3.13,7.05a14.59,14.59,0,0,1,1.44,6.7,10.44,10.44,0,0,1-2.62,5.86.21.21,0,0,1-.36-.15c0-1.59.18-3.18.07-4.77-2.07,4-4.29,8.1-8.69,9.91-.15.06-.3-.12-.26-.26.65-2.25,1.58-4.41,1.78-6.74a31.56,31.56,0,0,0-2.24,4.51.22.22,0,0,1-.39-.05,17.46,17.46,0,0,1-.11-4.39c-1.65,2.85-1.53,6.26-2,9.46,0,.23-.34.18-.4,0-.87-2.52-2.81-4.55-4.26-6.74a12.23,12.23,0,0,1-1.9-3.93c-.29,2.35-.33,4.74-.62,7.09a.22.22,0,0,1-.42.06,47.28,47.28,0,0,1-2.14-7.49,38.47,38.47,0,0,1-1.4,7.49c-.06.22-.43.19-.41-.06.32-5.89-2.18-11.51-1.94-17.37a19.17,19.17,0,0,0-.74,5.95.22.22,0,0,1-.42.05,18.19,18.19,0,0,1-.85-9.45,17.49,17.49,0,0,0-1.56,5.87c0,.27-.44.27-.42,0a105.33,105.33,0,0,1,1.42-11.07c-.49,1.07-1,2.15-1.39,3.26a39.26,39.26,0,0,0-2.07,7.26c-.15,3.81-.61,7.76.85,11.35a16.06,16.06,0,0,0,5.66,7c5.64,4,12.83,5.92,19.56,7.2a97.1,97.1,0,0,0,28.37,1.11,110.66,110.66,0,0,0,27.69-6.45c4.33-1.64,9.56-3.68,12.46-7.51,1.28-1.69,2.26-3.64,3.38-5.44A8.77,8.77,0,0,0,244,478.7a.22.22,0,0,1-.31-.06,4.75,4.75,0,0,1-.58-2.65c0,.13-.05.26-.08.39.06-.61.15-1.2.25-1.74a19.8,19.8,0,0,1,1-3.43,16.48,16.48,0,0,0-.32,2.49,13.58,13.58,0,0,0,0,3.43l0-.1c0-.27-.05-.55-.08-.84s.21-.47.41-.56a24.43,24.43,0,0,1,1.27-3.6,36.47,36.47,0,0,1,2.63-4.16,8.32,8.32,0,0,1,.52-.9c.24-.37.81-.39.54.14a9.16,9.16,0,0,1-.46.8,15.09,15.09,0,0,0-1.27,3.88c.89-1.26,1.58-2.65,2.54-3.88,1.36-1.75,3-3.21,4.45-4.92.28-.33.71-.21.48.24-.6,1.2-1.25,2.36-1.91,3.53,1.56-1.39,3-2.9,4.62-4.24,1.78-1.49,3.63-2.86,5.38-4.38a55.25,55.25,0,0,0,5.13-5.68,20.49,20.49,0,0,0,3.64-6,.56.56,0,0,1,.23-.23,42.67,42.67,0,0,0,2-8.35c.6-4.14,1.23-8.27,1.61-12.44a36.58,36.58,0,0,1,1.19-5.76,47.86,47.86,0,0,1,1.69-5.78c1.42-3.63,3.5-6.79,5.32-10.2l-.48-.76A41.61,41.61,0,0,1,277.28,385.93Z" transform="translate(-6.56 -60.55)"/><path class="cls-15" d="M225.37,480.92l.5-.42a16.8,16.8,0,0,0,1.49-1.45,14.51,14.51,0,0,0,1.1-3.21,19.74,19.74,0,0,0,0-6.37,10.56,10.56,0,0,1-1.17,3.77A29.62,29.62,0,0,1,225.37,480.92Z" transform="translate(-6.56 -60.55)"/><path class="cls-15" d="M283.29,402.72c-.51.68-1,1.37-1.51,2.07-3.28,4.61-6.11,9.55-7.36,15.12-1.38,6.22-2.34,12.42-5,18.29-2.42,5.41-6.39,9.86-10.11,14.39s-8.82,7.41-12,12.23c-.13.19-.46.08-.39-.16a24.52,24.52,0,0,0,1.36-9c-1.18,3.92-2.4,7.82-3.91,11.63-.08.2-.45.2-.42-.06a73.83,73.83,0,0,0,.45-8.67c-1.07,5.4-2.29,10.81-4.75,15.71a21.22,21.22,0,0,1-6.31,7.83,19.81,19.81,0,0,1-10.24,3.52l-.09,0h-.21a.21.21,0,0,1,0-.42c.39,0,1.25-2.29,1.44-2.7l.17-.38a14.09,14.09,0,0,1-4.1,2,.21.21,0,0,1-.2-.35c2.46-2.27,2.77-5.87,2.71-9a67.33,67.33,0,0,0-.87-9.92,46.06,46.06,0,0,0-3.58-11.63c-.44-.5-.9-1-1.35-1.5a39.81,39.81,0,0,1,1.08,11.9c-.51,7.77-3,18.39-11.11,21.58-.17.07-.29-.12-.26-.26a14.56,14.56,0,0,0-.6-6.77,56.41,56.41,0,0,1-2.59,9c-.1.25-.5.15-.41-.12,1.18-3.37.2-7.64-1.37-10.9a27.48,27.48,0,0,1-1.47,12.18,15.77,15.77,0,0,1-3.22,5.4,20.44,20.44,0,0,1-5.51,3.82,48.77,48.77,0,0,1-17.37,4.71,97.77,97.77,0,0,0,25,.53,110.66,110.66,0,0,0,27.69-6.45c4.33-1.64,9.56-3.68,12.46-7.51,1.28-1.69,2.26-3.64,3.38-5.44A8.77,8.77,0,0,0,244,478.7a.22.22,0,0,1-.31-.06,4.75,4.75,0,0,1-.58-2.65c0,.13-.05.26-.08.39.06-.61.15-1.2.25-1.74a19.8,19.8,0,0,1,1-3.43,16.48,16.48,0,0,0-.32,2.49,13.58,13.58,0,0,0,0,3.43l0-.1c0-.27-.05-.55-.08-.84s.21-.47.41-.56a24.43,24.43,0,0,1,1.27-3.6,36.47,36.47,0,0,1,2.63-4.16,8.32,8.32,0,0,1,.52-.9c.24-.37.81-.39.54.14a9.16,9.16,0,0,1-.46.8,15.09,15.09,0,0,0-1.27,3.88c.89-1.26,1.58-2.65,2.54-3.88,1.36-1.75,3-3.21,4.45-4.92.28-.33.71-.21.48.24-.6,1.2-1.25,2.36-1.91,3.53,1.56-1.39,3-2.9,4.62-4.24,1.78-1.49,3.63-2.86,5.38-4.38a55.25,55.25,0,0,0,5.13-5.68,20.49,20.49,0,0,0,3.64-6,.56.56,0,0,1,.23-.23,42.67,42.67,0,0,0,2-8.35c.6-4.14,1.23-8.27,1.61-12.44a36.58,36.58,0,0,1,1.19-5.76,47.86,47.86,0,0,1,1.69-5.78c1.42-3.63,3.5-6.79,5.32-10.2l-.48-.76Z" transform="translate(-6.56 -60.55)"/><path class="cls-10" d="M221.48,457.47c.44.76,1.46,2,1.56,2.88,0,.28.4,0,.43-.16.18-.71-.34-1.48-.66-2.08a20.2,20.2,0,0,0-2.26-3.39c-.82-1-1.69-2-2.59-2.88.11,0,.23-.19.17-.28-3.28-4.86-6.79-9.18-11.86-12.27a60.93,60.93,0,0,0-7.8-3.66,21,21,0,0,0-8.69-1.77c-5,.13-9,3.74-11.68,7.71a44.17,44.17,0,0,0-6.59,15.63c-.07.36.44.11.5-.11a48.86,48.86,0,0,1,5.91-14.1c3-4.82,7.39-8.71,13.41-8.13A25.62,25.62,0,0,1,199,437a63.31,63.31,0,0,1,7.52,3.61c4.54,2.71,7.8,6.67,11,10.79-.08-.07-.14-.15-.22-.22-1.06-1-1.86-2.3-3.21-3-.21-.1-.53.32-.34.42a9.37,9.37,0,0,1,2.73,2.63c.78,1,1.71,1.86,2.51,2.83A26.2,26.2,0,0,1,221.48,457.47Z" transform="translate(-6.56 -60.55)"/><path class="cls-10" d="M223.73,467.61c1.19-1.07.18-3.6-.17-4.8a17.41,17.41,0,0,0-4.29-6.86c-.17-.18-.55.27-.38.46a22.93,22.93,0,0,1,3.32,4.95,15.65,15.65,0,0,1,1.07,3.27,5.86,5.86,0,0,1,.27,2.4,17.79,17.79,0,0,0-3.34-5.68c-.17-.2-.59.3-.41.52a18.5,18.5,0,0,1,3.8,8.56c.51,2.82.6,6.17-1,8.62.11-.38.14-.8.24-1.18a9.42,9.42,0,0,0,.13-1.51,16.49,16.49,0,0,0,.16-1.85c0-.26-.42,0-.43.2,0,.86-.2,1.7-.31,2.55a9,9,0,0,1-.47,2.36c-.1.23.16.3.3.15a1.45,1.45,0,0,0,.31-.5c0,.12.23.11.37,0a5.07,5.07,0,0,0,1.49-3,20.14,20.14,0,0,0,0-5.26A16.08,16.08,0,0,0,223.73,467.61Z" transform="translate(-6.56 -60.55)"/><path class="cls-10" d="M173.73,458.9q.41-.63.78-1.26c.26-.42-.2-.54-.46-.23a6.31,6.31,0,0,0-.84,1.33c-.48.74-1,1.48-1.37,2.25a37,37,0,0,1,.89-3.74,41.27,41.27,0,0,1,2.78-6c.15-.33-.21-.34-.34-.09a41.18,41.18,0,0,0-3,6.12,45.5,45.5,0,0,0-1.54,6.92c-.08.51.63.08.68-.24a10.13,10.13,0,0,1,1.3-3.31c-.52,3.48,1.22,7.62,2.39,10.54.14.35.76-.25.64-.57C174.4,467.5,172.11,462.39,173.73,458.9Z" transform="translate(-6.56 -60.55)"/><g class="cls-16"><path class="cls-11" d="M283,367.35a.33.33,0,0,1,.05-.12,47.4,47.4,0,0,1,.33-8.81,29.21,29.21,0,0,1,4.23-10.53,13.78,13.78,0,0,0-2.25,2.44,25.35,25.35,0,0,0-3.08,7.76c-.75,3.71-1.27,8.21-.21,12A16.36,16.36,0,0,0,283,367.35Z" transform="translate(-6.56 -60.55)"/><path class="cls-11" d="M285.76,360.86a31.27,31.27,0,0,1,2.35-7.54,17.5,17.5,0,0,0-1.93,2.82,21.52,21.52,0,0,0-1.71,10.68,8.7,8.7,0,0,0,1.34,2.67.7.7,0,0,0,.2-.46C285.74,366.26,285.3,363.65,285.76,360.86Z" transform="translate(-6.56 -60.55)"/><path class="cls-11" d="M287.82,373c0-.6,0-1.21,0-1.81,0-.08,0-.17,0-.26a28.69,28.69,0,0,1,.66-8.9,18.74,18.74,0,0,0,.06-3.51,40.79,40.79,0,0,0-2,11.74c0,4.67.92,10.22,3.55,14.17h0A26.32,26.32,0,0,1,287.82,373Z" transform="translate(-6.56 -60.55)"/><path class="cls-11" d="M292.9,370.47a41.66,41.66,0,0,1-1.31-11.74c0-4.2.42-8.31-.15-12.47-.24,1.5-.42,3-.6,4.53,0,3.35-.3,6.72-.36,10.06a37,37,0,0,0,.25,5.77A22,22,0,0,0,292.9,370.47Z" transform="translate(-6.56 -60.55)"/><path class="cls-11" d="M293.91,359.1a24,24,0,0,0-.77-4.49c-.39,4-.33,8.8,1.67,12.37l.07.08C294.53,364.41,294.14,361.77,293.91,359.1Z" transform="translate(-6.56 -60.55)"/><path class="cls-11" d="M301.7,361c-.15-6.32-1.72-12.94-5.34-18.12-.11-.11-.21-.23-.31-.35a12.84,12.84,0,0,0-3.15-2.45,26.91,26.91,0,0,1,5.8,10.31c1.38,4.35,1.57,8.7,2.17,13.16C301.17,362.71,301.46,361.86,301.7,361Z" transform="translate(-6.56 -60.55)"/><path class="cls-11" d="M296.46,347.86a.18.18,0,0,0-.14-.09c0,.64,0,1.29.06,1.94a33.43,33.43,0,0,1,2.14,9.18c.32.89.67,1.78,1,2.66a.55.55,0,0,0,.16-.31A27.22,27.22,0,0,0,296.46,347.86Z" transform="translate(-6.56 -60.55)"/><path class="cls-11" d="M306.08,346.94a21.56,21.56,0,0,0-3.72-7.08c-2.76-3.47-6.88-6.23-11-8.28a10,10,0,0,0-2.87-.37,44.89,44.89,0,0,1,12.41,9.29c3.26,3.49,4.74,8.81,6.11,13.32a20.33,20.33,0,0,0,.25-3.31C306.91,349.3,306.45,348.12,306.08,346.94Z" transform="translate(-6.56 -60.55)"/><path class="cls-11" d="M298.58,340.25a.26.26,0,0,0-.23,0,7.47,7.47,0,0,0,.39,1.09c3,2.57,4.18,7.51,5.6,10.94.16.39.8-.24.73-.54C304.11,347.91,302.2,342.36,298.58,340.25Z" transform="translate(-6.56 -60.55)"/><path class="cls-11" d="M311,408.15a66.23,66.23,0,0,1-6.64-3.18,46.7,46.7,0,0,1-6.14-4.91,25.79,25.79,0,0,1-8.13-11.7,15,15,0,0,0,.89,4.94,25,25,0,0,0,5.29,7c3.77,3.62,8.84,8.06,14.26,8.71C310.84,409,311.39,408.35,311,408.15Z" transform="translate(-6.56 -60.55)"/><path class="cls-11" d="M315.23,408.69c-.86-.42-1.73-.82-2.56-1.24a34.84,34.84,0,0,1-6.55-4.64c-3.61-3-7.11-6.07-9.67-10-.62-.61-1.26-1.19-1.93-1.74,2.28,5,6,8.82,10.17,12.33a43.08,43.08,0,0,0,7.09,5.13c2.41,1.29,4.77,2.83,7.23,4a.27.27,0,0,0,.15,0A35.21,35.21,0,0,0,315.23,408.69Z" transform="translate(-6.56 -60.55)"/><path class="cls-11" d="M305.75,396.05a60.12,60.12,0,0,1-4.34-4.82,25.36,25.36,0,0,1-4.42-8.11,10.59,10.59,0,0,0,.59,4.14l.09.23c2.05,4.51,5.8,8.28,9.35,11.63a.24.24,0,0,0,.2.05A34.19,34.19,0,0,0,305.75,396.05Z" transform="translate(-6.56 -60.55)"/><path class="cls-11" d="M303.46,390.07c.18.26.39.59.62.94a11.57,11.57,0,0,0,2.76,2.16c.25-.19.43-.53.29-.75-.75-1.15-1.84-2.14-2.69-3.23a36.34,36.34,0,0,1-2.91-4.15,20.74,20.74,0,0,0,1.51,4.41C303.18,389.66,303.31,389.86,303.46,390.07Z" transform="translate(-6.56 -60.55)"/><path class="cls-11" d="M314,398c-1.41-1.84-2.71-3.75-4.22-5.51a56.41,56.41,0,0,1-5.55-7,9.13,9.13,0,0,0-1.27-.68.3.3,0,0,0,0,.23,32.4,32.4,0,0,0,5.43,8c2.11,2.47,3.62,5.49,6.41,7.3A7,7,0,0,0,314,398Z" transform="translate(-6.56 -60.55)"/><path class="cls-11" d="M309.79,386.12c1,1.41,2.1,2.78,3,4.25.45.72.87,1.49,1.37,2.2a.47.47,0,0,0,0-.3c-1.3-5.11-5.26-9.79-8.8-13.69A36.39,36.39,0,0,0,309.79,386.12Z" transform="translate(-6.56 -60.55)"/><path class="cls-11" d="M311.64,383.12c.36.63.71,1.26,1.06,1.89.58.89,1.24,1.74,1.91,2.58a.69.69,0,0,0,.26-.5,9.87,9.87,0,0,0-1.66-3.57c-.77-1.27-1.61-2.5-2.49-3.71A10,10,0,0,0,311.64,383.12Z" transform="translate(-6.56 -60.55)"/><path class="cls-11" d="M319.89,388a49.42,49.42,0,0,0-1.81-6.75,32.36,32.36,0,0,0-5.37-10.11,4.7,4.7,0,0,0-2-.76,42.09,42.09,0,0,1,5.68,11.45,68.12,68.12,0,0,1,1.89,7.17,52,52,0,0,0,1.18,5.13,13.46,13.46,0,0,0,1-3.34C320.25,389.83,320.05,388.9,319.89,388Z" transform="translate(-6.56 -60.55)"/><path class="cls-11" d="M320.7,393.9v-.13a12.06,12.06,0,0,1-.61,1.38A11.11,11.11,0,0,0,320.7,393.9Z" transform="translate(-6.56 -60.55)"/><path class="cls-11" d="M319.91,386a18.55,18.55,0,0,0,.06-4.71c0-.08,0-.14,0-.21a41.89,41.89,0,0,0-2.1-5.2,6,6,0,0,0-1.45-1.26.54.54,0,0,0-.08.45c.79,1.83,1.58,3.65,2.21,5.53.58,1.72.77,3.53,1.28,5.27A.19.19,0,0,0,319.91,386Z" transform="translate(-6.56 -60.55)"/><path class="cls-11" d="M315.72,368.18A43.6,43.6,0,0,1,310.18,355c-.41-.64-.86-1.27-1.28-1.91a37.41,37.41,0,0,0,3.77,12.42,17.05,17.05,0,0,1-3.94-6.48,11.34,11.34,0,0,0,.07,2.4,19.06,19.06,0,0,0,3.13,4.83,21.21,21.21,0,0,0,3.19,1.94,6.35,6.35,0,0,1,.6.34A.44.44,0,0,0,315.72,368.18Z" transform="translate(-6.56 -60.55)"/><path class="cls-11" d="M314.38,377.74a19.76,19.76,0,0,1-5.7-9.89,12.52,12.52,0,0,1-1-1.05,25.69,25.69,0,0,0,1.69,6,33.19,33.19,0,0,1-1.85-2.9,20.24,20.24,0,0,1-2.14-8.84,12.1,12.1,0,0,0-.56,3.11,19.6,19.6,0,0,0,6.82,13.2c.15.13.35.06.51-.09a11.31,11.31,0,0,0,1.48,1.38C314,379,314.75,378.07,314.38,377.74Z" transform="translate(-6.56 -60.55)"/><path class="cls-11" d="M309.21,378.06a26.91,26.91,0,0,1-2.74-3.28,14.93,14.93,0,0,1-2-5.16,12,12,0,0,0-.21,2.07c.66,2.77,1.79,5.78,4.38,7.08C309,378.94,309.46,378.36,309.21,378.06Z" transform="translate(-6.56 -60.55)"/><path class="cls-11" d="M197.76,410.26a16.36,16.36,0,0,0,1-4.26s0,0,0,0a47.28,47.28,0,0,1-6.63,10.82,35.65,35.65,0,0,1-10.21,7.81,7.9,7.9,0,0,0,1.46-.07,34.92,34.92,0,0,0,9-6.71,39.91,39.91,0,0,0,4.31-5.85C197,411.46,197.4,410.86,197.76,410.26Z" transform="translate(-6.56 -60.55)"/><path class="cls-11" d="M202.14,402.24h0a24.86,24.86,0,0,1-3.83,9.44c-.1.24-.21.48-.33.71a11.64,11.64,0,0,0,1.2-.77,18.27,18.27,0,0,0,3.41-7A7.84,7.84,0,0,0,202.14,402.24Z" transform="translate(-6.56 -60.55)"/><path class="cls-11" d="M213,385.52c-2.84,2-4.56,5.84-5.77,9-1.52,3.95-2.4,8.2-3.58,12.28a9.22,9.22,0,0,0,1.35-1.62c1-2.87,1.83-5.76,2.68-8.67a28.46,28.46,0,0,1,2.48-5.79c.93-1.68,2.27-3,3.24-4.65C213.63,385.69,213.43,385.24,213,385.52Z" transform="translate(-6.56 -60.55)"/><path class="cls-11" d="M209.71,394.8c.53-.8,1.12-1.55,1.7-2.33,1-2,2.14-3.93,3.32-5.85a12.9,12.9,0,0,0,.54-2.14A45.88,45.88,0,0,0,209.71,394.8Z" transform="translate(-6.56 -60.55)"/><path class="cls-11" d="M219.73,374.19a32.52,32.52,0,0,1-1.3,6.21,26,26,0,0,1-2.63,6.37,15.33,15.33,0,0,1-.56,1.47.51.51,0,0,0,.41-.21c1.66-2,2.54-4.61,3.4-7a31,31,0,0,0,1.84-9v0A14.75,14.75,0,0,0,219.73,374.19Z" transform="translate(-6.56 -60.55)"/><path class="cls-11" d="M221.33,371.47a20.27,20.27,0,0,1-.85,7.5c-.18.57.53.32.65-.05a22.74,22.74,0,0,0,1.08-4.89A9.94,9.94,0,0,0,221.33,371.47Z" transform="translate(-6.56 -60.55)"/><path class="cls-11" d="M225.75,380.07a10.15,10.15,0,0,0-.75-3.19,26.71,26.71,0,0,1-3.3,14.26c-.24.75-.5,1.49-.8,2.22a26.48,26.48,0,0,0,5-11.79C225.85,381.07,225.82,380.57,225.75,380.07Z" transform="translate(-6.56 -60.55)"/><path class="cls-11" d="M228.29,373.91c-.13.59-.24,1.19-.32,1.8s-.15,1.19-.22,1.81c-.06,2.53,0,5.76,1.43,7.91a.4.4,0,0,0,0-.23c-.65-4.72-1-11,1.4-15.44A11.48,11.48,0,0,0,228.29,373.91Z" transform="translate(-6.56 -60.55)"/><path class="cls-11" d="M229.18,395.75a11.64,11.64,0,0,0,1.2-.89c1-2.41,1.05-5.31,1.09-7.84.07-3.56-.17-7.11,0-10.66A15.31,15.31,0,0,0,231,374a69.69,69.69,0,0,0-.5,10.52C230.46,388.22,230.66,392.28,229.18,395.75Z" transform="translate(-6.56 -60.55)"/><path class="cls-11" d="M233.16,387.72a27.71,27.71,0,0,1-.61,3,8.57,8.57,0,0,0,1-.49,11.36,11.36,0,0,0,.36-2.33,21.69,21.69,0,0,0-.21-5c-.05-.42-.67.1-.64.39A24.32,24.32,0,0,1,233.16,387.72Z" transform="translate(-6.56 -60.55)"/><path class="cls-11" d="M236.41,385.26a12.36,12.36,0,0,0-.28-2.65c-.12-.54-.89.12-.82.5a12.72,12.72,0,0,1-.25,5,.35.35,0,0,0,0,.21A9.54,9.54,0,0,0,236.41,385.26Z" transform="translate(-6.56 -60.55)"/><path class="cls-11" d="M239.52,346.35c.23-.28.46-.57.7-.85a40.76,40.76,0,0,1,8.84-7.65c.69-.65,1.37-1.31,2-2l-.06,0c-4.11,2.41-8,4.94-11.12,8.54s-7,8.1-8.56,12.88a.88.88,0,0,0,0,.21A74.92,74.92,0,0,1,239.52,346.35Z" transform="translate(-6.56 -60.55)"/><path class="cls-11" d="M238.86,350.83a37.5,37.5,0,0,1,6.21-6.51c.37-.47.71-1,1-1.47l-.06,0c-4.09,2.85-8.27,6.87-10.51,11.43C236.66,353.17,237.75,352,238.86,350.83Z" transform="translate(-6.56 -60.55)"/><path class="cls-11" d="M237.82,355.32a31.94,31.94,0,0,0-2.86,4.22c-.27.5-.57,1-.85,1.61a10.24,10.24,0,0,0-.05,3.75,28.76,28.76,0,0,1,2.16-5.77,35.69,35.69,0,0,1,3.34-5A15.48,15.48,0,0,0,237.82,355.32Z" transform="translate(-6.56 -60.55)"/><path class="cls-11" d="M237,362.75a26.63,26.63,0,0,1,1.28-2.77c.31-.56-.34-.56-.6-.15a20.8,20.8,0,0,0-2.24,4.29C235.91,363.66,236.44,363.22,237,362.75Z" transform="translate(-6.56 -60.55)"/><path class="cls-11" d="M256.11,347.34l0,0a2.56,2.56,0,0,0,.11-.24c-4.85,3.65-9.32,7.33-12.37,12.7a28,28,0,0,0-2.95,7.69c-.08.33-.15.68-.22,1a28.91,28.91,0,0,0,.2,8.51c.9-5.86,1-11.66,4-17,2.6-4.62,6.34-8.15,10.39-11.44Z" transform="translate(-6.56 -60.55)"/><path class="cls-11" d="M242.19,380.52a16.76,16.76,0,0,0,.82-2.61,30.33,30.33,0,0,1,.75-6.32c.07-1.23.14-2.47.26-3.69a24.42,24.42,0,0,0-1.65,5.2c-.43,2.23-1.11,5.2-.2,7.39Z" transform="translate(-6.56 -60.55)"/><path class="cls-11" d="M263.18,351.61a28.73,28.73,0,0,0-8.39,7.13c-2.4,2.9-4.66,7-4.76,10.87,0,.73.85.19,1-.22a29.07,29.07,0,0,1,12.28-17.06C263.62,352.11,263.76,351.29,263.18,351.61Z" transform="translate(-6.56 -60.55)"/><path class="cls-11" d="M257.2,360.48c-3.69,4.12-7.65,9.78-7.86,15.52,0,.5.58.13.66-.15a42.52,42.52,0,0,1,7.61-15C258,360.39,257.55,360.09,257.2,360.48Z" transform="translate(-6.56 -60.55)"/><path class="cls-11" d="M263.49,363.77a46.42,46.42,0,0,0,2.92-6.12,40.82,40.82,0,0,0,2.65-7.93c0-.4,0-.8,0-1.2,0-.62,0-1.28,0-1.95A46.53,46.53,0,0,1,261.47,365,11,11,0,0,0,263.49,363.77Z" transform="translate(-6.56 -60.55)"/><path class="cls-11" d="M274,328.42a17.19,17.19,0,0,0-3.12-.4c-.7,0-1.4-.07-2.1-.08-1.47.3-2.93.73-4.21,1.05a33.39,33.39,0,0,0-9.06,3.75c-.33.37-.65.77-.95,1.17a33.62,33.62,0,0,1,9.14-3.78c1.73-.41,3.45-.83,5.2-1.13,1.43-.24,2.86-.07,4.29-.17Z" transform="translate(-6.56 -60.55)"/><path class="cls-11" d="M263.58,332.24c.41-.15.83-.3,1.26-.43a12.84,12.84,0,0,1,2.82-.53c1.29-.37,2.57-.77,3.83-1.15-3.63-.32-7.15.9-10.42,2.4A23.82,23.82,0,0,0,263.58,332.24Z" transform="translate(-6.56 -60.55)"/><path class="cls-11" d="M273.13,332.81a.34.34,0,0,0-.19-.2c-1.38-.59-3.28-.06-4.74.27A12,12,0,0,0,273.13,332.81Z" transform="translate(-6.56 -60.55)"/><path class="cls-11" d="M284,338.67a12.26,12.26,0,0,0-2.65-3.22,9,9,0,0,0-5-1.68c4.19,1.48,6.25,5.09,7.81,9.18A10.13,10.13,0,0,0,284,338.67Z" transform="translate(-6.56 -60.55)"/><path class="cls-11" d="M280,337.05c-.24-.24-.76.39-.53.65a8.75,8.75,0,0,1,2.41,6.2c-.07.76.92.11,1-.36C283.22,341.13,281.63,338.68,280,337.05Z" transform="translate(-6.56 -60.55)"/><path class="cls-11" d="M224.94,412.67l.27-.56a35.64,35.64,0,0,0,1.62-7,33.07,33.07,0,0,0,.17-5.45c0-.16,0-.33,0-.5-.12-.63-.24-1.27-.38-1.89s-.31-1.47-.53-2.18v0c.09,1.2-.09,2.45-.12,3.64,0,1.77,0,3.53-.11,5.3a31.15,31.15,0,0,1-3,11.16c0,.06,0,.12-.07.17A11.44,11.44,0,0,0,224.94,412.67Z" transform="translate(-6.56 -60.55)"/><path class="cls-11" d="M223.28,400.38c-.08.79-.2,1.57-.35,2.34a19.76,19.76,0,0,1-2.34,12.76c-.07.66-.16,1.31-.25,2A19.2,19.2,0,0,0,223.28,400.38Z" transform="translate(-6.56 -60.55)"/><path class="cls-11" d="M228.79,405.2a.41.41,0,0,0,0,.18,13.72,13.72,0,0,1-.74,4.88,10.63,10.63,0,0,1-1.12,2.69,4.87,4.87,0,0,0,1.39-1.22c.08-.2.15-.4.23-.59a13.32,13.32,0,0,0,.88-3.11A10.8,10.8,0,0,0,228.79,405.2Z" transform="translate(-6.56 -60.55)"/><path class="cls-11" d="M223.4,421.94a42.42,42.42,0,0,0-1.21,4.85,17.92,17.92,0,0,0-.28,2.74,20,20,0,0,0,1.51,5.9.55.55,0,0,0,.09-.38,26.42,26.42,0,0,1,1.62-15.47A19.84,19.84,0,0,0,223.4,421.94Z" transform="translate(-6.56 -60.55)"/><path class="cls-11" d="M224.8,434.46a21.41,21.41,0,0,0,.16-8.25,18.37,18.37,0,0,0-.41,8C224.59,434.4,224.68,434.47,224.8,434.46Z" transform="translate(-6.56 -60.55)"/><path class="cls-11" d="M220.24,443.42a19.57,19.57,0,0,1-3.54-9.05c-.47-3.52-.81-8.59,1.3-11.74a14.9,14.9,0,0,0-2.7,6.74,38.68,38.68,0,0,0,0,3.89c.19,3.85,1,8.43,4.13,11C219.8,444.52,220.48,443.75,220.24,443.42Z" transform="translate(-6.56 -60.55)"/><path class="cls-11" d="M221.85,442.76c-.09-.3-.17-.6-.25-.91a41.75,41.75,0,0,1-1-5.68,22.78,22.78,0,0,0-.95-2.74,41.25,41.25,0,0,0,3.18,16.63C222.62,447.62,222.25,445.16,221.85,442.76Z" transform="translate(-6.56 -60.55)"/><path class="cls-11" d="M208.67,428.74a33.25,33.25,0,0,1-.18-6.69c.14-1.68.56-3.31.82-5-1.3,3.57-2.39,8.3-1.77,12.46-1.3-4.66-2.2-8.88-1-13.73a28.33,28.33,0,0,1,3.06-7.47,46.54,46.54,0,0,1,3.15-4.24,19.61,19.61,0,0,0-5.08,5.86,32.47,32.47,0,0,0-2.43,6.68c-1.11,4.33-1.09,10.36,1.6,14.11.24.32.71-.06.83-.4a10.49,10.49,0,0,0,2.45,5,.23.23,0,0,0,.24.08A23.65,23.65,0,0,1,208.67,428.74Z" transform="translate(-6.56 -60.55)"/><path class="cls-11" d="M212.46,434.76c.09-2.19-.23-4.4-.26-6.6h0a6.81,6.81,0,0,0-.84,2.27,28.16,28.16,0,0,0,.24,4.32l.21.61C212,435.41,212.45,435,212.46,434.76Z" transform="translate(-6.56 -60.55)"/><path class="cls-11" d="M197.86,420.61c.54-3.77,2.59-6.62,4.83-9.5-3.88,3.24-7.92,10.19-4.66,14.82A15,15,0,0,1,197.86,420.61Z" transform="translate(-6.56 -60.55)"/><path class="cls-11" d="M235,447.54a45,45,0,0,1-1.2-8.25c-.24-1.16-.51-2.31-.83-3.45-.25,5.29-.12,11.46,2.41,16.19a.24.24,0,0,0,.08.09C235.3,450.59,235.15,449.06,235,447.54Z" transform="translate(-6.56 -60.55)"/><path class="cls-11" d="M233.46,452.28c.26-.13.52-.58.42-.79a23.94,23.94,0,0,1-2.27-9.56A14.48,14.48,0,0,0,233.46,452.28Z" transform="translate(-6.56 -60.55)"/><path class="cls-11" d="M231.34,461c.15,1.67.59,5.12-.33,7a9.91,9.91,0,0,0,1.64-2.7c0-.34,0-.64.08-.87a25.06,25.06,0,0,0-1.06-8.75,13.41,13.41,0,0,0-1.67-2.94.28.28,0,0,0,0,.18A60.92,60.92,0,0,1,231.34,461Z" transform="translate(-6.56 -60.55)"/><path class="cls-11" d="M237.63,416.73a12.31,12.31,0,0,0-1.52,2.78,42.49,42.49,0,0,0-.72,6.83,29.81,29.81,0,0,0,0,3.77,13.09,13.09,0,0,0,2.42,5.8C236.66,429.64,235.62,423,237.63,416.73Z" transform="translate(-6.56 -60.55)"/><path class="cls-11" d="M239,422c-.09-.63-.2-1.24-.34-1.85a.57.57,0,0,0-.13.24c-.4,2.85-.94,6.17-.31,9.07a10.24,10.24,0,0,0,.76-2.35A41.49,41.49,0,0,1,239,422Z" transform="translate(-6.56 -60.55)"/><path class="cls-11" d="M243.2,412.4c-.08-.85-.15-1.71-.17-2.58a24.58,24.58,0,0,1,1-6.92c0-.72,0-1.44,0-2.17a35,35,0,0,0-1.82,7.9,33.52,33.52,0,0,0,.72,9.31A41.22,41.22,0,0,1,243.2,412.4Z" transform="translate(-6.56 -60.55)"/><path class="cls-11" d="M244.45,426.37A28.38,28.38,0,0,1,241.7,412c0-.46-.58-.08-.6.21a30.38,30.38,0,0,0,.69,10A34.18,34.18,0,0,0,244.45,426.37Z" transform="translate(-6.56 -60.55)"/><path class="cls-11" d="M248.23,405.81c.16-.73.36-1.46.47-2.2.3-2.06.55-4.12.9-6.17a31.43,31.43,0,0,1,2.65-10.6c.13-.62.24-1.25.33-1.88-3.76,6.2-4.5,13.64-4.36,20.78C248.22,405.77,248.23,405.79,248.23,405.81Z" transform="translate(-6.56 -60.55)"/><path class="cls-11" d="M247.56,394.41c0-1.1,0-2.21-.06-3.32-.86,3.49-1.77,7.2-1.17,10.79.1.59.86-.15.85-.52A43.14,43.14,0,0,1,247.56,394.41Z" transform="translate(-6.56 -60.55)"/><path class="cls-11" d="M267.54,368.59c-1.66,5.35-4.21,10.91-8.29,14.74a16.66,16.66,0,0,0,2.8-1.49,27.71,27.71,0,0,0,2.49-4,43.32,43.32,0,0,0,3.19-7.62C267.68,369.7,267.62,369.14,267.54,368.59Z" transform="translate(-6.56 -60.55)"/><path class="cls-11" d="M255.83,389.61c1-2.63,2.15-5.19,3.3-7.77.26-.57-.54-.45-.72,0a65.92,65.92,0,0,0-3.62,8.59Z" transform="translate(-6.56 -60.55)"/></g></g><path class="cls-17" d="M143.44,468.48c-4-4.39-8.4-8.39-12.05-13.05a77.59,77.59,0,0,1-8.6-14.32A127.52,127.52,0,0,1,111.44,406c-.08-.5-.82.1-.76.47a125.13,125.13,0,0,0,10.18,35c5,10.66,11.88,21.27,21.51,28.33C143,470.23,143.91,469,143.44,468.48Z" transform="translate(-6.56 -60.55)"/><path class="cls-17" d="M126.38,459.72a94.87,94.87,0,0,1-23.71-29.09c-.18-.33-.72.23-.59.51,5.31,11.5,13.12,22.16,23.44,29.64C126,461.12,126.82,460.08,126.38,459.72Z" transform="translate(-6.56 -60.55)"/><path class="cls-17" d="M175,406.44c.26-.75-.7-.4-.88.08a113.44,113.44,0,0,0-7,30.33c-.82,10.34-.66,21.49,2.37,31.48.24.78,1.59-.49,1.48-1.1a128.88,128.88,0,0,1-2.31-30.93A109.52,109.52,0,0,1,175,406.44Z" transform="translate(-6.56 -60.55)"/><path class="cls-17" d="M164.09,426.94c-.63,4.74-1.1,9.5-1.28,14.28,0,.89,1.11.16,1.14-.41.26-4.76.63-9.51,1.2-14.25C165.25,425.76,164.16,426.43,164.09,426.94Z" transform="translate(-6.56 -60.55)"/><path class="cls-8" d="M102.28,424.38a9.65,9.65,0,0,0-.24-2.54c-.63-2.66-4.09-7.93-7.36-6s-.12,7.79,1,9.9a7.49,7.49,0,0,0,.75,1.08c.63,1,1.43,1.95,2.25,2.07a2.54,2.54,0,0,0,2.56-.93,3.5,3.5,0,0,0,.64-.86A4.12,4.12,0,0,0,102.28,424.38Z" transform="translate(-6.56 -60.55)"/><path class="cls-8" d="M119.07,399.26c-.36-2.95-3.23-7.58-5.59-3.75a1.13,1.13,0,0,0-.31.47c-.59,1.94-.12,3.68.11,5.63a8,8,0,0,0,2,4.76c1.07,1.12,2.35.34,3.17-.6C119.85,404.16,119.3,401.16,119.07,399.26Z" transform="translate(-6.56 -60.55)"/><path class="cls-8" d="M121,422.16a2.19,2.19,0,0,0-1,1.94,6,6,0,0,0,.35,1.31.34.34,0,0,0,.21.21c.1.46.35.86.89.86s1.18-.86,1.33-1.43a5.45,5.45,0,0,0,.17-1.33C123,422.65,122.18,421.38,121,422.16Z" transform="translate(-6.56 -60.55)"/><path class="cls-8" d="M151.41,467.91a3.16,3.16,0,0,0-3.2,2.7,7,7,0,0,0,.57,3.58,5.79,5.79,0,0,0,.26,1.19c1,3,6.35,8.3,8.35,3.12C158.82,474.79,155.57,468.31,151.41,467.91Zm2.92,8.74a2.07,2.07,0,0,0,.25-.15,1.51,1.51,0,0,0,.26-.12v.05C154.9,477,154.66,476.92,154.33,476.65Z" transform="translate(-6.56 -60.55)"/><path class="cls-17" d="M279.32,489.75c4-4.39,8.4-8.39,12.06-13.05A77.29,77.29,0,0,0,300,462.37a127.37,127.37,0,0,0,11.36-35.06c.07-.5.81.1.76.47a125.58,125.58,0,0,1-10.19,35c-5,10.66-11.87,21.27-21.51,28.33C279.81,491.5,278.86,490.27,279.32,489.75Z" transform="translate(-6.56 -60.55)"/><path class="cls-17" d="M296.39,481a95.08,95.08,0,0,0,23.71-29.1c.17-.32.72.24.59.52-5.32,11.5-13.12,22.16-23.44,29.64C296.79,482.39,296,481.35,296.39,481Z" transform="translate(-6.56 -60.55)"/><path class="cls-17" d="M247.78,427.71c-.26-.75.7-.4.88.08a113.72,113.72,0,0,1,7,30.33c.82,10.34.67,21.49-2.37,31.48-.23.78-1.58-.5-1.47-1.1a128.88,128.88,0,0,0,2.31-30.93A109.89,109.89,0,0,0,247.78,427.71Z" transform="translate(-6.56 -60.55)"/><path class="cls-17" d="M258.67,448.2c.63,4.75,1.1,9.51,1.29,14.29,0,.88-1.12.16-1.15-.41-.26-4.76-.62-9.52-1.19-14.25C257.52,447,258.6,447.69,258.67,448.2Z" transform="translate(-6.56 -60.55)"/><path class="cls-8" d="M320.48,445.65a10.73,10.73,0,0,1,.24-2.55c.64-2.65,4.09-7.92,7.36-6s.13,7.78-1,9.89a7.12,7.12,0,0,1-.76,1.09c-.63,1-1.43,1.94-2.24,2.07a2.54,2.54,0,0,1-2.56-.93,4,4,0,0,1-.65-.86A4.13,4.13,0,0,1,320.48,445.65Z" transform="translate(-6.56 -60.55)"/><path class="cls-8" d="M303.69,420.53c.36-2.95,3.23-7.58,5.6-3.75a1.17,1.17,0,0,1,.31.47c.59,1.94.11,3.68-.11,5.63a8,8,0,0,1-2,4.76c-1.07,1.12-2.34.34-3.16-.61C302.91,425.43,303.46,422.43,303.69,420.53Z" transform="translate(-6.56 -60.55)"/><path class="cls-8" d="M301.75,443.43a2.21,2.21,0,0,1,1,1.93,5.3,5.3,0,0,1-.36,1.31.28.28,0,0,1-.2.21c-.1.47-.36.87-.89.86-.69,0-1.18-.85-1.33-1.42a5.45,5.45,0,0,1-.17-1.33C299.78,443.92,300.58,442.65,301.75,443.43Z" transform="translate(-6.56 -60.55)"/><path class="cls-8" d="M265.37,499.77c2,5.18,7.34-.15,8.36-3.12a5.21,5.21,0,0,0,.25-1.19,7.06,7.06,0,0,0,.58-3.58,3.17,3.17,0,0,0-3.21-2.7C267.2,489.58,263.94,496.06,265.37,499.77Zm2.55-2.07v-.05l.26.12.25.15C268.11,498.19,267.87,498.31,267.92,497.7Z" transform="translate(-6.56 -60.55)"/></g></g></svg>