<svg id="Calque_1" data-name="Calque 1" xmlns="http://www.w3.org/2000/svg" viewBox="0 0 39.93 38.57"><defs><style>.cls-1{fill:#e84141;}.cls-2{fill:#fff;}</style></defs><g id="Tracé_10" data-name="Tracé 10"><path class="cls-1" d="M33.84,38.23H6.09A5.76,5.76,0,0,1,.34,32.48V6.09A5.76,5.76,0,0,1,6.09.34H33.84a5.76,5.76,0,0,1,5.75,5.75V32.48A5.76,5.76,0,0,1,33.84,38.23Z"/><path class="cls-1" d="M6.09.68A5.42,5.42,0,0,0,.68,6.09V32.48A5.42,5.42,0,0,0,6.09,37.9H33.84a5.42,5.42,0,0,0,5.41-5.42V6.09A5.42,5.42,0,0,0,33.84.68H6.09m0-.68H33.84a6.09,6.09,0,0,1,6.09,6.09V32.48a6.09,6.09,0,0,1-6.09,6.09H6.09A6.09,6.09,0,0,1,0,32.48V6.09A6.09,6.09,0,0,1,6.09,0Z"/></g><rect class="cls-2" x="17.56" y="6.65" width="4.47" height="26.49" rx="2.24" transform="translate(20.4 -8.16) rotate(46.1)"/><rect class="cls-2" x="18.2" y="6.03" width="4.47" height="26.49" rx="2.24" transform="translate(-7.65 19.55) rotate(-43.9)"/></svg>