<svg id="Calque_1" data-name="Calque 1" xmlns="http://www.w3.org/2000/svg" viewBox="0 0 1920.15 2680.02"><defs><style>.cls-1{fill:#f2f2f1;}</style></defs><path class="cls-1" d="M1216.09,1642.63c3.69,3.39,6.83,8.14,5.45,13.35-3.31,12.56-19.32,14.83-28.75,23.18-8.06,7.13-12,22.7-23.57,25.42-6.84,1.62-13.14-1.21-17.38-5.1-5.81-5.33-6.35-13.71-3.78-23,1-3.74-1.67-11.43-2.29-18.48s1.13-13.65,5.22-17.27c5.66-5,12.36-6.17,18.94-5.36,7.71.95,15.2,4.33,20,3.54C1200.1,1637.27,1209.32,1636.42,1216.09,1642.63Z" transform="translate(0 -315.14)"/><ellipse class="cls-1" cx="1116.86" cy="1671.98" rx="13.69" ry="20.66" transform="translate(-765.38 2063.99) rotate(-76.85)"/><ellipse class="cls-1" cx="1117.57" cy="1635.15" rx="14.52" ry="21.9" transform="translate(-860.55 1418.57) rotate(-58.5)"/><ellipse class="cls-1" cx="1186.11" cy="1610.71" rx="14.91" ry="18.97" transform="translate(-541.15 286.69) rotate(-23.34)"/><ellipse class="cls-1" cx="1145.24" cy="1610.66" rx="14.86" ry="21.41" transform="translate(-810.44 1010.68) rotate(-46.3)"/><path class="cls-1" d="M951.14,1751.78c5.24,1,11.51.79,15.85-3,10.47-9.08,4.25-22.18,7.39-33.58,2.69-9.74,15.74-20.89,12.31-30.92-2-5.92-8.1-9.12-14.12-10.23-8.24-1.5-16.67,2.51-24.3,9.29-3.09,2.74-12,4.77-19.17,8s-12.68,8-14,13c-1.89,6.85.51,12.44,4.76,16.91,5,5.22,12.21,9,14,13C937.52,1742.72,941.54,1750,951.14,1751.78Z" transform="translate(0 -315.14)"/><ellipse class="cls-1" cx="927.43" cy="1662.55" rx="14.11" ry="20.05" transform="translate(-975.7 1395.48) rotate(-62.29)"/><ellipse class="cls-1" cx="891.99" cy="1682.48" rx="13.97" ry="22.77" transform="translate(-941.17 1882.99) rotate(-77.78)"/><ellipse class="cls-1" cx="904.33" cy="1746.3" rx="21.22" ry="13.33" transform="translate(-342.91 -89.29) rotate(-11.98)"/><ellipse class="cls-1" cx="882.76" cy="1715.94" rx="13.77" ry="23.1" transform="translate(-874.36 2198.43) rotate(-87.19)"/><path class="cls-1" d="M979.16,1525.12c2.75,4.06,4.63,9.36,2,14.23-6.24,11.74-22.25,10.85-33.37,17.23-9.51,5.45-17.1,20-28.92,20.45-7,.25-12.39-3.78-15.54-8.45-4.32-6.39-2.82-14.77,1.91-23.38,1.9-3.48,1.14-11.6,2.25-18.68s4.4-13.24,9.22-16c6.68-3.83,13.43-3.66,19.59-1.57,7.21,2.44,13.63,7.25,18.45,7.41C965,1516.7,974.13,1517.66,979.16,1525.12Z" transform="translate(0 -315.14)"/><ellipse class="cls-1" cx="876.24" cy="1534.6" rx="14" ry="20.2" transform="translate(-881.93 1397.3) rotate(-66.05)"/><ellipse class="cls-1" cx="885.84" cy="1498.4" rx="14.89" ry="21.37" transform="translate(-801 753.73) rotate(-45.12)"/><ellipse class="cls-1" cx="957.93" cy="1487.75" rx="14.93" ry="18.94" transform="translate(-115.88 -233.79) rotate(-4.59)"/><ellipse class="cls-1" cx="918.48" cy="1479.69" rx="15.16" ry="20.99" transform="translate(-631.52 370.46) rotate(-31.04)"/><path class="cls-1" d="M696.91,1580.79c4.82,2,10.92,3,16,.18,12.3-6.91,9.47-21,15.27-31.68,4.95-9.08,20.25-17.52,19.35-28.08-.52-6.24-5.61-10.59-11.15-12.86-7.59-3.1-16.71-.8-25.72,4.39-3.64,2.1-12.73,2.36-20.45,4.16s-14.18,5.43-16.7,10c-3.48,6.38-2.51,12.37.51,17.61,3.54,6.13,9.61,11.29,10.34,15.56C685.94,1569.18,688.06,1577.17,696.91,1580.79Z" transform="translate(0 -315.14)"/><ellipse class="cls-1" cx="695.59" cy="1488.13" rx="14.47" ry="19.55" transform="translate(-887.22 733.57) rotate(-49.43)"/><ellipse class="cls-1" cx="656.55" cy="1500.83" rx="14.28" ry="22.28" transform="translate(-981.56 1197.58) rotate(-66.79)"/><ellipse class="cls-1" cx="653.03" cy="1566.2" rx="21.13" ry="13.38" transform="translate(-70.93 -283.64) rotate(-2.62)"/><ellipse class="cls-1" cx="639.54" cy="1532.02" rx="13.99" ry="22.73" transform="translate(-997.52 1492.78) rotate(-76.91)"/><path class="cls-1" d="M775,1372.24c1,4.73.72,10.38-3.52,14.24-10.22,9.31-24.67,3.52-37.37,6.2-10.84,2.28-23.39,13.89-34.46,10.65-6.55-1.91-10-7.42-11.16-12.86-1.56-7.44,3-15,10.64-21.77,3.08-2.74,5.46-10.74,9.17-17.17s9.08-11.3,14.59-12.46a21.65,21.65,0,0,1,18.69,4.52c5.73,4.56,9.84,11.13,14.23,12.77C765.15,1359.84,773.2,1363.57,775,1372.24Z" transform="translate(0 -315.14)"/><ellipse class="cls-1" cx="676.35" cy="1349.63" rx="14.56" ry="19.43" transform="translate(-761.39 574.22) rotate(-45.63)"/><ellipse class="cls-1" cx="698.95" cy="1317.97" rx="15.27" ry="20.83" transform="translate(-404.09 -1.6) rotate(-19.74)"/><ellipse class="cls-1" cx="769.59" cy="1329.98" rx="19.45" ry="14.54" transform="translate(-751.88 1229.94) rotate(-67.99)"/><ellipse class="cls-1" cx="736.21" cy="1310.12" rx="15.27" ry="20.84" transform="translate(-83.98 -264.27) rotate(-3.74)"/><path class="cls-1" d="M493.18,1338.59c3.71,3.37,8.93,6.27,14.73,5.1,14-2.81,16.73-17.21,26.12-25.59,8-7.16,25.36-10.51,28.54-20.89,1.88-6.13-1.17-11.85-5.43-15.73-5.83-5.3-15.12-5.91-25.42-3.72-4.16.89-12.65-1.66-20.47-2.32s-15.15.83-19.23,4.46a18.34,18.34,0,0,0-6.21,17c.94,6.95,4.59,13.76,3.65,18.06C487.46,1324.11,486.38,1332.41,493.18,1338.59Z" transform="translate(0 -315.14)"/><ellipse class="cls-1" cx="527.13" cy="1249.58" rx="14.9" ry="18.98" transform="translate(-458.42 2.77) rotate(-23.74)"/><ellipse class="cls-1" cx="486.25" cy="1249.71" rx="14.85" ry="21.42" transform="translate(-755.89 429.3) rotate(-46.6)"/><ellipse class="cls-1" cx="458.19" cy="1311.13" rx="13.69" ry="20.66" transform="translate(-922.23 1149.18) rotate(-77.07)"/><ellipse class="cls-1" cx="458.7" cy="1274.3" rx="14.52" ry="21.91" transform="translate(-868.77 690.68) rotate(-58.77)"/><path class="cls-1" d="M667.45,1166c-.58,4.86-2.64,10.27-7.88,12.92-12.63,6.38-24.41-3-37.25-3.69-11-.6-26.54,7.41-36,1.39-5.57-3.56-7.07-9.82-6.41-15.39.92-7.64,7.64-13.78,17-18.38,3.79-1.87,8.6-9,14.16-14.29s12.19-8.62,17.76-8.32a19.89,19.89,0,0,1,16.19,9.25c3.95,5.92,5.72,13.37,9.34,16.1C662.12,1151.43,668.52,1157.14,667.45,1166Z" transform="translate(0 -315.14)"/><ellipse class="cls-1" cx="581.57" cy="1118.44" rx="14.9" ry="18.98" transform="matrix(0.92, -0.4, 0.4, 0.92, -398.56, 10.53)"/><ellipse class="cls-1" cx="613.04" cy="1093.57" rx="20.92" ry="15.2" transform="translate(-514.04 1327.41) rotate(-86.7)"/><ellipse class="cls-1" cx="675.87" cy="1123.59" rx="20.1" ry="14.07" transform="translate(-621.63 619.37) rotate(-50.68)"/><ellipse class="cls-1" cx="650.72" cy="1095.62" rx="21.27" ry="14.95" transform="translate(-591.24 1065.71) rotate(-72.23)"/><path class="cls-1" d="M412.22,1060.12c2.42,4.24,6.42,8.41,12.27,8.78,14.1.9,21.3-12.36,32.85-18.06,9.86-4.88,27.3-3.63,33.63-12.88,3.74-5.47,2.7-11.82-.09-16.69-3.8-6.66-12.38-9.67-22.8-10.21-4.21-.23-11.41-4.91-18.57-7.58s-14.57-3.13-19.58-.66a20,20,0,0,0-11.31,14.89c-1.34,7-.08,14.56-2.34,18.49C411.45,1044.57,407.78,1052.35,412.22,1060.12Z" transform="translate(0 -315.14)"/><ellipse class="cls-1" cx="472.77" cy="982.49" rx="19" ry="14.89" transform="translate(-518.85 1120.66) rotate(-88.87)"/><ellipse class="cls-1" cx="434.15" cy="971.99" rx="15.22" ry="20.9" transform="translate(-380.8 -28.07) rotate(-25.89)"/><ellipse class="cls-1" cx="387.98" cy="1024.36" rx="14.1" ry="20.05" transform="translate(-699.63 579.08) rotate(-62.43)"/><ellipse class="cls-1" cx="400.27" cy="988.72" rx="14.99" ry="21.22" transform="translate(-546.67 182.57) rotate(-40.55)"/><path class="cls-1" d="M613.8,867.59c.67,4.79,0,10.43-4.45,14.07-10.79,8.76-24.78,2.19-37.6,4.19-11,1.7-24.21,12.65-35,8.82-6.39-2.27-9.47-8-10.25-13.48-1.05-7.54,4-14.84,12-21.23,3.25-2.57,6.15-10.45,10.27-16.68s9.78-10.83,15.34-11.7a21.33,21.33,0,0,1,18.31,5.54c5.4,4.86,9,11.66,13.31,13.54C604.8,854.65,612.57,858.81,613.8,867.59Z" transform="translate(0 -315.14)"/><ellipse class="cls-1" cx="517.09" cy="839.65" rx="14.65" ry="19.31" transform="translate(-426.73 238.87) rotate(-41.54)"/><ellipse class="cls-1" cx="541.68" cy="809.18" rx="15.29" ry="20.8" transform="translate(-191.05 -147.29) rotate(-15.01)"/><ellipse class="cls-1" cx="611.2" cy="825" rx="19.58" ry="14.45" transform="translate(-397.79 699.91) rotate(-64.13)"/><ellipse class="cls-1" cx="579.28" cy="803.32" rx="20.89" ry="15.23" transform="translate(-233.07 1054.72) rotate(-89.1)"/><path class="cls-1" d="M335.49,818.75c3.47,3.57,8.48,6.76,14.33,5.9,14.1-2.07,17.79-16.33,27.69-24.21,8.46-6.74,25.94-9.17,29.79-19.38,2.29-6-.37-11.93-4.35-16-5.46-5.62-14.67-6.73-25.06-5.09-4.2.66-12.49-2.35-20.22-3.42s-15.14,0-19.44,3.43a18.66,18.66,0,0,0-7.31,16.68c.48,7,3.66,14,2.44,18.27C330.76,804,329.13,812.2,335.49,818.75Z" transform="translate(0 -315.14)"/><ellipse class="cls-1" cx="375.18" cy="731.47" rx="14.93" ry="18.94" transform="translate(-214.75 -156.2) rotate(-18.7)"/><ellipse class="cls-1" cx="334.48" cy="729.4" rx="14.94" ry="21.29" transform="translate(-405.87 104.78) rotate(-42.68)"/><ellipse class="cls-1" cx="302.48" cy="789.38" rx="13.76" ry="20.55" transform="translate(-539.38 550.98) rotate(-74.24)"/><ellipse class="cls-1" cx="305.43" cy="752.54" rx="14.62" ry="21.76" transform="translate(-487.21 260.42) rotate(-55.32)"/><path class="cls-1" d="M483.28,610c1.73,4.53,2.35,10.12-1.27,14.45-8.72,10.45-24,6.61-36.26,10.87C435.3,639,424.62,652,413.08,650.21c-6.83-1-11.16-6-13.15-11.22-2.72-7.12.64-15.12,7.17-22.76,2.64-3.09,3.76-11.26,6.44-18.05s7.27-12.28,12.57-14.12a22.38,22.38,0,0,1,19.35,2.06c6.43,3.74,11.56,9.68,16.19,10.73C471.49,599.08,480.1,601.71,483.28,610Z" transform="translate(0 -315.14)"/><ellipse class="cls-1" cx="381.38" cy="600.39" rx="14.33" ry="19.74" transform="translate(-328.95 248.46) rotate(-54.61)"/><ellipse class="cls-1" cx="398.91" cy="566.38" rx="15.16" ry="20.98" transform="translate(-233.18 -32.27) rotate(-30.69)"/><ellipse class="cls-1" cx="471.2" cy="569.16" rx="19.18" ry="14.74" transform="translate(-183.4 596.75) rotate(-78.01)"/><ellipse class="cls-1" cx="434.8" cy="553.9" rx="15.29" ry="20.8" transform="translate(-128.97 -183.16) rotate(-15.06)"/><path class="cls-1" d="M197.08,613c4.22,2.84,9.89,5,15.49,3.13,13.49-4.55,14-19.06,22-28.5,6.87-8.06,23.62-13.58,25.15-24.18.91-6.27-3-11.51-7.88-14.78-6.65-4.46-16-3.87-25.92-.4-4,1.4-12.88,0-20.77.33s-15,2.76-18.46,6.85c-4.83,5.67-5.25,11.76-3.51,17.5,2,6.72,6.74,12.94,6.48,17.29C189.09,599.46,189.33,607.75,197.08,613Z" transform="translate(0 -315.14)"/><ellipse class="cls-1" cx="216.88" cy="521.11" rx="14.77" ry="19.15" transform="translate(-260.12 -95.79) rotate(-35.09)"/><ellipse class="cls-1" cx="176.16" cy="526.46" rx="14.61" ry="21.77" transform="translate(-357.12 57.01) rotate(-55.36)"/><ellipse class="cls-1" cx="157.87" cy="590.44" rx="13.53" ry="20.9" transform="translate(-446.51 366.19) rotate(-83.58)"/><ellipse class="cls-1" cx="152.58" cy="554.16" rx="14.28" ry="22.27" transform="translate(-416.51 158.32) rotate(-66.54)"/><path class="cls-1" d="M293.81,382c2.61,4.15,4.31,9.5,1.57,14.31-6.62,11.58-22.57,10.25-33.89,16.34-9.67,5.19-17.74,19.59-29.54,19.69-7,.06-12.25-4.12-15.24-8.88-4.09-6.52-2.31-14.86,2.69-23.36,2-3.43,1.53-11.58,2.87-18.63s4.83-13.13,9.74-15.77c6.79-3.66,13.52-3.3,19.6-1.05,7.12,2.64,13.37,7.63,18.17,7.92C280,373.21,289,374.42,293.81,382Z" transform="translate(0 -315.14)"/><ellipse class="cls-1" cx="190.77" cy="388.73" rx="14.04" ry="20.14" transform="translate(-242.22 78.25) rotate(-64.48)"/><ellipse class="cls-1" cx="201.55" cy="352.76" rx="14.93" ry="21.3" transform="translate(-186.73 -81.98) rotate(-43.14)"/><ellipse class="cls-1" cx="273.87" cy="344.05" rx="14.91" ry="18.96" transform="translate(-12.14 -305.12) rotate(-2.05)"/><ellipse class="cls-1" cx="234.76" cy="334.91" rx="15.19" ry="20.94" transform="translate(-132.3 -160.64) rotate(-28.8)"/><path class="cls-1" d="M0,417.38c1.54,5.53,4.29,10.11,10.22,12.73,4.75,2.11,10.8,3.34,16,.61,12.51-6.57,10.15-20.8,16.29-31.29,5.25-9,20.8-17,20.26-27.58-.32-6.27-5.25-10.76-10.71-13.18-7.47-3.31-16.64-1.25-25.81,3.7-3.71,2-12.79,2-20.56,3.61a41.69,41.69,0,0,0-5.55,1.53Z" transform="translate(0 -315.14)"/><path class="cls-1" d="M.11,345.87c7,8.1,18,10.83,24.58,6.11s6.22-15.11-.78-23.2S6.57,318.28,0,323Z" transform="translate(0 -315.14)"/><path class="cls-1" d="M1903.43,2989.88c5,1.29,11.91.66,16.57-2.88v-65c0-8.2-4-7.79-12.26-1.41-3.32,2.57-12.29,4.08-19.69,6.92s-13.3,7.32-15.16,12.24c-2.57,6.8-.79,12.59,2.92,17.37,4.35,5.59,11.07,9.87,12.38,14C1891,2979.88,1894.17,2987.51,1903.43,2989.88Z" transform="translate(0 -315.14)"/><ellipse class="cls-1" cx="1889.41" cy="2898.28" rx="14.47" ry="19.55" transform="translate(-1570.25 2608.3) rotate(-57.32)"/><ellipse class="cls-1" cx="1852.49" cy="2916.21" rx="14.28" ry="22.28" transform="translate(-1449.66 3616.84) rotate(-74.67)"/><ellipse class="cls-1" cx="1857.97" cy="2981.45" rx="21.13" ry="13.38" transform="translate(-512.45 73.59) rotate(-10.51)"/><ellipse class="cls-1" cx="1839.92" cy="2949.44" rx="13.99" ry="22.73" transform="translate(-1264.34 4198.94) rotate(-84.79)"/><path class="cls-1" d="M1920,2798c-10.43,3.75-26.77,17.41-38.18,15.73-6.75-1-10.94-6-12.81-11.22-2.57-7.15.92-15.25,7.55-23,2.68-3.14,3.94-11.39,6.73-18.26s7.45-12.45,12.74-14.35a21.65,21.65,0,0,1,19.14,1.92c6.3,3.72,4.83,3.2,4.83,3.2Z" transform="translate(0 -315.14)"/><ellipse class="cls-1" cx="1851.36" cy="2763.73" rx="14.56" ry="19.43" transform="translate(-1471.55 2293.8) rotate(-53.52)"/><ellipse class="cls-1" cx="1869.41" cy="2729.27" rx="15.27" ry="20.83" transform="translate(-1052.42 862.82) rotate(-27.63)"/><path class="cls-1" d="M1890.45,2720.24c2.64,11.2,11.39,18.55,19.55,16.42a14.13,14.13,0,0,0,10-11.52c0-.14,0-12.14,0-12.62-1-11.52-11.39-18.54-19.55-16.41S1887.81,2709.05,1890.45,2720.24Z" transform="translate(0 -315.14)"/><path class="cls-1" d="M1668.4,2777.92c4.14,2.83,9.72,5,15.3,3,13.46-4.7,14.21-19.34,22.36-28.93,7-8.19,23.67-13.9,25.4-24.6,1-6.34-2.78-11.59-7.53-14.84-6.5-4.46-15.79-3.78-25.69-.2-4,1.45-12.76.08-20.59.51s-14.9,2.9-18.44,7.06a18.3,18.3,0,0,0-3.82,17.68c1.88,6.76,6.43,13,6.09,17.39C1660.75,2764.36,1660.82,2772.73,1668.4,2777.92Z" transform="translate(0 -315.14)"/><ellipse class="cls-1" cx="1689.82" cy="2685.1" rx="14.9" ry="18.98" transform="matrix(0.85, -0.52, 0.52, 0.85, -1156.93, 969.51)"/><ellipse class="cls-1" cx="1649.34" cy="2690.83" rx="14.85" ry="21.42" transform="translate(-1499.04 2155.26) rotate(-54.49)"/><ellipse class="cls-1" cx="1629.98" cy="2755.52" rx="13.69" ry="20.66" transform="translate(-1258.22 3821.7) rotate(-84.95)"/><ellipse class="cls-1" cx="1625.43" cy="2718.97" rx="14.52" ry="21.91" transform="translate(-1515.06 2818.7) rotate(-66.65)"/><path class="cls-1" d="M1817.36,2583.1c.09,4.88-1.21,10.53-6,13.87-11.64,8.06-24.59.39-37.41,1.45-11,.92-25.27,11-35.42,6.32-6-2.76-8.35-8.76-8.46-14.37-.14-7.69,5.68-14.69,14.34-20.54,3.5-2.37,7.28-10.11,12.06-16.1s10.9-10.21,16.46-10.67a19.84,19.84,0,0,1,17.3,6.94c4.73,5.32,7.51,12.45,11.46,14.66C1810.07,2569.36,1817.2,2574.14,1817.36,2583.1Z" transform="translate(0 -315.14)"/><ellipse class="cls-1" cx="1725.76" cy="2547.73" rx="14.9" ry="18.98" transform="translate(-1075.62 959.23) rotate(-31.44)"/><ellipse class="cls-1" cx="1753.53" cy="2518.77" rx="15.2" ry="20.92" transform="translate(-195.52 -167.08) rotate(-4.58)"/><ellipse class="cls-1" cx="1819.87" cy="2539.89" rx="20.1" ry="14.07" transform="translate(-1296.36 2452.91) rotate(-58.57)"/><ellipse class="cls-1" cx="1791.13" cy="2515.64" rx="21.27" ry="14.95" transform="translate(-994.73 3532.99) rotate(-80.11)"/><path class="cls-1" d="M1550,2513.19c3,3.86,7.52,7.45,13.36,7,14.09-1,19.41-15.17,30.06-22.4,9.1-6.18,26.55-7.34,31.55-17.36,3-5.93,1-12.08-2.38-16.52-4.68-6.09-13.58-7.88-24-7-4.2.36-12-3.29-19.44-5s-14.87-1.11-19.49,2a20,20,0,0,0-9.16,16.3c-.36,7.12,1.92,14.43.22,18.64C1547.12,2497.89,1544.55,2506.1,1550,2513.19Z" transform="translate(0 -315.14)"/><ellipse class="cls-1" cx="1599.34" cy="2427.98" rx="14.89" ry="19" transform="translate(-274.49 -110.17) rotate(-6.76)"/><ellipse class="cls-1" cx="1559.64" cy="2422.88" rx="15.22" ry="20.9" transform="translate(-1083.65 960.64) rotate(-33.77)"/><ellipse class="cls-1" cx="1521.1" cy="2481.09" rx="14.1" ry="20.05" transform="translate(-1327.35 2762.49) rotate(-70.32)"/><ellipse class="cls-1" cx="1528.38" cy="2444.1" rx="14.99" ry="21.22" transform="translate(-1314.35 1651.01) rotate(-48.44)"/><path class="cls-1" d="M1723.28,2294.83c1.32,4.65,1.46,10.33-2.48,14.54-9.48,10.16-24.25,5.58-36.67,9.31-10.61,3.19-22.25,15.85-33.48,13.54-6.64-1.37-10.48-6.6-12-11.95-2.08-7.32,1.91-15.25,9-22.67,2.87-3,4.66-11.2,7.88-17.94s8.21-12.07,13.6-13.69a21.32,21.32,0,0,1,18.89,3c6,4.08,10.57,10.32,15,11.59C1712.59,2283.24,1720.85,2286.3,1723.28,2294.83Z" transform="translate(0 -315.14)"/><ellipse class="cls-1" cx="1623.65" cy="2280.41" rx="14.65" ry="19.31" transform="translate(-1164.52 1715) rotate(-49.42)"/><ellipse class="cls-1" cx="1643.83" cy="2246.85" rx="15.29" ry="20.8" transform="translate(-744.53 501.23) rotate(-22.89)"/><ellipse class="cls-1" cx="1714.86" cy="2252.99" rx="19.58" ry="14.45" transform="translate(-957.48 2873.44) rotate(-72.02)"/><ellipse class="cls-1" cx="1680.27" cy="2235.9" rx="15.23" ry="20.89" transform="translate(-259.29 -94.35) rotate(-6.98)"/><path class="cls-1" d="M1440.9,2284.62c3.92,3.07,9.32,5.53,15,3.88,13.69-4,15.39-18.61,24.11-27.78,7.46-7.84,24.43-12.64,26.85-23.28,1.43-6.3-2-11.77-6.51-15.29-6.18-4.82-15.45-4.66-25.52-1.61-4.07,1.24-12.69-.61-20.5-.61s-15,2.09-18.78,6.06a18.65,18.65,0,0,0-5,17.53c1.44,6.88,5.55,13.38,4.92,17.77C1434.18,2270.61,1433.7,2279,1440.9,2284.62Z" transform="translate(0 -315.14)"/><ellipse class="cls-1" cx="1468.24" cy="2192.73" rx="14.93" ry="18.94" transform="translate(-826.13 573.88) rotate(-26.59)"/><ellipse class="cls-1" cx="1427.64" cy="2196.26" rx="14.94" ry="21.29" transform="translate(-1175.47 1588.64) rotate(-50.56)"/><ellipse class="cls-1" cx="1404.17" cy="2260.06" rx="13.76" ry="20.55" transform="translate(-1026.93 3026.28) rotate(-82.13)"/><ellipse class="cls-1" cx="1402.04" cy="2223.16" rx="14.62" ry="21.76" transform="translate(-1214.44 2157.44) rotate(-63.21)"/><path class="cls-1" d="M1558.65,2057.58c2.34,4.25,3.72,9.7.73,14.49-7.2,11.55-22.89,9.85-34.42,15.74-9.86,5-18.65,19.39-30.33,19.23-6.9-.1-11.87-4.44-14.56-9.32-3.67-6.67-1.44-15.06,4-23.53,2.2-3.42,2.18-11.66,3.91-18.76s5.51-13.16,10.51-15.71a22.35,22.35,0,0,1,19.44-.61c6.89,2.82,12.78,8,17.51,8.4C1545.48,2048.37,1554.37,2049.8,1558.65,2057.58Z" transform="translate(0 -315.14)"/><ellipse class="cls-1" cx="1456.4" cy="2062.04" rx="14.33" ry="19.74" transform="translate(-1045.17 2086.38) rotate(-62.5)"/><ellipse class="cls-1" cx="1469.1" cy="2025.94" rx="15.16" ry="20.98" transform="translate(-942.62 1042.75) rotate(-38.57)"/><ellipse class="cls-1" cx="1541.09" cy="2018.77" rx="19.18" ry="14.74" transform="translate(-582.73 3096.4) rotate(-85.9)"/><ellipse class="cls-1" cx="1502.94" cy="2008.65" rx="15.29" ry="20.8" transform="translate(-664.1 429.6) rotate(-22.94)"/><path class="cls-1" d="M1275.56,2099.76c4.58,2.24,10.49,3.62,15.78,1,12.74-6.36,11.21-20.79,17.88-31.24,5.69-8.93,21.52-16.69,21.59-27.41,0-6.34-4.58-11-9.84-13.55-7.2-3.52-16.38-1.65-25.73,3.15-3.77,1.94-12.76,1.75-20.52,3.18s-14.46,4.78-17.35,9.32c-4,6.27-3.59,12.37-1.08,17.82,2.94,6.37,8.45,11.89,8.79,16.23C1265.81,2087.49,1267.17,2095.67,1275.56,2099.76Z" transform="translate(0 -315.14)"/><ellipse class="cls-1" cx="1282.58" cy="2006.07" rx="14.77" ry="19.15" transform="translate(-1023.26 1097.27) rotate(-42.97)"/><ellipse class="cls-1" cx="1242.98" cy="2016.95" rx="14.61" ry="21.77" transform="translate(-1117.6 1903.75) rotate(-63.25)"/><ellipse class="cls-1" cx="1233.64" cy="2082.83" rx="20.9" ry="13.53" transform="translate(-52.91 -282.88) rotate(-1.47)"/><ellipse class="cls-1" cx="1223.42" cy="2047.63" rx="14.28" ry="22.27" transform="translate(-1077.56 2360.97) rotate(-74.42)"/><path class="cls-1" d="M1339.71,1857.74c3.14,3.75,5.57,8.82,3.51,14-5,12.38-21,13.25-31.33,20.83-8.86,6.47-14.88,21.84-26.56,23.56-6.91,1-12.69-2.4-16.31-6.71-5-5.89-4.33-14.4-.54-23.5,1.53-3.68-.07-11.68.29-18.85s3-13.67,7.48-17c6.23-4.55,12.94-5.13,19.27-3.73,7.41,1.64,14.29,5.72,19.08,5.36C1324.8,1850.91,1333.94,1850.87,1339.71,1857.74Z" transform="translate(0 -315.14)"/><ellipse class="cls-1" cx="1238.56" cy="1878.52" rx="14.04" ry="20.14" transform="translate(-926.94 2174.51) rotate(-72.36)"/><ellipse class="cls-1" cx="1244.31" cy="1841.41" rx="14.93" ry="21.3" transform="translate(-969.88 1335.33) rotate(-51.02)"/><ellipse class="cls-1" cx="1314.75" cy="1822.86" rx="14.91" ry="18.96" transform="translate(-294.8 -60.95) rotate(-9.94)"/><ellipse class="cls-1" cx="1274.75" cy="1819.17" rx="15.19" ry="20.94" transform="matrix(0.8, -0.6, 0.6, 0.8, -834.28, 806.62)"/><path class="cls-1" d="M1065.41,1944.28c5,1.43,11.15,1.82,15.92-1.59,11.49-8.23,7.2-22,11.84-33.23,4-9.6,18.27-19.68,16.28-30.1-1.17-6.17-6.67-9.94-12.41-11.59-7.86-2.25-16.66,1-25.06,7.21-3.4,2.49-12.39,3.75-19.87,6.39s-13.5,7-15.52,11.84c-2.78,6.75-1.2,12.6,2.35,17.49,4.15,5.72,10.71,10.19,11.88,14.36C1053.31,1933.92,1056.25,1941.65,1065.41,1944.28Z" transform="translate(0 -315.14)"/><ellipse class="cls-1" cx="1054.43" cy="1852.12" rx="14.51" ry="19.49" transform="matrix(0.57, -0.82, 0.82, 0.57, -1068.81, 1352.47)"/><ellipse class="cls-1" cx="1017.01" cy="1869.07" rx="14.32" ry="22.21" transform="translate(-1067.09 1983.2) rotate(-73.09)"/><ellipse class="cls-1" cx="1020.34" cy="1934.58" rx="21.11" ry="13.4" transform="matrix(0.99, -0.16, 0.16, 0.99, -296.47, -126.9)"/><ellipse class="cls-1" cx="1003.39" cy="1902.02" rx="14.03" ry="22.67" transform="translate(-1002.24 2362.7) rotate(-83.33)"/></svg>