<svg id="Calque_1" data-name="Calque 1" xmlns="http://www.w3.org/2000/svg" viewBox="0 0 39.93 38.57"><defs><style>.cls-1{fill:#5db463;}.cls-2{fill:#fff;}</style></defs><g id="Tracé_10" data-name="Tracé 10"><path class="cls-1" d="M33.84,38.23H6.09A5.76,5.76,0,0,1,.34,32.48V6.09A5.76,5.76,0,0,1,6.09.34H33.84a5.76,5.76,0,0,1,5.75,5.75V32.48A5.76,5.76,0,0,1,33.84,38.23Z"/><path class="cls-1" d="M6.09.68A5.42,5.42,0,0,0,.68,6.09V32.48A5.42,5.42,0,0,0,6.09,37.9H33.84a5.42,5.42,0,0,0,5.41-5.42V6.09A5.42,5.42,0,0,0,33.84.68H6.09m0-.68H33.84a6.09,6.09,0,0,1,6.09,6.09V32.48a6.09,6.09,0,0,1-6.09,6.09H6.09A6.09,6.09,0,0,1,0,32.48V6.09A6.09,6.09,0,0,1,6.09,0Z"/></g><path id="_Color" data-name=" Color" class="cls-2" d="M20,28.76a17.34,17.34,0,0,1-9.31-2.66,15.27,15.27,0,0,1-5.91-6.81,15.25,15.25,0,0,1,5.91-6.82,17.62,17.62,0,0,1,18.62,0,15.21,15.21,0,0,1,5.92,6.82,15.24,15.24,0,0,1-5.92,6.81A17.2,17.2,0,0,1,20,28.76ZM20,13C16.15,13,13,15.8,13,19.29S16.15,25.6,20,25.6s6.92-2.83,6.92-6.31S23.78,13,20,13Zm0,10.11a4,4,0,0,1-4.15-3.79A4,4,0,0,1,20,15.5a4,4,0,0,1,4.16,3.79A4,4,0,0,1,20,23.08Z"/></svg>