<svg id="Calque_1" data-name="Calque 1" xmlns="http://www.w3.org/2000/svg" viewBox="0 0 74.94 74.94"><defs><style>.cls-1,.cls-2{fill:#e28ebc;}.cls-1{fill-rule:evenodd;}</style></defs><path class="cls-1" d="M38.07,42.15V60.48a.49.49,0,0,0,.48.48h6.81a.49.49,0,0,0,.48-.48V41.85h4.93a.48.48,0,0,0,.48-.44l.47-5.61a.47.47,0,0,0-.47-.52H45.84v-4a1.69,1.69,0,0,1,1.69-1.69h3.8a.48.48,0,0,0,.48-.48V23.52a.49.49,0,0,0-.48-.48H44.9a6.83,6.83,0,0,0-6.83,6.83v5.41h-3.4a.49.49,0,0,0-.48.48v5.61a.48.48,0,0,0,.48.48h3.4Z" transform="translate(-5.53 -4.53)"/><path class="cls-2" d="M43,4.53A37.47,37.47,0,1,0,80.47,42,37.51,37.51,0,0,0,43,4.53ZM75.66,42A32.66,32.66,0,1,1,43,9.34,32.7,32.7,0,0,1,75.66,42Z" transform="translate(-5.53 -4.53)"/></svg>