<svg id="Calque_1" data-name="Calque 1" xmlns="http://www.w3.org/2000/svg" viewBox="0 0 74.94 74.94"><defs><style>.cls-1{fill:#e28ebc;}</style></defs><path class="cls-1" d="M56.14,31.67a2.25,2.25,0,1,1-2.24-2.25A2.24,2.24,0,0,1,56.14,31.67ZM53.35,41.73a9.43,9.43,0,1,1-9.43-9.43A9.44,9.44,0,0,1,53.35,41.73Zm-3.39,0a6,6,0,1,0-6,6A6,6,0,0,0,50,41.73Zm13-7.58a11.5,11.5,0,0,0-11.5-11.5H35.81a11.5,11.5,0,0,0-11.5,11.5v15.7a11.5,11.5,0,0,0,11.5,11.5H51.5A11.5,11.5,0,0,0,63,49.85ZM59.23,49.67a7.9,7.9,0,0,1-7.9,7.9H36a7.9,7.9,0,0,1-7.9-7.9V34.33a7.9,7.9,0,0,1,7.9-7.9H51.33a7.9,7.9,0,0,1,7.9,7.9Z" transform="translate(-6.18 -4.53)"/><path class="cls-1" d="M43.65,4.53A37.47,37.47,0,1,0,81.12,42,37.51,37.51,0,0,0,43.65,4.53Zm0,70.13A32.66,32.66,0,1,1,76.32,42,32.7,32.7,0,0,1,43.65,74.66Z" transform="translate(-6.18 -4.53)"/></svg>