<svg id="Calque_1" data-name="Calque 1" xmlns="http://www.w3.org/2000/svg" xmlns:xlink="http://www.w3.org/1999/xlink" viewBox="0 0 197.92 70.69"><defs><style>.cls-1,.cls-10,.cls-4,.cls-6{fill:#8ea5d3;}.cls-1,.cls-2{clip-rule:evenodd;}.cls-2,.cls-7,.cls-9{fill:#f0d1e6;}.cls-3{fill:#d08bbb;}.cls-4,.cls-7{fill-rule:evenodd;}.cls-5{clip-path:url(#clip-path);}.cls-8{clip-path:url(#clip-path-2);}.cls-10{font-size:39.59px;font-family:LuckiestGuy-Regular, Luckiest Guy;}.cls-11,.cls-12{font-size:31.68px;}.cls-12{letter-spacing:0em;}</style><clipPath id="clip-path" transform="translate(-2.71 1.96)"><path class="cls-1" d="M101.27,49a2.23,2.23,0,0,0,.32-2.73l1.73-1.74a2.18,2.18,0,0,0,2.17,0c10.88,7.83,27.41,3.07,31.21-11.11A20.13,20.13,0,1,0,101,40.09a2.19,2.19,0,0,0,.05,2.16L99.28,44a2.22,2.22,0,0,0-2.73.31l-7.24,7.24a2.22,2.22,0,0,0,0,3.13l1.6,1.59a2.22,2.22,0,0,0,3.13,0L101.27,49Zm20.27-36.72A16.54,16.54,0,1,1,101.28,24,16.54,16.54,0,0,1,121.54,12.31Z"/></clipPath><clipPath id="clip-path-2" transform="translate(-2.71 1.96)"><path class="cls-2" d="M113.32,43a15.23,15.23,0,1,0-10.78-18.65A15.22,15.22,0,0,0,113.32,43Zm3.94-4.22c-3.5,0-7.3-1-7.1-5.25A6.64,6.64,0,0,1,112,29.28c3-3.17,6.94-3.32,10.13-.34a6.68,6.68,0,0,1,2.21,4.59c.2,4.25-3.61,5.26-7.1,5.25Zm9.92-15.1c1.1.63,1.25,2.41.34,4S125,30,123.91,29.35s-1.25-2.41-.35-4,2.53-2.32,3.62-1.69Zm-5.36-5.81c1.56.42,2.34,2.57,1.74,4.81s-2.35,3.71-3.92,3.29-2.34-2.57-1.74-4.81,2.35-3.71,3.92-3.29Zm-14.49,5.81c1.1-.63,2.72.12,3.62,1.69s.75,3.35-.34,4-2.71-.13-3.62-1.69-.75-3.35.34-4Zm9.29-2.52c.59,2.24-.19,4.39-1.75,4.81s-3.31-1-3.91-3.29.18-4.39,1.74-4.81S116,18.93,116.62,21.16Z"/></clipPath></defs><circle class="cls-3" cx="114.55" cy="30.24" r="18.82"/><path class="cls-4" d="M101.27,49a2.23,2.23,0,0,0,.32-2.73l1.73-1.74a2.18,2.18,0,0,0,2.17,0c10.88,7.83,27.41,3.07,31.21-11.11A20.13,20.13,0,1,0,101,40.09a2.19,2.19,0,0,0,.05,2.16L99.28,44a2.22,2.22,0,0,0-2.73.31l-7.24,7.24a2.22,2.22,0,0,0,0,3.13l1.6,1.59a2.22,2.22,0,0,0,3.13,0L101.27,49Zm20.27-36.72A16.54,16.54,0,1,1,101.28,24,16.54,16.54,0,0,1,121.54,12.31Z" transform="translate(-2.71 1.96)"/><g class="cls-5"><rect class="cls-6" x="92.97" y="53.49" width="59.82" height="0.12" transform="translate(-12.99 70.79) rotate(-30.1)"/><rect class="cls-6" x="92.97" y="53.34" width="59.82" height="0.42" transform="translate(-12.99 70.83) rotate(-30.11)"/><rect class="cls-6" x="92.83" y="53.1" width="59.82" height="0.42" transform="translate(-12.89 70.71) rotate(-30.1)"/><rect class="cls-6" x="92.69" y="52.86" width="59.82" height="0.42" transform="translate(-12.78 70.62) rotate(-30.11)"/><rect class="cls-6" x="92.55" y="52.61" width="59.82" height="0.42" transform="matrix(0.87, -0.5, 0.5, 0.87, -12.68, 70.5)"/><rect class="cls-6" x="92.41" y="52.37" width="59.82" height="0.42" transform="translate(-12.58 70.41) rotate(-30.11)"/><rect class="cls-6" x="92.27" y="52.13" width="59.82" height="0.42" transform="translate(-12.48 70.3) rotate(-30.1)"/><rect class="cls-6" x="92.13" y="51.89" width="59.82" height="0.42" transform="translate(-12.38 70.2) rotate(-30.11)"/><rect class="cls-6" x="91.99" y="51.65" width="59.82" height="0.42" transform="translate(-12.27 70.1) rotate(-30.11)"/><rect class="cls-6" x="91.85" y="51.41" width="59.82" height="0.42" transform="translate(-12.17 69.99) rotate(-30.1)"/><rect class="cls-6" x="91.71" y="51.17" width="59.82" height="0.42" transform="translate(-12.07 69.9) rotate(-30.11)"/><rect class="cls-6" x="91.57" y="50.92" width="59.82" height="0.42" transform="translate(-11.97 69.78) rotate(-30.1)"/><rect class="cls-6" x="91.43" y="50.68" width="59.82" height="0.42" transform="translate(-11.86 69.69) rotate(-30.11)"/><rect class="cls-6" x="91.29" y="50.44" width="59.82" height="0.42" transform="translate(-11.76 69.58) rotate(-30.1)"/><rect class="cls-6" x="91.15" y="50.2" width="59.82" height="0.42" transform="translate(-11.66 69.48) rotate(-30.11)"/><rect class="cls-6" x="91.01" y="49.96" width="59.82" height="0.42" transform="translate(-11.56 69.38) rotate(-30.11)"/><rect class="cls-6" x="90.87" y="49.72" width="59.82" height="0.42" transform="translate(-11.46 69.27) rotate(-30.1)"/><rect class="cls-6" x="90.73" y="49.48" width="59.82" height="0.42" transform="matrix(0.87, -0.5, 0.5, 0.87, -11.35, 69.19)"/><rect class="cls-6" x="90.59" y="49.23" width="59.82" height="0.42" transform="translate(-11.25 69.06) rotate(-30.1)"/><rect class="cls-6" x="90.45" y="48.99" width="59.82" height="0.42" transform="matrix(0.87, -0.5, 0.5, 0.87, -11.15, 68.98)"/><rect class="cls-6" x="90.31" y="48.75" width="59.82" height="0.42" transform="matrix(0.87, -0.5, 0.5, 0.87, -11.05, 68.86)"/><rect class="cls-6" x="90.17" y="48.51" width="59.82" height="0.42" transform="translate(-10.94 68.76) rotate(-30.11)"/><rect class="cls-6" x="90.03" y="48.27" width="59.82" height="0.42" transform="translate(-10.84 68.65) rotate(-30.1)"/><rect class="cls-6" x="89.89" y="48.03" width="59.82" height="0.42" transform="translate(-10.74 68.55) rotate(-30.1)"/><rect class="cls-6" x="89.75" y="47.79" width="59.82" height="0.42" transform="translate(-10.63 68.47) rotate(-30.12)"/><rect class="cls-6" x="89.61" y="47.54" width="59.82" height="0.42" transform="matrix(0.87, -0.5, 0.5, 0.87, -10.54, 68.35)"/><rect class="cls-6" x="89.47" y="47.3" width="59.82" height="0.42" transform="matrix(0.87, -0.5, 0.5, 0.87, -10.43, 68.26)"/><rect class="cls-6" x="89.33" y="47.06" width="59.82" height="0.42" transform="translate(-10.33 68.14) rotate(-30.1)"/><rect class="cls-6" x="89.19" y="46.82" width="59.82" height="0.42" transform="translate(-10.23 68.03) rotate(-30.1)"/><rect class="cls-6" x="89.05" y="46.58" width="59.82" height="0.42" transform="translate(-10.13 67.93) rotate(-30.1)"/><rect class="cls-6" x="88.91" y="46.34" width="59.82" height="0.42" transform="translate(-10.03 67.83) rotate(-30.1)"/><rect class="cls-6" x="88.77" y="46.1" width="59.82" height="0.42" transform="translate(-9.92 67.75) rotate(-30.12)"/><rect class="cls-6" x="88.63" y="45.85" width="59.82" height="0.42" transform="translate(-9.82 67.62) rotate(-30.1)"/><rect class="cls-6" x="88.49" y="45.61" width="59.82" height="0.42" transform="translate(-9.71 67.55) rotate(-30.12)"/><rect class="cls-6" x="88.35" y="45.37" width="59.82" height="0.42" transform="translate(-9.62 67.42) rotate(-30.1)"/><rect class="cls-6" x="88.21" y="45.13" width="59.82" height="0.42" transform="translate(-9.51 67.33) rotate(-30.11)"/><rect class="cls-6" x="88.07" y="44.89" width="59.82" height="0.42" transform="matrix(0.87, -0.5, 0.5, 0.87, -9.41, 67.21)"/><rect class="cls-6" x="87.93" y="44.65" width="59.82" height="0.42" transform="translate(-9.31 67.11) rotate(-30.1)"/><rect class="cls-6" x="87.79" y="44.41" width="59.82" height="0.42" transform="translate(-9.21 67.02) rotate(-30.11)"/><rect class="cls-6" x="87.65" y="44.16" width="59.82" height="0.42" transform="matrix(0.87, -0.5, 0.5, 0.87, -9.11, 66.9)"/><rect class="cls-6" x="87.51" y="43.92" width="59.82" height="0.42" transform="translate(-9 66.83) rotate(-30.12)"/><rect class="cls-6" x="87.37" y="43.68" width="59.82" height="0.42" transform="translate(-8.9 66.7) rotate(-30.1)"/><rect class="cls-6" x="87.23" y="43.44" width="59.82" height="0.42" transform="translate(-8.8 66.61) rotate(-30.11)"/><rect class="cls-6" x="87.09" y="43.2" width="59.82" height="0.42" transform="translate(-8.69 66.5) rotate(-30.11)"/><rect class="cls-6" x="86.95" y="42.96" width="59.82" height="0.42" transform="translate(-8.59 66.41) rotate(-30.11)"/><rect class="cls-6" x="86.81" y="42.72" width="59.82" height="0.42" transform="translate(-8.49 66.3) rotate(-30.11)"/><rect class="cls-6" x="86.67" y="42.47" width="59.82" height="0.42" transform="translate(-8.39 66.19) rotate(-30.1)"/><rect class="cls-6" x="86.53" y="42.23" width="59.82" height="0.42" transform="translate(-8.28 66.11) rotate(-30.12)"/><rect class="cls-6" x="86.39" y="41.99" width="59.82" height="0.42" transform="translate(-8.19 65.98) rotate(-30.1)"/><rect class="cls-6" x="86.25" y="41.75" width="59.82" height="0.42" transform="translate(-8.08 65.89) rotate(-30.11)"/><rect class="cls-6" x="86.11" y="41.51" width="59.82" height="0.42" transform="translate(-7.98 65.78) rotate(-30.11)"/><rect class="cls-6" x="85.97" y="41.27" width="59.82" height="0.42" transform="translate(-7.88 65.69) rotate(-30.11)"/><rect class="cls-6" x="85.83" y="41.03" width="59.82" height="0.42" transform="translate(-7.78 65.57) rotate(-30.11)"/><rect class="cls-6" x="85.69" y="40.78" width="59.82" height="0.42" transform="translate(-7.67 65.46) rotate(-30.1)"/><rect class="cls-6" x="85.55" y="40.54" width="59.82" height="0.42" transform="translate(-7.57 65.37) rotate(-30.11)"/><rect class="cls-6" x="85.41" y="40.3" width="59.82" height="0.42" transform="translate(-7.47 65.26) rotate(-30.1)"/><rect class="cls-6" x="85.27" y="40.06" width="59.82" height="0.42" transform="translate(-7.37 65.17) rotate(-30.11)"/><rect class="cls-6" x="85.13" y="39.82" width="59.82" height="0.42" transform="translate(-7.26 65.07) rotate(-30.11)"/><rect class="cls-6" x="84.99" y="39.58" width="59.82" height="0.42" transform="translate(-7.16 64.97) rotate(-30.11)"/><rect class="cls-6" x="84.85" y="39.34" width="59.82" height="0.42" transform="translate(-7.06 64.86) rotate(-30.11)"/><rect class="cls-6" x="84.71" y="39.09" width="59.82" height="0.42" transform="translate(-6.96 64.76) rotate(-30.11)"/><rect class="cls-6" x="84.57" y="38.85" width="59.82" height="0.42" transform="translate(-6.86 64.63) rotate(-30.1)"/><rect class="cls-6" x="84.43" y="38.61" width="59.82" height="0.42" transform="translate(-6.75 64.54) rotate(-30.1)"/><rect class="cls-6" x="84.29" y="38.37" width="59.82" height="0.42" transform="matrix(0.87, -0.5, 0.5, 0.87, -6.65, 64.45)"/><rect class="cls-6" x="84.15" y="38.13" width="59.82" height="0.42" transform="translate(-6.55 64.35) rotate(-30.11)"/><rect class="cls-6" x="84.01" y="37.89" width="59.82" height="0.42" transform="matrix(0.87, -0.5, 0.5, 0.87, -6.45, 64.25)"/><rect class="cls-6" x="83.87" y="37.65" width="59.82" height="0.42" transform="translate(-6.34 64.14) rotate(-30.11)"/><rect class="cls-6" x="83.73" y="37.4" width="59.82" height="0.42" transform="matrix(0.87, -0.5, 0.5, 0.87, -6.24, 64.04)"/><rect class="cls-6" x="83.59" y="37.16" width="59.82" height="0.42" transform="translate(-6.14 63.92) rotate(-30.1)"/><rect class="cls-6" x="83.45" y="36.92" width="59.82" height="0.42" transform="translate(-6.04 63.82) rotate(-30.1)"/><rect class="cls-6" x="83.31" y="36.68" width="59.82" height="0.42" transform="translate(-5.94 63.71) rotate(-30.1)"/><rect class="cls-6" x="83.17" y="36.44" width="59.82" height="0.42" transform="translate(-5.83 63.63) rotate(-30.11)"/><rect class="cls-6" x="83.03" y="36.2" width="59.82" height="0.42" transform="translate(-5.73 63.52) rotate(-30.11)"/><rect class="cls-6" x="82.89" y="35.96" width="59.82" height="0.42" transform="translate(-5.63 63.42) rotate(-30.11)"/><rect class="cls-6" x="82.75" y="35.71" width="59.82" height="0.42" transform="translate(-5.53 63.32) rotate(-30.11)"/><rect class="cls-6" x="82.61" y="35.47" width="59.82" height="0.42" transform="translate(-5.43 63.21) rotate(-30.1)"/><rect class="cls-6" x="82.47" y="35.23" width="59.82" height="0.42" transform="translate(-5.32 63.12) rotate(-30.12)"/><rect class="cls-6" x="82.33" y="34.99" width="59.82" height="0.42" transform="matrix(0.87, -0.5, 0.5, 0.87, -5.22, 63)"/><rect class="cls-6" x="82.19" y="34.75" width="59.82" height="0.42" transform="translate(-5.12 62.91) rotate(-30.11)"/><rect class="cls-6" x="82.05" y="34.51" width="59.82" height="0.42" transform="translate(-5.01 62.81) rotate(-30.11)"/><rect class="cls-6" x="81.91" y="34.27" width="59.82" height="0.42" transform="translate(-4.91 62.7) rotate(-30.11)"/><rect class="cls-6" x="81.77" y="34.02" width="59.82" height="0.42" transform="translate(-4.81 62.6) rotate(-30.11)"/><rect class="cls-6" x="81.63" y="33.78" width="59.82" height="0.42" transform="translate(-4.71 62.49) rotate(-30.1)"/><rect class="cls-6" x="81.49" y="33.54" width="59.82" height="0.42" transform="translate(-4.6 62.4) rotate(-30.11)"/><rect class="cls-6" x="81.35" y="33.3" width="59.82" height="0.42" transform="translate(-4.51 62.28) rotate(-30.1)"/><rect class="cls-6" x="81.21" y="33.06" width="59.82" height="0.42" transform="translate(-4.4 62.18) rotate(-30.11)"/><rect class="cls-6" x="81.07" y="32.82" width="59.82" height="0.42" transform="translate(-4.3 62.07) rotate(-30.1)"/><rect class="cls-6" x="80.93" y="32.58" width="59.82" height="0.42" transform="translate(-4.2 61.98) rotate(-30.11)"/><rect class="cls-6" x="80.79" y="32.33" width="59.82" height="0.42" transform="translate(-4.09 61.88) rotate(-30.11)"/><rect class="cls-6" x="80.65" y="32.09" width="59.82" height="0.42" transform="matrix(0.87, -0.5, 0.5, 0.87, -3.99, 61.77)"/><rect class="cls-6" x="80.51" y="31.85" width="59.82" height="0.42" transform="translate(-3.89 61.68) rotate(-30.12)"/><rect class="cls-6" x="80.37" y="31.61" width="59.82" height="0.42" transform="translate(-3.79 61.56) rotate(-30.1)"/><rect class="cls-6" x="80.23" y="31.37" width="59.82" height="0.42" transform="matrix(0.87, -0.5, 0.5, 0.87, -3.68, 61.47)"/><rect class="cls-6" x="80.09" y="31.13" width="59.82" height="0.42" transform="translate(-3.59 61.35) rotate(-30.1)"/><rect class="cls-6" x="79.95" y="30.89" width="59.82" height="0.42" transform="translate(-3.48 61.25) rotate(-30.1)"/><rect class="cls-6" x="79.81" y="30.64" width="59.82" height="0.42" transform="translate(-3.38 61.16) rotate(-30.11)"/><rect class="cls-6" x="79.67" y="30.4" width="59.82" height="0.42" transform="translate(-3.28 61.04) rotate(-30.1)"/><rect class="cls-6" x="79.53" y="30.16" width="59.82" height="0.42" transform="translate(-3.17 60.97) rotate(-30.12)"/><rect class="cls-6" x="79.39" y="29.92" width="59.82" height="0.42" transform="translate(-3.08 60.84) rotate(-30.1)"/><rect class="cls-6" x="79.25" y="29.68" width="59.82" height="0.42" transform="translate(-2.97 60.76) rotate(-30.12)"/><rect class="cls-6" x="79.11" y="29.44" width="59.82" height="0.42" transform="translate(-2.87 60.63) rotate(-30.1)"/><rect class="cls-6" x="78.97" y="29.2" width="59.82" height="0.42" transform="translate(-2.77 60.53) rotate(-30.1)"/><rect class="cls-6" x="78.83" y="28.95" width="59.82" height="0.42" transform="matrix(0.87, -0.5, 0.5, 0.87, -2.67, 60.43)"/><rect class="cls-6" x="78.69" y="28.71" width="59.82" height="0.42" transform="matrix(0.87, -0.5, 0.5, 0.87, -2.56, 60.33)"/><rect class="cls-6" x="78.55" y="28.47" width="59.82" height="0.42" transform="translate(-2.46 60.25) rotate(-30.12)"/><rect class="cls-6" x="78.41" y="28.23" width="59.82" height="0.42" transform="translate(-2.36 60.11) rotate(-30.1)"/><rect class="cls-6" x="78.27" y="27.99" width="59.82" height="0.42" transform="translate(-2.25 60.04) rotate(-30.12)"/><rect class="cls-6" x="78.13" y="27.75" width="59.82" height="0.42" transform="translate(-2.16 59.91) rotate(-30.1)"/><rect class="cls-6" x="77.99" y="27.51" width="59.82" height="0.42" transform="translate(-2.05 59.83) rotate(-30.11)"/><rect class="cls-6" x="77.85" y="27.26" width="59.82" height="0.42" transform="translate(-1.95 59.72) rotate(-30.11)"/><rect class="cls-6" x="77.71" y="27.02" width="59.82" height="0.42" transform="translate(-1.85 59.61) rotate(-30.1)"/><rect class="cls-6" x="77.57" y="26.78" width="59.82" height="0.42" transform="translate(-1.74 59.53) rotate(-30.12)"/><rect class="cls-6" x="77.43" y="26.54" width="59.82" height="0.42" transform="translate(-1.64 59.4) rotate(-30.1)"/><rect class="cls-6" x="77.29" y="26.3" width="59.82" height="0.42" transform="translate(-1.54 59.32) rotate(-30.12)"/><rect class="cls-6" x="77.15" y="26.06" width="59.82" height="0.42" transform="translate(-1.44 59.19) rotate(-30.1)"/><rect class="cls-6" x="77.01" y="25.82" width="59.82" height="0.42" transform="translate(-1.33 59.11) rotate(-30.11)"/><rect class="cls-6" x="76.87" y="25.57" width="59.82" height="0.42" transform="translate(-1.23 58.99) rotate(-30.1)"/><rect class="cls-6" x="76.73" y="25.33" width="59.82" height="0.42" transform="translate(-1.13 58.89) rotate(-30.1)"/><rect class="cls-6" x="76.59" y="25.09" width="59.82" height="0.42" transform="translate(-1.03 58.79) rotate(-30.11)"/><rect class="cls-6" x="76.45" y="24.85" width="59.82" height="0.42" transform="matrix(0.87, -0.5, 0.5, 0.87, -0.93, 58.68)"/><rect class="cls-6" x="76.31" y="24.61" width="59.82" height="0.42" transform="matrix(0.87, -0.5, 0.5, 0.87, -0.82, 58.6)"/><rect class="cls-6" x="76.17" y="24.37" width="59.82" height="0.42" transform="translate(-0.73 58.47) rotate(-30.1)"/><rect class="cls-6" x="76.03" y="24.13" width="59.82" height="0.42" transform="translate(-0.62 58.39) rotate(-30.11)"/><rect class="cls-6" x="75.89" y="23.88" width="59.82" height="0.42" transform="translate(-0.52 58.28) rotate(-30.11)"/><rect class="cls-6" x="75.75" y="23.64" width="59.82" height="0.42" transform="translate(-0.41 58.18) rotate(-30.11)"/><rect class="cls-6" x="75.61" y="23.4" width="59.82" height="0.42" transform="translate(-0.31 58.07) rotate(-30.11)"/><rect class="cls-6" x="75.47" y="23.16" width="59.82" height="0.42" transform="translate(-0.21 57.96) rotate(-30.1)"/><rect class="cls-6" x="75.33" y="22.92" width="59.82" height="0.42" transform="translate(-0.11 57.87) rotate(-30.11)"/><rect class="cls-6" x="75.19" y="22.68" width="59.82" height="0.42" transform="translate(-0.01 57.76) rotate(-30.1)"/><rect class="cls-6" x="75.05" y="22.44" width="59.82" height="0.42" transform="matrix(0.87, -0.5, 0.5, 0.87, 0.1, 57.66)"/><rect class="cls-6" x="74.91" y="22.19" width="59.82" height="0.42" transform="translate(0.2 57.56) rotate(-30.11)"/><rect class="cls-6" x="74.77" y="21.95" width="59.82" height="0.42" transform="translate(0.3 57.46) rotate(-30.11)"/><rect class="cls-6" x="74.63" y="21.71" width="59.82" height="0.42" transform="translate(0.4 57.35) rotate(-30.11)"/><rect class="cls-6" x="74.49" y="21.47" width="59.82" height="0.42" transform="translate(0.5 57.24) rotate(-30.1)"/><rect class="cls-6" x="74.35" y="21.23" width="59.82" height="0.42" transform="translate(0.6 57.14) rotate(-30.1)"/><rect class="cls-6" x="74.21" y="20.99" width="59.82" height="0.42" transform="translate(0.71 57.04) rotate(-30.1)"/><rect class="cls-6" x="74.07" y="20.75" width="59.82" height="0.42" transform="translate(0.81 56.95) rotate(-30.11)"/><rect class="cls-6" x="73.93" y="20.5" width="59.82" height="0.42" transform="translate(0.91 56.84) rotate(-30.11)"/><rect class="cls-6" x="73.79" y="20.26" width="59.82" height="0.42" transform="translate(1.02 56.74) rotate(-30.11)"/><rect class="cls-6" x="73.65" y="20.02" width="59.82" height="0.42" transform="translate(1.12 56.63) rotate(-30.11)"/><rect class="cls-6" x="73.51" y="19.78" width="59.82" height="0.42" transform="translate(1.22 56.53) rotate(-30.11)"/><rect class="cls-6" x="73.37" y="19.54" width="59.82" height="0.42" transform="translate(1.32 56.42) rotate(-30.1)"/><rect class="cls-6" x="73.23" y="19.3" width="59.82" height="0.42" transform="translate(1.42 56.32) rotate(-30.11)"/><rect class="cls-6" x="73.09" y="19.06" width="59.82" height="0.42" transform="translate(1.53 56.23) rotate(-30.11)"/><rect class="cls-6" x="72.95" y="18.81" width="59.82" height="0.42" transform="translate(1.63 56.12) rotate(-30.11)"/><rect class="cls-6" x="72.81" y="18.57" width="59.82" height="0.42" transform="translate(1.73 56.02) rotate(-30.11)"/><rect class="cls-6" x="72.67" y="18.33" width="59.82" height="0.42" transform="translate(1.83 55.91) rotate(-30.11)"/><rect class="cls-6" x="72.53" y="18.09" width="59.82" height="0.42" transform="translate(1.94 55.82) rotate(-30.11)"/><rect class="cls-6" x="72.39" y="17.85" width="59.82" height="0.42" transform="matrix(0.87, -0.5, 0.5, 0.87, 2.03, 55.7)"/><rect class="cls-6" x="72.25" y="17.61" width="59.82" height="0.42" transform="translate(2.14 55.61) rotate(-30.11)"/><rect class="cls-6" x="72.11" y="17.37" width="59.82" height="0.42" transform="translate(2.24 55.49) rotate(-30.1)"/><rect class="cls-6" x="71.97" y="17.12" width="59.82" height="0.42" transform="matrix(0.87, -0.5, 0.5, 0.87, 2.34, 55.39)"/><rect class="cls-6" x="71.83" y="16.88" width="59.82" height="0.42" transform="translate(2.45 55.3) rotate(-30.11)"/><rect class="cls-6" x="71.69" y="16.64" width="59.82" height="0.42" transform="translate(2.55 55.19) rotate(-30.11)"/><rect class="cls-6" x="71.55" y="16.4" width="59.82" height="0.42" transform="translate(2.65 55.1) rotate(-30.11)"/><rect class="cls-6" x="71.41" y="16.16" width="59.82" height="0.42" transform="translate(2.75 54.98) rotate(-30.1)"/><rect class="cls-6" x="71.27" y="15.92" width="59.82" height="0.42" transform="translate(2.86 54.9) rotate(-30.12)"/><rect class="cls-6" x="71.13" y="15.68" width="59.82" height="0.42" transform="translate(2.95 54.77) rotate(-30.1)"/><rect class="cls-6" x="70.99" y="15.43" width="59.82" height="0.42" transform="translate(3.06 54.68) rotate(-30.11)"/><rect class="cls-6" x="70.85" y="15.19" width="59.82" height="0.42" transform="translate(3.17 54.58) rotate(-30.11)"/><rect class="cls-6" x="70.71" y="14.95" width="59.82" height="0.42" transform="translate(3.26 54.47) rotate(-30.1)"/><rect class="cls-6" x="70.57" y="14.71" width="59.82" height="0.42" transform="translate(3.37 54.38) rotate(-30.11)"/><rect class="cls-6" x="70.43" y="14.47" width="59.82" height="0.42" transform="translate(3.46 54.26) rotate(-30.1)"/><rect class="cls-6" x="70.29" y="14.23" width="59.82" height="0.42" transform="translate(3.58 54.18) rotate(-30.12)"/><rect class="cls-6" x="70.15" y="13.99" width="59.82" height="0.42" transform="translate(3.67 54.05) rotate(-30.1)"/><rect class="cls-6" x="70.01" y="13.74" width="59.82" height="0.42" transform="translate(3.77 53.96) rotate(-30.11)"/><rect class="cls-6" x="69.87" y="13.5" width="59.82" height="0.42" transform="translate(3.87 53.85) rotate(-30.1)"/><rect class="cls-6" x="69.73" y="13.26" width="59.82" height="0.42" transform="matrix(0.87, -0.5, 0.5, 0.87, 3.98, 53.75)"/><rect class="cls-6" x="69.59" y="13.02" width="59.82" height="0.42" transform="translate(4.09 53.66) rotate(-30.11)"/><rect class="cls-6" x="69.53" y="13.08" width="59.82" height="0.1" transform="translate(4.1 53.56) rotate(-30.08)"/></g><path class="cls-7" d="M113.32,43a15.23,15.23,0,1,0-10.78-18.65A15.22,15.22,0,0,0,113.32,43Zm3.94-4.22c-3.5,0-7.3-1-7.1-5.25A6.64,6.64,0,0,1,112,29.28c3-3.17,6.94-3.32,10.13-.34a6.68,6.68,0,0,1,2.21,4.59c.2,4.25-3.61,5.26-7.1,5.25Zm9.92-15.1c1.1.63,1.25,2.41.34,4S125,30,123.91,29.35s-1.25-2.41-.35-4,2.53-2.32,3.62-1.69Zm-5.36-5.81c1.56.42,2.34,2.57,1.74,4.81s-2.35,3.71-3.92,3.29-2.34-2.57-1.74-4.81,2.35-3.71,3.92-3.29Zm-14.49,5.81c1.1-.63,2.72.12,3.62,1.69s.75,3.35-.34,4-2.71-.13-3.62-1.69-.75-3.35.34-4Zm9.29-2.52c.59,2.24-.19,4.39-1.75,4.81s-3.31-1-3.91-3.29.18-4.39,1.74-4.81S116,18.93,116.62,21.16Z" transform="translate(-2.71 1.96)"/><g class="cls-8"><rect class="cls-9" x="108.61" y="42.98" width="33.6" transform="translate(-7.81 68.2) rotate(-29.02)"/><rect class="cls-9" x="108.59" y="42.83" width="33.6" height="0.24" transform="translate(-7.8 68.15) rotate(-29.01)"/><rect class="cls-9" x="108.51" y="42.69" width="33.6" height="0.24" transform="translate(-7.74 68.11) rotate(-29.01)"/><rect class="cls-9" x="108.44" y="42.55" width="33.6" height="0.24" transform="translate(-7.69 68.06) rotate(-29.02)"/><rect class="cls-9" x="108.36" y="42.42" width="33.6" height="0.24" transform="translate(-7.63 68) rotate(-29.01)"/><rect class="cls-9" x="108.28" y="42.28" width="33.6" height="0.24" transform="translate(-7.57 67.95) rotate(-29.02)"/><rect class="cls-9" x="108.2" y="42.14" width="33.6" height="0.24" transform="translate(-7.52 67.88) rotate(-29.01)"/><rect class="cls-9" x="108.13" y="42" width="33.6" height="0.24" transform="translate(-7.46 67.82) rotate(-29.01)"/><rect class="cls-9" x="108.05" y="41.86" width="33.6" height="0.24" transform="translate(-7.4 67.78) rotate(-29.02)"/><rect class="cls-9" x="107.97" y="41.72" width="33.6" height="0.24" transform="translate(-7.34 67.71) rotate(-29.01)"/><rect class="cls-9" x="107.9" y="41.58" width="33.6" height="0.24" transform="translate(-7.28 67.69) rotate(-29.02)"/><rect class="cls-9" x="107.82" y="41.44" width="33.6" height="0.24" transform="translate(-7.22 67.62) rotate(-29.02)"/><rect class="cls-9" x="107.74" y="41.3" width="33.6" height="0.24" transform="translate(-7.17 67.55) rotate(-29.01)"/><rect class="cls-9" x="107.67" y="41.17" width="33.6" height="0.24" transform="translate(-7.11 67.51) rotate(-29.01)"/><rect class="cls-9" x="107.59" y="41.03" width="33.6" height="0.24" transform="translate(-7.05 67.46) rotate(-29.02)"/><rect class="cls-9" x="107.51" y="40.89" width="33.6" height="0.24" transform="translate(-6.99 67.39) rotate(-29.01)"/><rect class="cls-9" x="107.43" y="40.75" width="33.6" height="0.24" transform="translate(-6.93 67.35) rotate(-29.02)"/><rect class="cls-9" x="107.36" y="40.61" width="33.6" height="0.24" transform="translate(-6.88 67.28) rotate(-29.01)"/><rect class="cls-9" x="107.28" y="40.47" width="33.6" height="0.24" transform="translate(-6.82 67.22) rotate(-29.01)"/><rect class="cls-9" x="107.2" y="40.33" width="33.6" height="0.24" transform="translate(-6.76 67.19) rotate(-29.02)"/><rect class="cls-9" x="107.13" y="40.19" width="33.6" height="0.24" transform="translate(-6.7 67.14) rotate(-29.02)"/><rect class="cls-9" x="107.05" y="40.05" width="33.6" height="0.24" transform="translate(-6.65 67.06) rotate(-29.01)"/><rect class="cls-9" x="106.97" y="39.92" width="33.6" height="0.24" transform="translate(-6.59 67.02) rotate(-29.02)"/><rect class="cls-9" x="106.9" y="39.78" width="33.6" height="0.24" transform="translate(-6.53 66.96) rotate(-29.01)"/><rect class="cls-9" x="106.82" y="39.64" width="33.6" height="0.24" transform="translate(-6.47 66.91) rotate(-29.02)"/><rect class="cls-9" x="106.74" y="39.5" width="33.6" height="0.24" transform="translate(-6.42 66.85) rotate(-29.02)"/><rect class="cls-9" x="106.66" y="39.36" width="33.6" height="0.24" transform="translate(-6.36 66.78) rotate(-29.01)"/><rect class="cls-9" x="106.59" y="39.22" width="33.6" height="0.24" transform="translate(-6.3 66.75) rotate(-29.02)"/><rect class="cls-9" x="106.51" y="39.08" width="33.6" height="0.24" transform="translate(-6.25 66.67) rotate(-29.01)"/><rect class="cls-9" x="106.43" y="38.94" width="33.6" height="0.24" transform="translate(-6.18 66.65) rotate(-29.02)"/><rect class="cls-9" x="106.36" y="38.8" width="33.6" height="0.24" transform="translate(-6.12 66.61) rotate(-29.03)"/><rect class="cls-9" x="106.28" y="38.67" width="33.6" height="0.24" transform="translate(-6.07 66.51) rotate(-29.01)"/><rect class="cls-9" x="106.2" y="38.53" width="33.6" height="0.24" transform="translate(-6.02 66.45) rotate(-29.01)"/><rect class="cls-9" x="106.13" y="38.39" width="33.6" height="0.24" transform="translate(-5.95 66.42) rotate(-29.02)"/><rect class="cls-9" x="106.05" y="38.25" width="33.6" height="0.24" transform="translate(-5.9 66.35) rotate(-29.01)"/><rect class="cls-9" x="105.97" y="38.11" width="33.6" height="0.24" transform="translate(-5.84 66.31) rotate(-29.02)"/><rect class="cls-9" x="105.89" y="37.97" width="33.6" height="0.24" transform="translate(-5.78 66.25) rotate(-29.01)"/><rect class="cls-9" x="105.82" y="37.83" width="33.6" height="0.24" transform="translate(-5.73 66.18) rotate(-29.01)"/><rect class="cls-9" x="105.74" y="37.69" width="33.6" height="0.24" transform="translate(-5.66 66.15) rotate(-29.02)"/><rect class="cls-9" x="105.66" y="37.56" width="33.6" height="0.24" transform="translate(-5.61 66.1) rotate(-29.02)"/><rect class="cls-9" x="105.59" y="37.42" width="33.6" height="0.24" transform="translate(-5.55 66.04) rotate(-29.02)"/><rect class="cls-9" x="105.51" y="37.28" width="33.6" height="0.24" transform="translate(-5.49 65.97) rotate(-29.01)"/><rect class="cls-9" x="105.43" y="37.14" width="33.6" height="0.24" transform="translate(-5.44 65.92) rotate(-29.01)"/><rect class="cls-9" x="105.35" y="37" width="33.6" height="0.24" transform="translate(-5.38 65.87) rotate(-29.02)"/><rect class="cls-9" x="105.28" y="36.86" width="33.6" height="0.24" transform="translate(-5.32 65.82) rotate(-29.02)"/><rect class="cls-9" x="105.2" y="36.72" width="33.6" height="0.24" transform="translate(-5.27 65.74) rotate(-29.01)"/><rect class="cls-9" x="105.12" y="36.58" width="33.6" height="0.24" transform="translate(-5.2 65.7) rotate(-29.02)"/><rect class="cls-9" x="105.05" y="36.44" width="33.6" height="0.24" transform="translate(-5.15 65.63) rotate(-29.01)"/><rect class="cls-9" x="104.97" y="36.31" width="33.6" height="0.24" transform="translate(-5.09 65.58) rotate(-29.01)"/><rect class="cls-9" x="104.89" y="36.17" width="33.6" height="0.24" transform="translate(-5.03 65.56) rotate(-29.03)"/><rect class="cls-9" x="104.82" y="36.03" width="33.6" height="0.24" transform="translate(-4.97 65.5) rotate(-29.02)"/><rect class="cls-9" x="104.74" y="35.89" width="33.6" height="0.24" transform="translate(-4.92 65.41) rotate(-29.01)"/><rect class="cls-9" x="104.66" y="35.75" width="33.6" height="0.24" transform="translate(-4.86 65.37) rotate(-29.02)"/><rect class="cls-9" x="104.58" y="35.61" width="33.6" height="0.24" transform="translate(-4.8 65.31) rotate(-29.01)"/><rect class="cls-9" x="104.51" y="35.47" width="33.6" height="0.24" transform="translate(-4.74 65.26) rotate(-29.01)"/><rect class="cls-9" x="104.43" y="35.33" width="33.6" height="0.24" transform="translate(-4.68 65.22) rotate(-29.02)"/><rect class="cls-9" x="104.35" y="35.19" width="33.6" height="0.24" transform="translate(-4.63 65.14) rotate(-29.01)"/><rect class="cls-9" x="104.28" y="35.06" width="33.6" height="0.24" transform="translate(-4.57 65.11) rotate(-29.02)"/><rect class="cls-9" x="104.2" y="34.92" width="33.6" height="0.24" transform="translate(-4.52 65.03) rotate(-29.01)"/><rect class="cls-9" x="104.12" y="34.78" width="33.6" height="0.24" transform="translate(-4.45 65.01) rotate(-29.02)"/><rect class="cls-9" x="104.05" y="34.64" width="33.6" height="0.24" transform="translate(-4.39 64.97) rotate(-29.03)"/><rect class="cls-9" x="103.97" y="34.5" width="33.6" height="0.24" transform="translate(-4.34 64.88) rotate(-29.01)"/><rect class="cls-9" x="103.89" y="34.36" width="33.6" height="0.24" transform="translate(-4.29 64.81) rotate(-29.01)"/><rect class="cls-9" x="103.81" y="34.22" width="33.6" height="0.24" transform="translate(-4.22 64.77) rotate(-29.02)"/><rect class="cls-9" x="103.74" y="34.08" width="33.6" height="0.24" transform="translate(-4.17 64.7) rotate(-29.01)"/><rect class="cls-9" x="103.66" y="33.94" width="33.6" height="0.24" transform="translate(-4.11 64.66) rotate(-29.02)"/><rect class="cls-9" x="103.58" y="33.81" width="33.6" height="0.24" transform="translate(-4.05 64.59) rotate(-29.01)"/><rect class="cls-9" x="103.51" y="33.67" width="33.6" height="0.24" transform="translate(-4 64.54) rotate(-29.01)"/><rect class="cls-9" x="103.43" y="33.53" width="33.6" height="0.24" transform="translate(-3.93 64.51) rotate(-29.02)"/><rect class="cls-9" x="103.35" y="33.39" width="33.6" height="0.24" transform="translate(-3.87 64.46) rotate(-29.02)"/><rect class="cls-9" x="103.28" y="33.25" width="33.6" height="0.24" transform="translate(-3.82 64.37) rotate(-29.01)"/><rect class="cls-9" x="103.2" y="33.11" width="33.6" height="0.24" transform="translate(-3.76 64.33) rotate(-29.02)"/><rect class="cls-9" x="103.12" y="32.97" width="33.6" height="0.24" transform="translate(-3.71 64.27) rotate(-29.01)"/><rect class="cls-9" x="103.04" y="32.83" width="33.6" height="0.24" transform="translate(-3.65 64.22) rotate(-29.02)"/><rect class="cls-9" x="102.97" y="32.69" width="33.6" height="0.24" transform="translate(-3.59 64.18) rotate(-29.02)"/><rect class="cls-9" x="102.89" y="32.56" width="33.6" height="0.24" transform="translate(-3.54 64.1) rotate(-29.01)"/><rect class="cls-9" x="102.81" y="32.42" width="33.6" height="0.24" transform="translate(-3.47 64.07) rotate(-29.02)"/><rect class="cls-9" x="102.74" y="32.28" width="33.6" height="0.24" transform="translate(-3.42 63.99) rotate(-29.01)"/><rect class="cls-9" x="102.66" y="32.14" width="33.6" height="0.24" transform="translate(-3.36 63.94) rotate(-29.01)"/><rect class="cls-9" x="102.58" y="32" width="33.6" height="0.24" transform="translate(-3.29 63.93) rotate(-29.03)"/><rect class="cls-9" x="102.51" y="31.86" width="33.6" height="0.24" transform="translate(-3.24 63.83) rotate(-29.01)"/><rect class="cls-9" x="102.43" y="31.72" width="33.6" height="0.24" transform="translate(-3.19 63.77) rotate(-29.01)"/><rect class="cls-9" x="102.35" y="31.58" width="33.6" height="0.24" transform="translate(-3.13 63.73) rotate(-29.02)"/><rect class="cls-9" x="102.27" y="31.44" width="33.6" height="0.24" transform="translate(-3.07 63.66) rotate(-29.01)"/><rect class="cls-9" x="102.2" y="31.31" width="33.6" height="0.24" transform="translate(-3.01 63.62) rotate(-29.02)"/><rect class="cls-9" x="102.12" y="31.17" width="33.6" height="0.24" transform="translate(-2.96 63.56) rotate(-29.01)"/><rect class="cls-9" x="102.04" y="31.03" width="33.6" height="0.24" transform="translate(-2.9 63.5) rotate(-29.01)"/><rect class="cls-9" x="101.97" y="30.89" width="33.6" height="0.24" transform="translate(-2.84 63.47) rotate(-29.02)"/><rect class="cls-9" x="101.89" y="30.75" width="33.6" height="0.24" transform="translate(-2.79 63.38) rotate(-29.01)"/><rect class="cls-9" x="101.81" y="30.61" width="33.6" height="0.24" transform="translate(-2.72 63.36) rotate(-29.02)"/><rect class="cls-9" x="101.73" y="30.47" width="33.6" height="0.24" transform="translate(-2.67 63.29) rotate(-29.01)"/><rect class="cls-9" x="101.66" y="30.33" width="33.6" height="0.24" transform="translate(-2.61 63.23) rotate(-29.01)"/><rect class="cls-9" x="101.58" y="30.2" width="33.6" height="0.24" transform="translate(-2.55 63.17) rotate(-29.01)"/><rect class="cls-9" x="101.5" y="30.06" width="33.6" height="0.24" transform="translate(-2.49 63.14) rotate(-29.02)"/><rect class="cls-9" x="101.43" y="29.92" width="33.6" height="0.24" transform="translate(-2.44 63.06) rotate(-29.01)"/><rect class="cls-9" x="101.35" y="29.78" width="33.6" height="0.24" transform="matrix(0.87, -0.49, 0.49, 0.87, -2.37, 63.03)"/><rect class="cls-9" x="101.27" y="29.64" width="33.6" height="0.24" transform="translate(-2.32 62.95) rotate(-29.01)"/><rect class="cls-9" x="101.2" y="29.5" width="33.6" height="0.24" transform="translate(-2.26 62.91) rotate(-29.01)"/><rect class="cls-9" x="101.12" y="29.36" width="33.6" height="0.24" transform="translate(-2.21 62.85) rotate(-29.01)"/><rect class="cls-9" x="101.04" y="29.22" width="33.6" height="0.24" transform="translate(-2.14 62.81) rotate(-29.02)"/><rect class="cls-9" x="100.96" y="29.08" width="33.6" height="0.24" transform="translate(-2.09 62.73) rotate(-29.01)"/><rect class="cls-9" x="100.89" y="28.95" width="33.6" height="0.24" transform="translate(-2.03 62.69) rotate(-29.02)"/><rect class="cls-9" x="100.81" y="28.81" width="33.6" height="0.24" transform="translate(-1.98 62.62) rotate(-29.01)"/><rect class="cls-9" x="100.73" y="28.67" width="33.6" height="0.24" transform="translate(-1.92 62.58) rotate(-29.01)"/><rect class="cls-9" x="100.66" y="28.53" width="33.6" height="0.24" transform="translate(-1.86 62.53) rotate(-29.02)"/><rect class="cls-9" x="100.58" y="28.39" width="33.6" height="0.24" transform="translate(-1.8 62.46) rotate(-29.01)"/><rect class="cls-9" x="100.5" y="28.25" width="33.6" height="0.24" transform="translate(-1.74 62.43) rotate(-29.02)"/><rect class="cls-9" x="100.43" y="28.11" width="33.6" height="0.24" transform="translate(-1.69 62.34) rotate(-29.01)"/><rect class="cls-9" x="100.35" y="27.97" width="33.6" height="0.24" transform="translate(-1.62 62.32) rotate(-29.02)"/><rect class="cls-9" x="100.27" y="27.83" width="33.6" height="0.24" transform="translate(-1.56 62.28) rotate(-29.03)"/><rect class="cls-9" x="100.19" y="27.7" width="33.6" height="0.24" transform="translate(-1.51 62.19) rotate(-29.01)"/><rect class="cls-9" x="100.12" y="27.56" width="33.6" height="0.24" transform="translate(-1.46 62.13) rotate(-29.01)"/><rect class="cls-9" x="100.04" y="27.42" width="33.6" height="0.24" transform="translate(-1.39 62.1) rotate(-29.02)"/><rect class="cls-9" x="99.96" y="27.28" width="33.6" height="0.24" transform="translate(-1.34 62.02) rotate(-29.01)"/><rect class="cls-9" x="99.89" y="27.14" width="33.6" height="0.24" transform="translate(-1.28 61.99) rotate(-29.02)"/><rect class="cls-9" x="99.81" y="27" width="33.6" height="0.24" transform="translate(-1.22 61.92) rotate(-29.02)"/><rect class="cls-9" x="99.73" y="26.86" width="33.6" height="0.24" transform="translate(-1.17 61.86) rotate(-29.01)"/><rect class="cls-9" x="99.66" y="26.72" width="33.6" height="0.24" transform="translate(-1.11 61.82) rotate(-29.02)"/><rect class="cls-9" x="99.58" y="26.58" width="33.6" height="0.24" transform="translate(-1.05 61.77) rotate(-29.02)"/><rect class="cls-9" x="99.5" y="26.45" width="33.6" height="0.24" transform="translate(-0.99 61.72) rotate(-29.02)"/><rect class="cls-9" x="99.42" y="26.31" width="33.6" height="0.24" transform="translate(-0.93 61.66) rotate(-29.02)"/><rect class="cls-9" x="99.35" y="26.17" width="33.6" height="0.24" transform="translate(-0.88 61.58) rotate(-29.01)"/><rect class="cls-9" x="99.27" y="26.03" width="33.6" height="0.24" transform="translate(-0.82 61.52) rotate(-29.01)"/><rect class="cls-9" x="99.19" y="25.89" width="33.6" height="0.24" transform="translate(-0.76 61.49) rotate(-29.02)"/><rect class="cls-9" x="99.12" y="25.75" width="33.6" height="0.24" transform="translate(-0.71 61.41) rotate(-29.01)"/><rect class="cls-9" x="99.04" y="25.61" width="33.6" height="0.24" transform="translate(-0.64 61.39) rotate(-29.02)"/><rect class="cls-9" x="98.96" y="25.47" width="33.6" height="0.24" transform="translate(-0.59 61.3) rotate(-29.01)"/><rect class="cls-9" x="98.88" y="25.33" width="33.6" height="0.24" transform="translate(-0.53 61.26) rotate(-29.01)"/><rect class="cls-9" x="98.81" y="25.2" width="33.6" height="0.24" transform="translate(-0.47 61.24) rotate(-29.03)"/><rect class="cls-9" x="98.73" y="25.06" width="33.6" height="0.24" transform="translate(-0.41 61.18) rotate(-29.03)"/><rect class="cls-9" x="98.65" y="24.92" width="33.6" height="0.24" transform="translate(-0.36 61.09) rotate(-29.01)"/><rect class="cls-9" x="98.58" y="24.78" width="33.6" height="0.24" transform="translate(-0.3 61.06) rotate(-29.02)"/><rect class="cls-9" x="98.5" y="24.64" width="33.6" height="0.24" transform="translate(-0.25 60.98) rotate(-29.01)"/><rect class="cls-9" x="98.42" y="24.5" width="33.6" height="0.24" transform="translate(-0.18 60.94) rotate(-29.02)"/><rect class="cls-9" x="98.35" y="24.36" width="33.6" height="0.24" transform="translate(-0.13 60.88) rotate(-29.02)"/><rect class="cls-9" x="98.27" y="24.22" width="33.6" height="0.24" transform="translate(-0.07 60.82) rotate(-29.01)"/><rect class="cls-9" x="98.19" y="24.09" width="33.6" height="0.24" transform="translate(-0.01 60.77) rotate(-29.02)"/><rect class="cls-9" x="98.11" y="23.95" width="33.6" height="0.24" transform="translate(0.04 60.7) rotate(-29.01)"/><rect class="cls-9" x="98.04" y="23.81" width="33.6" height="0.24" transform="translate(0.11 60.68) rotate(-29.02)"/><rect class="cls-9" x="97.96" y="23.67" width="33.6" height="0.24" transform="translate(0.16 60.61) rotate(-29.02)"/><rect class="cls-9" x="97.88" y="23.53" width="33.6" height="0.24" transform="translate(0.21 60.54) rotate(-29.01)"/><rect class="cls-9" x="97.81" y="23.39" width="33.6" height="0.24" transform="translate(0.27 60.48) rotate(-29.01)"/><rect class="cls-9" x="97.73" y="23.25" width="33.6" height="0.24" transform="translate(0.33 60.44) rotate(-29.02)"/><rect class="cls-9" x="97.65" y="23.11" width="33.6" height="0.24" transform="translate(0.39 60.38) rotate(-29.01)"/><rect class="cls-9" x="97.58" y="22.97" width="33.6" height="0.24" transform="translate(0.45 60.34) rotate(-29.02)"/><rect class="cls-9" x="97.5" y="22.84" width="33.6" height="0.24" transform="translate(0.51 60.28) rotate(-29.02)"/><rect class="cls-9" x="97.42" y="22.7" width="33.6" height="0.24" transform="translate(0.56 60.22) rotate(-29.01)"/><rect class="cls-9" x="97.34" y="22.56" width="33.6" height="0.24" transform="translate(0.62 60.16) rotate(-29.01)"/><rect class="cls-9" x="97.27" y="22.42" width="33.6" height="0.24" transform="translate(0.69 60.14) rotate(-29.03)"/><rect class="cls-9" x="97.19" y="22.28" width="33.6" height="0.24" transform="translate(0.73 60.05) rotate(-29.01)"/><rect class="cls-9" x="97.11" y="22.14" width="33.6" height="0.24" transform="translate(0.8 60.01) rotate(-29.02)"/><rect class="cls-9" x="97.04" y="22" width="33.6" height="0.24" transform="translate(0.85 59.94) rotate(-29.01)"/><rect class="cls-9" x="96.96" y="21.86" width="33.6" height="0.24" transform="translate(0.91 59.89) rotate(-29.01)"/><rect class="cls-9" x="96.88" y="21.72" width="33.6" height="0.24" transform="translate(0.97 59.84) rotate(-29.02)"/><rect class="cls-9" x="96.81" y="21.59" width="33.6" height="0.24" transform="translate(1.02 59.78) rotate(-29.01)"/><rect class="cls-9" x="96.73" y="21.45" width="33.6" height="0.24" transform="translate(1.08 59.73) rotate(-29.02)"/><rect class="cls-9" x="96.65" y="21.31" width="33.6" height="0.24" transform="translate(1.14 59.68) rotate(-29.02)"/><rect class="cls-9" x="96.57" y="21.17" width="33.6" height="0.24" transform="translate(1.19 59.61) rotate(-29.01)"/><rect class="cls-9" x="96.5" y="21.03" width="33.6" height="0.24" transform="translate(1.27 59.59) rotate(-29.03)"/><rect class="cls-9" x="96.42" y="20.89" width="33.6" height="0.24" transform="translate(1.31 59.5) rotate(-29.01)"/><rect class="cls-9" x="96.34" y="20.75" width="33.6" height="0.24" transform="translate(1.37 59.44) rotate(-29.01)"/><rect class="cls-9" x="96.27" y="20.61" width="33.6" height="0.24" transform="translate(1.43 59.4) rotate(-29.02)"/><rect class="cls-9" x="96.19" y="20.47" width="33.6" height="0.24" transform="translate(1.48 59.33) rotate(-29.01)"/><rect class="cls-9" x="96.11" y="20.34" width="33.6" height="0.24" transform="translate(1.55 59.3) rotate(-29.02)"/><rect class="cls-9" x="96.04" y="20.2" width="33.6" height="0.24" transform="translate(1.6 59.24) rotate(-29.02)"/><rect class="cls-9" x="95.96" y="20.06" width="33.6" height="0.24" transform="translate(1.66 59.18) rotate(-29.01)"/><rect class="cls-9" x="95.88" y="19.92" width="33.6" height="0.24" transform="translate(1.72 59.13) rotate(-29.02)"/><rect class="cls-9" x="95.8" y="19.78" width="33.6" height="0.24" transform="translate(1.77 59.07) rotate(-29.01)"/><rect class="cls-9" x="95.73" y="19.64" width="33.6" height="0.24" transform="translate(1.84 59.03) rotate(-29.02)"/><rect class="cls-9" x="95.65" y="19.5" width="33.6" height="0.24" transform="translate(1.9 58.98) rotate(-29.02)"/><rect class="cls-9" x="95.57" y="19.36" width="33.6" height="0.24" transform="translate(1.94 58.89) rotate(-29.01)"/><rect class="cls-9" x="95.5" y="19.22" width="33.6" height="0.24" transform="translate(2.01 58.85) rotate(-29.01)"/><rect class="cls-9" x="95.42" y="19.09" width="33.6" height="0.24" transform="translate(2.06 58.8) rotate(-29.02)"/><rect class="cls-9" x="95.34" y="18.95" width="33.6" height="0.24" transform="translate(2.12 58.74) rotate(-29.01)"/><rect class="cls-9" x="95.26" y="18.81" width="33.6" height="0.24" transform="translate(2.18 58.69) rotate(-29.02)"/><rect class="cls-9" x="95.19" y="18.67" width="33.6" height="0.24" transform="translate(2.24 58.63) rotate(-29.01)"/><rect class="cls-9" x="95.11" y="18.53" width="33.6" height="0.24" transform="translate(2.29 58.57) rotate(-29.01)"/><rect class="cls-9" x="95.03" y="18.39" width="33.6" height="0.24" transform="translate(2.36 58.55) rotate(-29.03)"/><rect class="cls-9" x="94.96" y="18.25" width="33.6" height="0.24" transform="translate(2.42 58.48) rotate(-29.02)"/><rect class="cls-9" x="94.88" y="18.11" width="33.6" height="0.24" transform="translate(2.46 58.4) rotate(-29.01)"/><rect class="cls-9" x="94.8" y="17.98" width="33.6" height="0.24" transform="translate(2.53 58.36) rotate(-29.02)"/><rect class="cls-9" x="94.73" y="17.84" width="33.6" height="0.24" transform="translate(2.58 58.29) rotate(-29.01)"/><rect class="cls-9" x="94.65" y="17.7" width="33.6" height="0.24" transform="translate(2.64 58.25) rotate(-29.01)"/><rect class="cls-9" x="94.57" y="17.56" width="33.6" height="0.24" transform="translate(2.7 58.19) rotate(-29.01)"/><rect class="cls-9" x="94.49" y="17.42" width="33.6" height="0.24" transform="translate(2.75 58.14) rotate(-29.01)"/><rect class="cls-9" x="94.42" y="17.28" width="33.6" height="0.24" transform="translate(2.82 58.09) rotate(-29.02)"/><rect class="cls-9" x="94.34" y="17.14" width="33.6" height="0.24" transform="translate(2.88 58.04) rotate(-29.02)"/><rect class="cls-9" x="94.26" y="17" width="33.6" height="0.24" transform="translate(2.93 57.99) rotate(-29.02)"/><rect class="cls-9" x="94.19" y="16.86" width="33.6" height="0.24" transform="translate(3 57.95) rotate(-29.03)"/><rect class="cls-9" x="94.11" y="16.73" width="33.6" height="0.24" transform="translate(3.04 57.85) rotate(-29.01)"/><rect class="cls-9" x="94.03" y="16.59" width="33.6" height="0.24" transform="translate(3.1 57.81) rotate(-29.01)"/><rect class="cls-9" x="93.96" y="16.45" width="33.6" height="0.24" transform="translate(3.16 57.76) rotate(-29.02)"/><rect class="cls-9" x="93.88" y="16.31" width="33.6" height="0.24" transform="translate(3.22 57.7) rotate(-29.01)"/><rect class="cls-9" x="93.8" y="16.17" width="33.6" height="0.24" transform="translate(3.28 57.65) rotate(-29.02)"/><rect class="cls-9" x="93.72" y="16.03" width="33.6" height="0.24" transform="translate(3.33 57.59) rotate(-29.02)"/><rect class="cls-9" x="93.65" y="15.89" width="33.6" height="0.24" transform="translate(3.39 57.52) rotate(-29.01)"/><rect class="cls-9" x="93.57" y="15.75" width="33.6" height="0.24" transform="translate(3.45 57.48) rotate(-29.01)"/><rect class="cls-9" x="93.49" y="15.61" width="33.6" height="0.24" transform="translate(3.51 57.44) rotate(-29.02)"/><rect class="cls-9" x="93.42" y="15.48" width="33.6" height="0.24" transform="translate(3.57 57.39) rotate(-29.02)"/><rect class="cls-9" x="93.34" y="15.34" width="33.6" height="0.24" transform="translate(3.62 57.32) rotate(-29.02)"/><rect class="cls-9" x="93.26" y="15.2" width="33.6" height="0.24" transform="translate(3.67 57.25) rotate(-29.01)"/><rect class="cls-9" x="93.19" y="15.06" width="33.6" height="0.24" transform="translate(3.73 57.2) rotate(-29.01)"/><rect class="cls-9" x="93.11" y="14.92" width="33.6" height="0.24" transform="translate(3.8 57.16) rotate(-29.02)"/><rect class="cls-9" x="93.03" y="14.78" width="33.6" height="0.24" transform="translate(3.85 57.09) rotate(-29.01)"/><rect class="cls-9" x="92.66" y="13.51" width="33.6" height="1.45" transform="translate(4.13 56.84) rotate(-29.02)"/></g><text class="cls-10" transform="translate(0.62 49.75)">A<tspan class="cls-11" x="24.79" y="0">LERT</tspan></text><text class="cls-10" transform="translate(138.81 46.11)">P<tspan class="cls-12" x="23.59" y="0">et</tspan></text><path class="cls-6" d="M137.39,15.94s1-5.77.27-8.28,3.68-7.81,4.52-2.12S137.39,15.94,137.39,15.94Z" transform="translate(-2.71 1.96)"/></svg>