<svg id="Calque_1" data-name="Calque 1" xmlns="http://www.w3.org/2000/svg" xmlns:xlink="http://www.w3.org/1999/xlink" viewBox="0 0 158.49 56.61"><defs><style>.cls-1{clip-rule:evenodd;}.cls-2{fill-rule:evenodd;}.cls-3{clip-path:url(#clip-path);}.cls-4{clip-path:url(#clip-path-2);}.cls-5{font-size:31.71px;font-family:LuckiestGuy-Regular, Luckiest Guy;}.cls-6{font-size:25.37px;}</style><clipPath id="clip-path" transform="translate(-3.53 0.4)"><path class="cls-1" d="M82.46,40.43a1.79,1.79,0,0,0,.25-2.19l1.39-1.39a1.77,1.77,0,0,0,1.74,0,16.12,16.12,0,1,0-3.63-3.62,1.75,1.75,0,0,0,0,1.73l-1.39,1.39a1.79,1.79,0,0,0-2.19.25l-5.79,5.8a1.77,1.77,0,0,0,0,2.5l1.28,1.28a1.77,1.77,0,0,0,2.5,0l5.8-5.79ZM98.69,11a13.24,13.24,0,1,1-16.23,9.36A13.24,13.24,0,0,1,98.69,11Z"/></clipPath><clipPath id="clip-path-2" transform="translate(-3.53 0.4)"><path class="cls-1" d="M92.29,34.91a11.48,11.48,0,1,0-8.12-14.06,11.48,11.48,0,0,0,8.12,14.06Zm3-3.19c-2.63,0-5.5-.75-5.35-3.95a5,5,0,0,1,1.4-3.2,5.06,5.06,0,0,1,7.63-.26,5,5,0,0,1,1.67,3.46c.15,3.2-2.72,4-5.35,3.95Zm7.48-11.37c.82.47.94,1.81.25,3s-1.9,1.76-2.72,1.28-.94-1.82-.26-3,1.9-1.75,2.73-1.27Zm-4-4.38c1.18.31,1.77,1.94,1.31,3.62s-1.77,2.8-2.94,2.48-1.77-1.93-1.32-3.62,1.77-2.8,3-2.48ZM87.78,20.35c.82-.48,2,.09,2.73,1.27s.56,2.52-.26,3-2-.1-2.73-1.28-.56-2.52.26-3Zm7-1.9c.46,1.69-.13,3.31-1.31,3.62s-2.5-.79-2.95-2.48.14-3.31,1.31-3.62S94.32,16.76,94.77,18.45Z"/></clipPath></defs><path class="cls-2" d="M82.46,40.43a1.79,1.79,0,0,0,.25-2.19l1.39-1.39a1.77,1.77,0,0,0,1.74,0,16.12,16.12,0,1,0-3.63-3.62,1.75,1.75,0,0,0,0,1.73l-1.39,1.39a1.79,1.79,0,0,0-2.19.25l-5.79,5.8a1.77,1.77,0,0,0,0,2.5l1.28,1.28a1.77,1.77,0,0,0,2.5,0l5.8-5.79ZM98.69,11a13.24,13.24,0,1,1-16.23,9.36A13.24,13.24,0,0,1,98.69,11Z" transform="translate(-3.53 0.4)"/><g class="cls-3"><rect x="75.81" y="44" width="47.9" height="0.1" transform="translate(-12.17 56.36) rotate(-30.1)"/><rect x="75.81" y="43.88" width="47.9" height="0.34" transform="translate(-12.16 56.39) rotate(-30.11)"/><rect x="75.69" y="43.69" width="47.9" height="0.34" transform="translate(-12.08 56.3) rotate(-30.1)"/><rect x="75.58" y="43.49" width="47.9" height="0.34" transform="translate(-12 56.22) rotate(-30.11)"/><rect x="75.47" y="43.3" width="47.9" height="0.34" transform="translate(-11.92 56.12) rotate(-30.1)"/><rect x="75.36" y="43.11" width="47.9" height="0.34" transform="translate(-11.84 56.05) rotate(-30.11)"/><rect x="75.25" y="42.91" width="47.9" height="0.34" transform="translate(-11.76 55.97) rotate(-30.1)"/><rect x="75.13" y="42.72" width="47.9" height="0.34" transform="translate(-11.67 55.89) rotate(-30.11)"/><rect x="75.02" y="42.53" width="47.9" height="0.34" transform="translate(-11.59 55.81) rotate(-30.11)"/><rect x="74.91" y="42.33" width="47.9" height="0.34" transform="translate(-11.51 55.72) rotate(-30.1)"/><rect x="74.8" y="42.14" width="47.9" height="0.34" transform="translate(-11.43 55.65) rotate(-30.11)"/><rect x="74.69" y="41.95" width="47.9" height="0.34" transform="translate(-11.35 55.55) rotate(-30.1)"/><rect x="74.57" y="41.75" width="47.9" height="0.34" transform="translate(-11.26 55.48) rotate(-30.11)"/><rect x="74.46" y="41.56" width="47.9" height="0.34" transform="matrix(0.87, -0.5, 0.5, 0.87, -11.18, 55.39)"/><rect x="74.35" y="41.37" width="47.9" height="0.34" transform="translate(-11.1 55.31) rotate(-30.11)"/><rect x="74.24" y="41.17" width="47.9" height="0.34" transform="translate(-11.02 55.23) rotate(-30.11)"/><rect x="74.13" y="40.98" width="47.9" height="0.34" transform="translate(-10.94 55.14) rotate(-30.1)"/><rect x="74.01" y="40.79" width="47.9" height="0.34" transform="translate(-10.85 55.08) rotate(-30.11)"/><rect x="73.9" y="40.59" width="47.9" height="0.34" transform="translate(-10.77 54.98) rotate(-30.1)"/><rect x="73.79" y="40.4" width="47.9" height="0.34" transform="translate(-10.69 54.91) rotate(-30.11)"/><rect x="73.68" y="40.21" width="47.9" height="0.34" transform="translate(-10.61 54.81) rotate(-30.1)"/><rect x="73.56" y="40.01" width="47.9" height="0.34" transform="translate(-10.53 54.74) rotate(-30.11)"/><rect x="73.45" y="39.82" width="47.9" height="0.34" transform="translate(-10.45 54.65) rotate(-30.1)"/><rect x="73.34" y="39.63" width="47.9" height="0.34" transform="translate(-10.36 54.56) rotate(-30.1)"/><rect x="73.23" y="39.43" width="47.9" height="0.34" transform="translate(-10.28 54.5) rotate(-30.12)"/><rect x="73.12" y="39.24" width="47.9" height="0.34" transform="translate(-10.2 54.4) rotate(-30.1)"/><rect x="73" y="39.05" width="47.9" height="0.34" transform="translate(-10.12 54.33) rotate(-30.11)"/><rect x="72.89" y="38.85" width="47.9" height="0.34" transform="translate(-10.04 54.24) rotate(-30.1)"/><rect x="72.78" y="38.66" width="47.9" height="0.34" transform="translate(-9.96 54.15) rotate(-30.1)"/><rect x="72.67" y="38.47" width="47.9" height="0.34" transform="translate(-9.87 54.07) rotate(-30.1)"/><rect x="72.56" y="38.27" width="47.9" height="0.34" transform="translate(-9.79 53.99) rotate(-30.1)"/><rect x="72.44" y="38.08" width="47.9" height="0.34" transform="translate(-9.71 53.93) rotate(-30.12)"/><rect x="72.33" y="37.89" width="47.9" height="0.34" transform="translate(-9.63 53.83) rotate(-30.1)"/><rect x="72.22" y="37.69" width="47.9" height="0.34" transform="matrix(0.87, -0.5, 0.5, 0.87, -9.54, 53.76)"/><rect x="72.11" y="37.5" width="47.9" height="0.34" transform="matrix(0.87, -0.5, 0.5, 0.87, -9.46, 53.66)"/><rect x="72" y="37.31" width="47.9" height="0.34" transform="matrix(0.87, -0.5, 0.5, 0.87, -9.38, 53.59)"/><rect x="71.88" y="37.11" width="47.9" height="0.34" transform="matrix(0.87, -0.5, 0.5, 0.87, -9.3, 53.5)"/><rect x="71.77" y="36.92" width="47.9" height="0.34" transform="translate(-9.22 53.41) rotate(-30.1)"/><rect x="71.66" y="36.73" width="47.9" height="0.34" transform="translate(-9.13 53.34) rotate(-30.11)"/><rect x="71.55" y="36.53" width="47.9" height="0.34" transform="translate(-9.05 53.25) rotate(-30.1)"/><rect x="71.43" y="36.34" width="47.9" height="0.34" transform="translate(-8.97 53.19) rotate(-30.12)"/><rect x="71.32" y="36.15" width="47.9" height="0.34" transform="translate(-8.89 53.08) rotate(-30.1)"/><rect x="71.21" y="35.95" width="47.9" height="0.34" transform="translate(-8.81 53.01) rotate(-30.11)"/><rect x="71.1" y="35.76" width="47.9" height="0.34" transform="translate(-8.73 52.93) rotate(-30.11)"/><rect x="70.99" y="35.57" width="47.9" height="0.34" transform="translate(-8.64 52.85) rotate(-30.11)"/><rect x="70.87" y="35.37" width="47.9" height="0.34" transform="matrix(0.87, -0.5, 0.5, 0.87, -8.56, 52.76)"/><rect x="70.76" y="35.18" width="47.9" height="0.34" transform="translate(-8.48 52.67) rotate(-30.1)"/><rect x="70.65" y="34.99" width="47.9" height="0.34" transform="translate(-8.4 52.61) rotate(-30.12)"/><rect x="70.54" y="34.79" width="47.9" height="0.34" transform="translate(-8.32 52.51) rotate(-30.1)"/><rect x="70.43" y="34.6" width="47.9" height="0.34" transform="translate(-8.23 52.44) rotate(-30.11)"/><rect x="70.31" y="34.41" width="47.9" height="0.34" transform="translate(-8.15 52.35) rotate(-30.11)"/><rect x="70.2" y="34.21" width="47.9" height="0.34" transform="matrix(0.87, -0.5, 0.5, 0.87, -8.07, 52.27)"/><rect x="70.09" y="34.02" width="47.9" height="0.34" transform="translate(-7.99 52.18) rotate(-30.11)"/><rect x="69.98" y="33.83" width="47.9" height="0.34" transform="translate(-7.91 52.09) rotate(-30.1)"/><rect x="69.87" y="33.63" width="47.9" height="0.34" transform="translate(-7.83 52.02) rotate(-30.11)"/><rect x="69.75" y="33.44" width="47.9" height="0.34" transform="translate(-7.74 51.93) rotate(-30.1)"/><rect x="69.64" y="33.25" width="47.9" height="0.34" transform="translate(-7.66 51.86) rotate(-30.11)"/><rect x="69.53" y="33.05" width="47.9" height="0.34" transform="translate(-7.58 51.78) rotate(-30.11)"/><rect x="69.42" y="32.86" width="47.9" height="0.34" transform="translate(-7.5 51.7) rotate(-30.11)"/><rect x="69.3" y="32.67" width="47.9" height="0.34" transform="translate(-7.42 51.61) rotate(-30.11)"/><rect x="69.19" y="32.47" width="47.9" height="0.34" transform="translate(-7.33 51.53) rotate(-30.11)"/><rect x="69.08" y="32.28" width="47.9" height="0.34" transform="translate(-7.26 51.43) rotate(-30.1)"/><rect x="68.97" y="32.09" width="47.9" height="0.34" transform="translate(-7.17 51.36) rotate(-30.1)"/><rect x="68.86" y="31.89" width="47.9" height="0.34" transform="translate(-7.09 51.28) rotate(-30.11)"/><rect x="68.74" y="31.7" width="47.9" height="0.34" transform="translate(-7.01 51.2) rotate(-30.11)"/><rect x="68.63" y="31.51" width="47.9" height="0.34" transform="translate(-6.92 51.12) rotate(-30.11)"/><rect x="68.52" y="31.31" width="47.9" height="0.34" transform="translate(-6.84 51.03) rotate(-30.11)"/><rect x="68.41" y="31.12" width="47.9" height="0.34" transform="translate(-6.76 50.96) rotate(-30.11)"/><rect x="68.3" y="30.93" width="47.9" height="0.34" transform="translate(-6.68 50.86) rotate(-30.1)"/><rect x="68.18" y="30.73" width="47.9" height="0.34" transform="translate(-6.6 50.78) rotate(-30.1)"/><rect x="68.07" y="30.54" width="47.9" height="0.34" transform="translate(-6.52 50.69) rotate(-30.1)"/><rect x="67.96" y="30.35" width="47.9" height="0.34" transform="translate(-6.43 50.62) rotate(-30.11)"/><rect x="67.85" y="30.15" width="47.9" height="0.34" transform="translate(-6.35 50.54) rotate(-30.11)"/><rect x="67.74" y="29.96" width="47.9" height="0.34" transform="matrix(0.87, -0.5, 0.5, 0.87, -6.27, 50.46)"/><rect x="67.62" y="29.77" width="47.9" height="0.34" transform="translate(-6.19 50.37) rotate(-30.11)"/><rect x="67.51" y="29.57" width="47.9" height="0.34" transform="translate(-6.11 50.29) rotate(-30.1)"/><rect x="67.4" y="29.38" width="47.9" height="0.34" transform="translate(-6.02 50.22) rotate(-30.12)"/><rect x="67.29" y="29.19" width="47.9" height="0.34" transform="translate(-5.94 50.12) rotate(-30.1)"/><rect x="67.17" y="28.99" width="47.9" height="0.34" transform="matrix(0.87, -0.5, 0.5, 0.87, -5.86, 50.05)"/><rect x="67.06" y="28.8" width="47.9" height="0.34" transform="matrix(0.87, -0.5, 0.5, 0.87, -5.78, 49.97)"/><rect x="66.95" y="28.61" width="47.9" height="0.34" transform="translate(-5.7 49.88) rotate(-30.11)"/><rect x="66.84" y="28.41" width="47.9" height="0.34" transform="matrix(0.87, -0.5, 0.5, 0.87, -5.61, 49.8)"/><rect x="66.73" y="28.22" width="47.9" height="0.34" transform="translate(-5.53 49.71) rotate(-30.1)"/><rect x="66.61" y="28.03" width="47.9" height="0.34" transform="translate(-5.45 49.64) rotate(-30.11)"/><rect x="66.5" y="27.83" width="47.9" height="0.34" transform="translate(-5.37 49.54) rotate(-30.1)"/><rect x="66.39" y="27.64" width="47.9" height="0.34" transform="translate(-5.29 49.47) rotate(-30.11)"/><rect x="66.28" y="27.45" width="47.9" height="0.34" transform="translate(-5.21 49.38) rotate(-30.1)"/><rect x="66.17" y="27.25" width="47.9" height="0.34" transform="translate(-5.12 49.31) rotate(-30.11)"/><rect x="66.05" y="27.06" width="47.9" height="0.34" transform="translate(-5.04 49.23) rotate(-30.11)"/><rect x="65.94" y="26.87" width="47.9" height="0.34" transform="matrix(0.87, -0.5, 0.5, 0.87, -4.96, 49.13)"/><rect x="65.83" y="26.67" width="47.9" height="0.34" transform="translate(-4.88 49.07) rotate(-30.12)"/><rect x="65.72" y="26.48" width="47.9" height="0.34" transform="translate(-4.8 48.97) rotate(-30.1)"/><rect x="65.61" y="26.29" width="47.9" height="0.34" transform="translate(-4.71 48.9) rotate(-30.11)"/><rect x="65.49" y="26.09" width="47.9" height="0.34" transform="matrix(0.87, -0.5, 0.5, 0.87, -4.63, 48.8)"/><rect x="65.38" y="25.9" width="47.9" height="0.34" transform="translate(-4.55 48.72) rotate(-30.1)"/><rect x="65.27" y="25.71" width="47.9" height="0.34" transform="translate(-4.47 48.65) rotate(-30.11)"/><rect x="65.16" y="25.51" width="47.9" height="0.34" transform="matrix(0.87, -0.5, 0.5, 0.87, -4.39, 48.55)"/><rect x="65.04" y="25.32" width="47.9" height="0.34" transform="translate(-4.3 48.49) rotate(-30.12)"/><rect x="64.93" y="25.13" width="47.9" height="0.34" transform="matrix(0.87, -0.5, 0.5, 0.87, -4.23, 48.39)"/><rect x="64.82" y="24.93" width="47.9" height="0.34" transform="translate(-4.14 48.33) rotate(-30.12)"/><rect x="64.71" y="24.74" width="47.9" height="0.34" transform="translate(-4.06 48.23) rotate(-30.1)"/><rect x="64.6" y="24.55" width="47.9" height="0.34" transform="matrix(0.87, -0.5, 0.5, 0.87, -3.98, 48.15)"/><rect x="64.48" y="24.35" width="47.9" height="0.34" transform="translate(-3.9 48.06) rotate(-30.1)"/><rect x="64.37" y="24.16" width="47.9" height="0.34" transform="translate(-3.82 47.98) rotate(-30.1)"/><rect x="64.26" y="23.97" width="47.9" height="0.34" transform="translate(-3.73 47.92) rotate(-30.12)"/><rect x="64.15" y="23.77" width="47.9" height="0.34" transform="translate(-3.65 47.81) rotate(-30.1)"/><rect x="64.04" y="23.58" width="47.9" height="0.34" transform="translate(-3.57 47.75) rotate(-30.12)"/><rect x="63.92" y="23.39" width="47.9" height="0.34" transform="translate(-3.49 47.65) rotate(-30.1)"/><rect x="63.81" y="23.19" width="47.9" height="0.34" transform="translate(-3.4 47.58) rotate(-30.11)"/><rect x="63.7" y="23" width="47.9" height="0.34" transform="translate(-3.32 47.49) rotate(-30.11)"/><rect x="63.59" y="22.81" width="47.9" height="0.34" transform="translate(-3.24 47.41) rotate(-30.1)"/><rect x="63.48" y="22.61" width="47.9" height="0.34" transform="translate(-3.16 47.34) rotate(-30.12)"/><rect x="63.36" y="22.42" width="47.9" height="0.34" transform="translate(-3.08 47.24) rotate(-30.1)"/><rect x="63.25" y="22.23" width="47.9" height="0.34" transform="translate(-2.99 47.18) rotate(-30.12)"/><rect x="63.14" y="22.03" width="47.9" height="0.34" transform="translate(-2.92 47.07) rotate(-30.1)"/><rect x="63.03" y="21.84" width="47.9" height="0.34" transform="matrix(0.87, -0.5, 0.5, 0.87, -2.83, 47.01)"/><rect x="62.91" y="21.65" width="47.9" height="0.34" transform="translate(-2.75 46.91) rotate(-30.1)"/><rect x="62.8" y="21.45" width="47.9" height="0.34" transform="translate(-2.67 46.83) rotate(-30.1)"/><rect x="62.69" y="21.26" width="47.9" height="0.34" transform="matrix(0.87, -0.5, 0.5, 0.87, -2.59, 46.75)"/><rect x="62.58" y="21.07" width="47.9" height="0.34" transform="translate(-2.51 46.67) rotate(-30.1)"/><rect x="62.47" y="20.87" width="47.9" height="0.34" transform="translate(-2.42 46.6) rotate(-30.11)"/><rect x="62.35" y="20.68" width="47.9" height="0.34" transform="translate(-2.34 46.5) rotate(-30.1)"/><rect x="62.24" y="20.49" width="47.9" height="0.34" transform="translate(-2.26 46.43) rotate(-30.11)"/><rect x="62.13" y="20.29" width="47.9" height="0.34" transform="matrix(0.87, -0.5, 0.5, 0.87, -2.18, 46.34)"/><rect x="62.02" y="20.1" width="47.9" height="0.34" transform="translate(-2.09 46.27) rotate(-30.11)"/><rect x="61.91" y="19.91" width="47.9" height="0.34" transform="translate(-2.01 46.18) rotate(-30.11)"/><rect x="61.79" y="19.71" width="47.9" height="0.34" transform="translate(-1.93 46.09) rotate(-30.1)"/><rect x="61.68" y="19.52" width="47.9" height="0.34" transform="translate(-1.85 46.01) rotate(-30.11)"/><rect x="61.57" y="19.33" width="47.9" height="0.34" transform="translate(-1.77 45.92) rotate(-30.1)"/><rect x="61.46" y="19.13" width="47.9" height="0.34" transform="translate(-1.69 45.85) rotate(-30.11)"/><rect x="61.35" y="18.94" width="47.9" height="0.34" transform="translate(-1.6 45.76) rotate(-30.11)"/><rect x="61.23" y="18.75" width="47.9" height="0.34" transform="translate(-1.52 45.69) rotate(-30.11)"/><rect x="61.12" y="18.55" width="47.9" height="0.34" transform="translate(-1.44 45.6) rotate(-30.11)"/><rect x="61.01" y="18.36" width="47.9" height="0.34" transform="matrix(0.87, -0.5, 0.5, 0.87, -1.36, 45.51)"/><rect x="60.9" y="18.17" width="47.9" height="0.34" transform="matrix(0.87, -0.5, 0.5, 0.87, -1.28, 45.43)"/><rect x="60.79" y="17.97" width="47.9" height="0.34" transform="translate(-1.2 45.35) rotate(-30.1)"/><rect x="60.67" y="17.78" width="47.9" height="0.34" transform="translate(-1.11 45.28) rotate(-30.11)"/><rect x="60.56" y="17.59" width="47.9" height="0.34" transform="translate(-1.03 45.19) rotate(-30.11)"/><rect x="60.45" y="17.39" width="47.9" height="0.34" transform="translate(-0.95 45.11) rotate(-30.11)"/><rect x="60.34" y="17.2" width="47.9" height="0.34" transform="translate(-0.87 45.02) rotate(-30.11)"/><rect x="60.22" y="17.01" width="47.9" height="0.34" transform="translate(-0.78 44.94) rotate(-30.11)"/><rect x="60.11" y="16.81" width="47.9" height="0.34" transform="translate(-0.71 44.85) rotate(-30.1)"/><rect x="60" y="16.62" width="47.9" height="0.34" transform="translate(-0.62 44.78) rotate(-30.11)"/><rect x="59.89" y="16.43" width="47.9" height="0.34" transform="translate(-0.54 44.7) rotate(-30.11)"/><rect x="59.78" y="16.23" width="47.9" height="0.34" transform="translate(-0.46 44.61) rotate(-30.11)"/><rect x="59.66" y="16.04" width="47.9" height="0.34" transform="translate(-0.37 44.54) rotate(-30.11)"/><rect x="59.55" y="15.85" width="47.9" height="0.34" transform="translate(-0.3 44.45) rotate(-30.11)"/><rect x="59.44" y="15.65" width="47.9" height="0.34" transform="translate(-0.21 44.37) rotate(-30.11)"/><rect x="59.33" y="15.46" width="47.9" height="0.34" transform="translate(-0.13 44.28) rotate(-30.1)"/><rect x="59.22" y="15.27" width="47.9" height="0.34" transform="translate(-0.05 44.2) rotate(-30.11)"/><rect x="59.1" y="15.07" width="47.9" height="0.34" transform="translate(0.03 44.11) rotate(-30.1)"/><rect x="58.99" y="14.88" width="47.9" height="0.34" transform="translate(0.11 44.03) rotate(-30.1)"/><rect x="58.88" y="14.69" width="47.9" height="0.34" transform="translate(0.2 43.96) rotate(-30.11)"/><rect x="58.77" y="14.49" width="47.9" height="0.34" transform="translate(0.28 43.87) rotate(-30.11)"/><rect x="58.66" y="14.3" width="47.9" height="0.34" transform="translate(0.36 43.8) rotate(-30.11)"/><rect x="58.54" y="14.11" width="47.9" height="0.34" transform="translate(0.44 43.7) rotate(-30.1)"/><rect x="58.43" y="13.91" width="47.9" height="0.34" transform="translate(0.53 43.64) rotate(-30.12)"/><rect x="58.32" y="13.72" width="47.9" height="0.34" transform="translate(0.6 43.54) rotate(-30.1)"/><rect x="58.21" y="13.53" width="47.9" height="0.34" transform="translate(0.69 43.46) rotate(-30.11)"/><rect x="58.09" y="13.33" width="47.9" height="0.34" transform="matrix(0.87, -0.5, 0.5, 0.87, 0.77, 43.38)"/><rect x="57.98" y="13.14" width="47.9" height="0.34" transform="translate(0.85 43.29) rotate(-30.1)"/><rect x="57.87" y="12.95" width="47.9" height="0.34" transform="translate(0.94 43.22) rotate(-30.11)"/><rect x="57.76" y="12.75" width="47.9" height="0.34" transform="matrix(0.87, -0.5, 0.5, 0.87, 1.01, 43.12)"/><rect x="57.65" y="12.56" width="47.9" height="0.34" transform="translate(1.1 43.06) rotate(-30.12)"/><rect x="57.53" y="12.37" width="47.9" height="0.34" transform="translate(1.18 42.96) rotate(-30.1)"/><rect x="57.42" y="12.17" width="47.9" height="0.34" transform="translate(1.26 42.88) rotate(-30.11)"/><rect x="57.31" y="11.98" width="47.9" height="0.34" transform="matrix(0.87, -0.5, 0.5, 0.87, 1.34, 42.79)"/><rect x="57.2" y="11.79" width="47.9" height="0.34" transform="matrix(0.87, -0.5, 0.5, 0.87, 1.42, 42.71)"/><rect x="57.09" y="11.59" width="47.9" height="0.34" transform="translate(1.51 42.64) rotate(-30.11)"/><rect x="57.04" y="11.64" width="47.9" height="0.08" transform="translate(1.52 42.56) rotate(-30.08)"/></g><path class="cls-2" d="M92.29,34.91a11.48,11.48,0,1,0-8.12-14.06,11.48,11.48,0,0,0,8.12,14.06Zm3-3.19c-2.63,0-5.5-.75-5.35-3.95a5,5,0,0,1,1.4-3.2,5.06,5.06,0,0,1,7.63-.26,5,5,0,0,1,1.67,3.46c.15,3.2-2.72,4-5.35,3.95Zm7.48-11.37c.82.47.94,1.81.25,3s-1.9,1.76-2.72,1.28-.94-1.82-.26-3,1.9-1.75,2.73-1.27Zm-4-4.38c1.18.31,1.77,1.94,1.31,3.62s-1.77,2.8-2.94,2.48-1.77-1.93-1.32-3.62,1.77-2.8,3-2.48ZM87.78,20.35c.82-.48,2,.09,2.73,1.27s.56,2.52-.26,3-2-.1-2.73-1.28-.56-2.52.26-3Zm7-1.9c.46,1.69-.13,3.31-1.31,3.62s-2.5-.79-2.95-2.48.14-3.31,1.31-3.62S94.32,16.76,94.77,18.45Z" transform="translate(-3.53 0.4)"/><g class="cls-4"><rect x="88.74" y="34.89" width="25.32" transform="translate(-7.72 53.98) rotate(-29.02)"/><rect x="88.73" y="34.78" width="25.32" height="0.18" transform="translate(-7.72 53.94) rotate(-29.01)"/><rect x="88.67" y="34.67" width="25.32" height="0.18" transform="translate(-7.67 53.91) rotate(-29.01)"/><rect x="88.61" y="34.57" width="25.32" height="0.18" transform="translate(-7.63 53.87) rotate(-29.02)"/><rect x="88.55" y="34.46" width="25.32" height="0.18" transform="translate(-7.59 53.82) rotate(-29.01)"/><rect x="88.49" y="34.36" width="25.32" height="0.18" transform="translate(-7.54 53.79) rotate(-29.02)"/><rect x="88.44" y="34.25" width="25.32" height="0.18" transform="matrix(0.87, -0.48, 0.48, 0.87, -7.5, 53.73)"/><rect x="88.38" y="34.15" width="25.32" height="0.18" transform="translate(-7.46 53.69) rotate(-29.01)"/><rect x="88.32" y="34.04" width="25.32" height="0.18" transform="translate(-7.41 53.66) rotate(-29.02)"/><rect x="88.26" y="33.94" width="25.32" height="0.18" transform="translate(-7.37 53.61) rotate(-29.01)"/><rect x="88.2" y="33.84" width="25.32" height="0.18" transform="translate(-7.32 53.6) rotate(-29.02)"/><rect x="88.15" y="33.73" width="25.32" height="0.18" transform="matrix(0.87, -0.49, 0.49, 0.87, -7.28, 53.54)"/><rect x="88.09" y="33.63" width="25.32" height="0.18" transform="translate(-7.24 53.48) rotate(-29.01)"/><rect x="88.03" y="33.52" width="25.32" height="0.18" transform="translate(-7.19 53.46) rotate(-29.01)"/><rect x="87.97" y="33.42" width="25.32" height="0.18" transform="translate(-7.15 53.42) rotate(-29.02)"/><rect x="87.91" y="33.31" width="25.32" height="0.18" transform="translate(-7.11 53.37) rotate(-29.01)"/><rect x="87.86" y="33.21" width="25.32" height="0.18" transform="translate(-7.06 53.34) rotate(-29.02)"/><rect x="87.8" y="33.1" width="25.32" height="0.18" transform="translate(-7.02 53.29) rotate(-29.01)"/><rect x="87.74" y="33" width="25.32" height="0.18" transform="translate(-6.98 53.24) rotate(-29.01)"/><rect x="87.68" y="32.89" width="25.32" height="0.18" transform="translate(-6.93 53.22) rotate(-29.02)"/><rect x="87.62" y="32.79" width="25.32" height="0.18" transform="translate(-6.89 53.18) rotate(-29.02)"/><rect x="87.57" y="32.68" width="25.32" height="0.18" transform="translate(-6.85 53.12) rotate(-29.01)"/><rect x="87.51" y="32.58" width="25.32" height="0.18" transform="translate(-6.8 53.09) rotate(-29.02)"/><rect x="87.45" y="32.48" width="25.32" height="0.18" transform="translate(-6.76 53.04) rotate(-29.01)"/><rect x="87.39" y="32.37" width="25.32" height="0.18" transform="translate(-6.71 53.01) rotate(-29.02)"/><rect x="87.33" y="32.27" width="25.32" height="0.18" transform="translate(-6.67 52.96) rotate(-29.02)"/><rect x="87.28" y="32.16" width="25.32" height="0.18" transform="translate(-6.63 52.91) rotate(-29.01)"/><rect x="87.22" y="32.06" width="25.32" height="0.18" transform="translate(-6.58 52.88) rotate(-29.02)"/><rect x="87.16" y="31.95" width="25.32" height="0.18" transform="translate(-6.54 52.82) rotate(-29.01)"/><rect x="87.1" y="31.85" width="25.32" height="0.18" transform="translate(-6.5 52.81) rotate(-29.02)"/><rect x="87.04" y="31.74" width="25.32" height="0.18" transform="translate(-6.45 52.78) rotate(-29.03)"/><rect x="86.99" y="31.64" width="25.32" height="0.18" transform="translate(-6.41 52.7) rotate(-29.01)"/><rect x="86.93" y="31.53" width="25.32" height="0.18" transform="translate(-6.37 52.66) rotate(-29.01)"/><rect x="86.87" y="31.43" width="25.32" height="0.18" transform="translate(-6.32 52.64) rotate(-29.02)"/><rect x="86.81" y="31.32" width="25.32" height="0.18" transform="translate(-6.28 52.59) rotate(-29.01)"/><rect x="86.75" y="31.22" width="25.32" height="0.18" transform="translate(-6.24 52.55) rotate(-29.02)"/><rect x="86.7" y="31.12" width="25.32" height="0.18" transform="translate(-6.19 52.5) rotate(-29.01)"/><rect x="86.64" y="31.01" width="25.32" height="0.18" transform="translate(-6.15 52.45) rotate(-29.01)"/><rect x="86.58" y="30.91" width="25.32" height="0.18" transform="translate(-6.1 52.44) rotate(-29.02)"/><rect x="86.52" y="30.8" width="25.32" height="0.18" transform="translate(-6.06 52.4) rotate(-29.02)"/><rect x="86.46" y="30.7" width="25.32" height="0.18" transform="translate(-6.02 52.35) rotate(-29.02)"/><rect x="86.41" y="30.59" width="25.32" height="0.18" transform="translate(-5.98 52.3) rotate(-29.01)"/><rect x="86.35" y="30.49" width="25.32" height="0.18" transform="translate(-5.93 52.26) rotate(-29.01)"/><rect x="86.29" y="30.38" width="25.32" height="0.18" transform="translate(-5.89 52.22) rotate(-29.02)"/><rect x="86.23" y="30.28" width="25.32" height="0.18" transform="translate(-5.85 52.18) rotate(-29.02)"/><rect x="86.17" y="30.17" width="25.32" height="0.18" transform="translate(-5.81 52.12) rotate(-29.01)"/><rect x="86.11" y="30.07" width="25.32" height="0.18" transform="translate(-5.76 52.1) rotate(-29.02)"/><rect x="86.06" y="29.96" width="25.32" height="0.18" transform="translate(-5.72 52.04) rotate(-29.01)"/><rect x="86" y="29.86" width="25.32" height="0.18" transform="translate(-5.67 52) rotate(-29.01)"/><rect x="85.94" y="29.76" width="25.32" height="0.18" transform="translate(-5.62 51.99) rotate(-29.03)"/><rect x="85.88" y="29.65" width="25.32" height="0.18" transform="translate(-5.58 51.94) rotate(-29.02)"/><rect x="85.82" y="29.55" width="25.32" height="0.18" transform="translate(-5.54 51.88) rotate(-29.01)"/><rect x="85.77" y="29.44" width="25.32" height="0.18" transform="translate(-5.5 51.85) rotate(-29.02)"/><rect x="85.71" y="29.34" width="25.32" height="0.18" transform="translate(-5.46 51.8) rotate(-29.01)"/><rect x="85.65" y="29.23" width="25.32" height="0.18" transform="translate(-5.41 51.76) rotate(-29.01)"/><rect x="85.59" y="29.13" width="25.32" height="0.18" transform="translate(-5.37 51.74) rotate(-29.02)"/><rect x="85.53" y="29.02" width="25.32" height="0.18" transform="translate(-5.33 51.67) rotate(-29.01)"/><rect x="85.48" y="28.92" width="25.32" height="0.18" transform="translate(-5.28 51.65) rotate(-29.02)"/><rect x="85.42" y="28.81" width="25.32" height="0.18" transform="translate(-5.24 51.59) rotate(-29.01)"/><rect x="85.36" y="28.71" width="25.32" height="0.18" transform="translate(-5.19 51.57) rotate(-29.02)"/><rect x="85.3" y="28.6" width="25.32" height="0.18" transform="translate(-5.14 51.54) rotate(-29.03)"/><rect x="85.24" y="28.5" width="25.32" height="0.18" transform="translate(-5.11 51.47) rotate(-29.01)"/><rect x="85.19" y="28.39" width="25.32" height="0.18" transform="translate(-5.07 51.42) rotate(-29.01)"/><rect x="85.13" y="28.29" width="25.32" height="0.18" transform="translate(-5.02 51.39) rotate(-29.02)"/><rect x="85.07" y="28.19" width="25.32" height="0.18" transform="translate(-4.98 51.34) rotate(-29.01)"/><rect x="85.01" y="28.08" width="25.32" height="0.18" transform="translate(-4.93 51.31) rotate(-29.02)"/><rect x="84.95" y="27.98" width="25.32" height="0.18" transform="translate(-4.89 51.26) rotate(-29.01)"/><rect x="84.9" y="27.87" width="25.32" height="0.18" transform="translate(-4.85 51.22) rotate(-29.01)"/><rect x="84.84" y="27.77" width="25.32" height="0.18" transform="translate(-4.8 51.2) rotate(-29.02)"/><rect x="84.78" y="27.66" width="25.32" height="0.18" transform="translate(-4.76 51.16) rotate(-29.02)"/><rect x="84.72" y="27.56" width="25.32" height="0.18" transform="translate(-4.72 51.09) rotate(-29.01)"/><rect x="84.66" y="27.45" width="25.32" height="0.18" transform="translate(-4.67 51.06) rotate(-29.02)"/><rect x="84.61" y="27.35" width="25.32" height="0.18" transform="translate(-4.63 51.02) rotate(-29.01)"/><rect x="84.55" y="27.24" width="25.32" height="0.18" transform="translate(-4.58 50.98) rotate(-29.02)"/><rect x="84.49" y="27.14" width="25.32" height="0.18" transform="translate(-4.54 50.95) rotate(-29.02)"/><rect x="84.43" y="27.03" width="25.32" height="0.18" transform="translate(-4.5 50.89) rotate(-29.01)"/><rect x="84.37" y="26.93" width="25.32" height="0.18" transform="translate(-4.45 50.87) rotate(-29.02)"/><rect x="84.32" y="26.83" width="25.32" height="0.18" transform="translate(-4.41 50.8) rotate(-29.01)"/><rect x="84.26" y="26.72" width="25.32" height="0.18" transform="translate(-4.37 50.76) rotate(-29.01)"/><rect x="84.2" y="26.62" width="25.32" height="0.18" transform="translate(-4.32 50.76) rotate(-29.03)"/><rect x="84.14" y="26.51" width="25.32" height="0.18" transform="translate(-4.28 50.69) rotate(-29.01)"/><rect x="84.08" y="26.41" width="25.32" height="0.18" transform="translate(-4.24 50.64) rotate(-29.01)"/><rect x="84.03" y="26.3" width="25.32" height="0.18" transform="translate(-4.19 50.61) rotate(-29.02)"/><rect x="83.97" y="26.2" width="25.32" height="0.18" transform="translate(-4.15 50.55) rotate(-29.01)"/><rect x="83.91" y="26.09" width="25.32" height="0.18" transform="translate(-4.11 50.53) rotate(-29.02)"/><rect x="83.85" y="25.99" width="25.32" height="0.18" transform="translate(-4.06 50.48) rotate(-29.01)"/><rect x="83.79" y="25.88" width="25.32" height="0.18" transform="translate(-4.02 50.43) rotate(-29.01)"/><rect x="83.74" y="25.78" width="25.32" height="0.18" transform="translate(-3.97 50.41) rotate(-29.02)"/><rect x="83.68" y="25.67" width="25.32" height="0.18" transform="translate(-3.94 50.35) rotate(-29.01)"/><rect x="83.62" y="25.57" width="25.32" height="0.18" transform="matrix(0.87, -0.49, 0.49, 0.87, -3.89, 50.33)"/><rect x="83.56" y="25.47" width="25.32" height="0.18" transform="translate(-3.85 50.28) rotate(-29.01)"/><rect x="83.5" y="25.36" width="25.32" height="0.18" transform="translate(-3.8 50.23) rotate(-29.01)"/><rect x="83.45" y="25.26" width="25.32" height="0.18" transform="translate(-3.76 50.19) rotate(-29.01)"/><rect x="83.39" y="25.15" width="25.32" height="0.18" transform="translate(-3.71 50.16) rotate(-29.02)"/><rect x="83.33" y="25.05" width="25.32" height="0.18" transform="translate(-3.68 50.1) rotate(-29.01)"/><rect x="83.27" y="24.94" width="25.32" height="0.18" transform="translate(-3.63 50.08) rotate(-29.02)"/><rect x="83.21" y="24.84" width="25.32" height="0.18" transform="translate(-3.59 50.02) rotate(-29.01)"/><rect x="83.16" y="24.73" width="25.32" height="0.18" transform="translate(-3.54 49.99) rotate(-29.01)"/><rect x="83.1" y="24.63" width="25.32" height="0.18" transform="translate(-3.5 49.95) rotate(-29.01)"/><rect x="83.04" y="24.52" width="25.32" height="0.18" transform="translate(-3.45 49.92) rotate(-29.02)"/><rect x="82.98" y="24.42" width="25.32" height="0.18" transform="translate(-3.41 49.85) rotate(-29.01)"/><rect x="82.92" y="24.31" width="25.32" height="0.18" transform="translate(-3.37 49.83) rotate(-29.02)"/><rect x="82.86" y="24.21" width="25.32" height="0.18" transform="translate(-3.33 49.77) rotate(-29.01)"/><rect x="82.81" y="24.11" width="25.32" height="0.18" transform="translate(-3.28 49.74) rotate(-29.01)"/><rect x="82.75" y="24" width="25.32" height="0.18" transform="translate(-3.24 49.7) rotate(-29.02)"/><rect x="82.69" y="23.9" width="25.32" height="0.18" transform="translate(-3.2 49.65) rotate(-29.01)"/><rect x="82.63" y="23.79" width="25.32" height="0.18" transform="translate(-3.15 49.63) rotate(-29.02)"/><rect x="82.57" y="23.69" width="25.32" height="0.18" transform="translate(-3.11 49.56) rotate(-29.01)"/><rect x="82.52" y="23.58" width="25.32" height="0.18" transform="translate(-3.06 49.55) rotate(-29.02)"/><rect x="82.46" y="23.48" width="25.32" height="0.18" transform="translate(-3.01 49.52) rotate(-29.03)"/><rect x="82.4" y="23.37" width="25.32" height="0.18" transform="translate(-2.98 49.45) rotate(-29.01)"/><rect x="82.34" y="23.27" width="25.32" height="0.18" transform="translate(-2.94 49.4) rotate(-29.01)"/><rect x="82.28" y="23.16" width="25.32" height="0.18" transform="translate(-2.89 49.38) rotate(-29.02)"/><rect x="82.23" y="23.06" width="25.32" height="0.18" transform="translate(-2.85 49.32) rotate(-29.01)"/><rect x="82.17" y="22.95" width="25.32" height="0.18" transform="translate(-2.8 49.3) rotate(-29.02)"/><rect x="82.11" y="22.85" width="25.32" height="0.18" transform="translate(-2.76 49.25) rotate(-29.02)"/><rect x="82.05" y="22.74" width="25.32" height="0.18" transform="translate(-2.72 49.2) rotate(-29.01)"/><rect x="81.99" y="22.64" width="25.32" height="0.18" transform="translate(-2.67 49.17) rotate(-29.02)"/><rect x="81.94" y="22.54" width="25.32" height="0.18" transform="translate(-2.63 49.14) rotate(-29.02)"/><rect x="81.88" y="22.43" width="25.32" height="0.18" transform="translate(-2.58 49.09) rotate(-29.02)"/><rect x="81.82" y="22.33" width="25.32" height="0.18" transform="translate(-2.54 49.05) rotate(-29.02)"/><rect x="81.76" y="22.22" width="25.32" height="0.18" transform="translate(-2.5 48.99) rotate(-29.01)"/><rect x="81.7" y="22.12" width="25.32" height="0.18" transform="translate(-2.46 48.95) rotate(-29.01)"/><rect x="81.65" y="22.01" width="25.32" height="0.18" transform="translate(-2.41 48.92) rotate(-29.02)"/><rect x="81.59" y="21.91" width="25.32" height="0.18" transform="translate(-2.37 48.86) rotate(-29.01)"/><rect x="81.53" y="21.8" width="25.32" height="0.18" transform="translate(-2.32 48.84) rotate(-29.02)"/><rect x="81.47" y="21.7" width="25.32" height="0.18" transform="translate(-2.28 48.78) rotate(-29.01)"/><rect x="81.41" y="21.59" width="25.32" height="0.18" transform="translate(-2.24 48.75) rotate(-29.01)"/><rect x="81.36" y="21.49" width="25.32" height="0.18" transform="translate(-2.19 48.73) rotate(-29.03)"/><rect x="81.3" y="21.38" width="25.32" height="0.18" transform="translate(-2.15 48.69) rotate(-29.03)"/><rect x="81.24" y="21.28" width="25.32" height="0.18" transform="matrix(0.87, -0.48, 0.48, 0.87, -2.11, 48.62)"/><rect x="81.18" y="21.18" width="25.32" height="0.18" transform="translate(-2.06 48.59) rotate(-29.02)"/><rect x="81.12" y="21.07" width="25.32" height="0.18" transform="translate(-2.02 48.53) rotate(-29.01)"/><rect x="81.07" y="20.97" width="25.32" height="0.18" transform="translate(-1.97 48.51) rotate(-29.02)"/><rect x="81.01" y="20.86" width="25.32" height="0.18" transform="translate(-1.93 48.46) rotate(-29.02)"/><rect x="80.95" y="20.76" width="25.32" height="0.18" transform="translate(-1.89 48.42) rotate(-29.01)"/><rect x="80.89" y="20.65" width="25.32" height="0.18" transform="translate(-1.85 48.38) rotate(-29.02)"/><rect x="80.83" y="20.55" width="25.32" height="0.18" transform="translate(-1.81 48.33) rotate(-29.01)"/><rect x="80.78" y="20.44" width="25.32" height="0.18" transform="translate(-1.76 48.31) rotate(-29.02)"/><rect x="80.72" y="20.34" width="25.32" height="0.18" transform="translate(-1.72 48.26) rotate(-29.02)"/><rect x="80.66" y="20.23" width="25.32" height="0.18" transform="translate(-1.68 48.2) rotate(-29.01)"/><rect x="80.6" y="20.13" width="25.32" height="0.18" transform="translate(-1.63 48.16) rotate(-29.01)"/><rect x="80.54" y="20.02" width="25.32" height="0.18" transform="translate(-1.59 48.13) rotate(-29.02)"/><rect x="80.49" y="19.92" width="25.32" height="0.18" transform="translate(-1.55 48.08) rotate(-29.01)"/><rect x="80.43" y="19.82" width="25.32" height="0.18" transform="translate(-1.5 48.06) rotate(-29.02)"/><rect x="80.37" y="19.71" width="25.32" height="0.18" transform="translate(-1.45 48.01) rotate(-29.02)"/><rect x="80.31" y="19.61" width="25.32" height="0.18" transform="translate(-1.41 47.96) rotate(-29.01)"/><rect x="80.25" y="19.5" width="25.32" height="0.18" transform="translate(-1.37 47.92) rotate(-29.01)"/><rect x="80.2" y="19.4" width="25.32" height="0.18" transform="translate(-1.32 47.9) rotate(-29.03)"/><rect x="80.14" y="19.29" width="25.32" height="0.18" transform="translate(-1.28 47.83) rotate(-29.01)"/><rect x="80.08" y="19.19" width="25.32" height="0.18" transform="translate(-1.24 47.81) rotate(-29.02)"/><rect x="80.02" y="19.08" width="25.32" height="0.18" transform="translate(-1.2 47.75) rotate(-29.01)"/><rect x="79.96" y="18.98" width="25.32" height="0.18" transform="translate(-1.15 47.71) rotate(-29.01)"/><rect x="79.91" y="18.87" width="25.32" height="0.18" transform="translate(-1.11 47.68) rotate(-29.02)"/><rect x="79.85" y="18.77" width="25.32" height="0.18" transform="translate(-1.07 47.63) rotate(-29.01)"/><rect x="79.79" y="18.66" width="25.32" height="0.18" transform="translate(-1.02 47.6) rotate(-29.02)"/><rect x="79.73" y="18.56" width="25.32" height="0.18" transform="translate(-0.98 47.56) rotate(-29.02)"/><rect x="79.67" y="18.45" width="25.32" height="0.18" transform="translate(-0.94 47.5) rotate(-29.01)"/><rect x="79.61" y="18.35" width="25.32" height="0.18" transform="translate(-0.88 47.5) rotate(-29.03)"/><rect x="79.56" y="18.25" width="25.32" height="0.18" transform="translate(-0.85 47.42) rotate(-29.01)"/><rect x="79.5" y="18.14" width="25.32" height="0.18" transform="translate(-0.81 47.38) rotate(-29.01)"/><rect x="79.44" y="18.04" width="25.32" height="0.18" transform="translate(-0.76 47.35) rotate(-29.02)"/><rect x="79.38" y="17.93" width="25.32" height="0.18" transform="translate(-0.72 47.29) rotate(-29.01)"/><rect x="79.32" y="17.83" width="25.32" height="0.18" transform="translate(-0.67 47.27) rotate(-29.02)"/><rect x="79.27" y="17.72" width="25.32" height="0.18" transform="translate(-0.63 47.23) rotate(-29.02)"/><rect x="79.21" y="17.62" width="25.32" height="0.18" transform="translate(-0.59 47.18) rotate(-29.01)"/><rect x="79.15" y="17.51" width="25.32" height="0.18" transform="translate(-0.54 47.14) rotate(-29.02)"/><rect x="79.09" y="17.41" width="25.32" height="0.18" transform="translate(-0.5 47.1) rotate(-29.01)"/><rect x="79.03" y="17.3" width="25.32" height="0.18" transform="translate(-0.45 47.07) rotate(-29.02)"/><rect x="78.98" y="17.2" width="25.32" height="0.18" transform="translate(-0.41 47.03) rotate(-29.02)"/><rect x="78.92" y="17.09" width="25.32" height="0.18" transform="translate(-0.37 46.96) rotate(-29.01)"/><rect x="78.86" y="16.99" width="25.32" height="0.18" transform="translate(-0.33 46.93) rotate(-29.01)"/><rect x="78.8" y="16.89" width="25.32" height="0.18" transform="translate(-0.28 46.89) rotate(-29.02)"/><rect x="78.74" y="16.78" width="25.32" height="0.18" transform="translate(-0.24 46.85) rotate(-29.01)"/><rect x="78.69" y="16.68" width="25.32" height="0.18" transform="translate(-0.19 46.81) rotate(-29.02)"/><rect x="78.63" y="16.57" width="25.32" height="0.18" transform="translate(-0.15 46.77) rotate(-29.01)"/><rect x="78.57" y="16.47" width="25.32" height="0.18" transform="translate(-0.11 46.72) rotate(-29.01)"/><rect x="78.51" y="16.36" width="25.32" height="0.18" transform="translate(-0.06 46.71) rotate(-29.03)"/><rect x="78.45" y="16.26" width="25.32" height="0.18" transform="translate(-0.02 46.66) rotate(-29.02)"/><rect x="78.4" y="16.15" width="25.32" height="0.18" transform="translate(0.02 46.59) rotate(-29.01)"/><rect x="78.34" y="16.05" width="25.32" height="0.18" transform="translate(0.07 46.57) rotate(-29.02)"/><rect x="78.28" y="15.94" width="25.32" height="0.18" transform="translate(0.11 46.51) rotate(-29.01)"/><rect x="78.22" y="15.84" width="25.32" height="0.18" transform="translate(0.15 46.48) rotate(-29.01)"/><rect x="78.16" y="15.73" width="25.32" height="0.18" transform="translate(0.19 46.44) rotate(-29.01)"/><rect x="78.11" y="15.63" width="25.32" height="0.18" transform="translate(0.24 46.39) rotate(-29.01)"/><rect x="78.05" y="15.53" width="25.32" height="0.18" transform="translate(0.28 46.36) rotate(-29.02)"/><rect x="77.99" y="15.42" width="25.32" height="0.18" transform="translate(0.33 46.32) rotate(-29.02)"/><rect x="77.93" y="15.32" width="25.32" height="0.18" transform="translate(0.37 46.29) rotate(-29.02)"/><rect x="77.87" y="15.21" width="25.32" height="0.18" transform="translate(0.42 46.26) rotate(-29.03)"/><rect x="77.82" y="15.11" width="25.32" height="0.18" transform="translate(0.45 46.18) rotate(-29.01)"/><rect x="77.76" y="15" width="25.32" height="0.18" transform="translate(0.5 46.15) rotate(-29.01)"/><rect x="77.7" y="14.9" width="25.32" height="0.18" transform="translate(0.54 46.11) rotate(-29.02)"/><rect x="77.64" y="14.79" width="25.32" height="0.18" transform="translate(0.59 46.06) rotate(-29.01)"/><rect x="77.58" y="14.69" width="25.32" height="0.18" transform="translate(0.63 46.03) rotate(-29.02)"/><rect x="77.53" y="14.58" width="25.32" height="0.18" transform="translate(0.67 45.99) rotate(-29.02)"/><rect x="77.47" y="14.48" width="25.32" height="0.18" transform="translate(0.71 45.93) rotate(-29.01)"/><rect x="77.41" y="14.37" width="25.32" height="0.18" transform="translate(0.76 45.9) rotate(-29.01)"/><rect x="77.35" y="14.27" width="25.32" height="0.18" transform="translate(0.81 45.87) rotate(-29.02)"/><rect x="77.29" y="14.17" width="25.32" height="0.18" transform="translate(0.85 45.83) rotate(-29.02)"/><rect x="77.24" y="14.06" width="25.32" height="0.18" transform="translate(0.89 45.78) rotate(-29.02)"/><rect x="77.18" y="13.96" width="25.32" height="0.18" transform="translate(0.93 45.73) rotate(-29.01)"/><rect x="77.12" y="13.85" width="25.32" height="0.18" transform="translate(0.97 45.69) rotate(-29.01)"/><rect x="77.06" y="13.75" width="25.32" height="0.18" transform="translate(1.02 45.66) rotate(-29.02)"/><rect x="77" y="13.64" width="25.32" height="0.18" transform="translate(1.06 45.61) rotate(-29.01)"/><rect x="76.72" y="12.68" width="25.32" height="1.09" transform="translate(1.28 45.42) rotate(-29.02)"/></g><text class="cls-5" transform="translate(0.5 39.84)">A<tspan class="cls-6" x="19.85" y="0">LERT</tspan></text><text class="cls-5" transform="translate(111.15 36.93)">P<tspan class="cls-6" x="18.89" y="0">et</tspan></text><path d="M111.38,13.93s.81-4.62.22-6.63,2.94-6.26,3.61-1.7S111.38,13.93,111.38,13.93Z" transform="translate(-3.53 0.4)"/></svg>