<?xml version="1.0" encoding="utf-8"?>
<!-- Generator: Adobe Illustrator 25.0.0, SVG Export Plug-In . SVG Version: 6.00 Build 0)  -->
<svg version="1.1" id="Calque_1" xmlns="http://www.w3.org/2000/svg" xmlns:xlink="http://www.w3.org/1999/xlink" x="0px" y="0px"
	 viewBox="0 0 262 263" style="enable-background:new 0 0 262 263;" xml:space="preserve">
<style type="text/css">
	.st0{fill:#32B4A8;}
	.st1{fill:#22A194;}
	.st2{fill:#FFFFFF;}
</style>
<g>
	<path class="st0" d="M217.15,257.38H46.85c-22.77,0-41.22-18.46-41.22-41.22V45.85c0-22.77,18.46-41.22,41.22-41.22h170.31
		c22.77,0,41.22,18.46,41.22,41.22v170.31C258.38,238.92,239.92,257.38,217.15,257.38z"/>
	<path class="st1" d="M193.25,63.13L102.4,195.38l73.46,62h41.3c22.77,0,41.22-18.46,41.22-41.22v-98.97L193.25,63.13z"/>
	<g>
		<path class="st2" d="M116.86,203.15c-4.82,0-9.5-1.91-12.96-5.37l-35.1-35.08c-7.16-7.16-7.16-18.77,0-25.94
			c7.14-7.15,18.74-7.17,25.93-0.01l18.58,18.58l53.27-87.68c5.23-8.64,16.5-11.4,25.19-6.15c8.64,5.26,11.41,16.54,6.14,25.2
			l-65.37,107.64c-2.91,4.81-7.88,8.01-13.47,8.69C118.32,203.11,117.58,203.15,116.86,203.15z"/>
	</g>
</g>
</svg>
