<svg id="Calque_1" data-name="Calque 1" xmlns="http://www.w3.org/2000/svg" viewBox="0 0 130.64 125.02"><defs><style>.cls-1{fill:#fff;}.cls-2{fill:#d08bbb;}</style></defs><path id="_Color" data-name=" Color" class="cls-1" d="M20,28.76a17.34,17.34,0,0,1-9.31-2.66,15.27,15.27,0,0,1-5.91-6.81,15.25,15.25,0,0,1,5.91-6.82,17.62,17.62,0,0,1,18.62,0,15.21,15.21,0,0,1,5.92,6.82,15.24,15.24,0,0,1-5.92,6.81A17.2,17.2,0,0,1,20,28.76ZM20,13C16.15,13,13,15.8,13,19.29S16.15,25.6,20,25.6s6.92-2.83,6.92-6.31S23.78,13,20,13Zm0,10.11a4,4,0,0,1-4.15-3.79A4,4,0,0,1,20,15.5a4,4,0,0,1,4.16,3.79A4,4,0,0,1,20,23.08Z" transform="translate(-1.48 -1.8)"/><path class="cls-2" d="M130,41.5Q97.87,27,65.72,12.52l-17-7.68a514.45,514.45,0,0,0-29.21,47q-6.84,12.45-13,25.28C4.75,80.89,2.67,85.22,5,89.24c1.82,3.09,5.23,5,8.35,6.51C22.05,100,31.06,103.64,40,107.32S58.05,114.58,67.18,118q6.85,2.53,13.75,5c2.2.77,4.63,1.74,7,1.34a7.7,7.7,0,0,0,4.37-2.66c2.64-3,4-7,5.61-10.59L104,97.28l6.19-14c1.93-4.34,4.31-8.72,5.55-13.32a10,10,0,0,0,0-6.29,8.78,8.78,0,0,0-3.88-4.11c-3.79-2.23-8.25-3.51-12.33-5.09L71.36,43.58,64.5,40.92a37,37,0,0,0-6.83-2.28c-4.37-.78-7.62,1.62-10.14,4.94-2.72,3.61-4.94,7.65-7.34,11.48q-4,6.48-8.11,13c-1.28,2-2.59,4.06-3.82,6.13-1.07,1.8-2.32,4.08-1.72,6.24.55,2,2.65,3,4.39,3.73,2.23,1,4.49,1.87,6.74,2.8L65.49,98.46c4.3,1.78,8.83,3.82,13.59,3.72A16.33,16.33,0,0,0,89.6,97.52a53.92,53.92,0,0,0,7.53-8.91,15.91,15.91,0,0,0,3-5.88,5.45,5.45,0,0,0-2.35-5.6c-1.68-1.3-3.58-2.36-5.38-3.49-2-1.23-3.95-2.45-6-3.6a73.46,73.46,0,0,0-12.54-5.88c-4.07-1.41-8.63-2.58-12.94-1.6a9.36,9.36,0,0,0-7.44,7.36c-.65,4.07,2.61,6.53,6.1,7.65,4.33,1.4,8.91,2.16,13.34,3.18,4.8,1.09,9.58,2.23,14.36,3.39.81.2.47,1.4-.34,1.24Q78.81,83.75,70.71,82l-8-1.71a28.53,28.53,0,0,1-5.8-1.75c-3.29-1.5-5.74-4.48-5.42-8.24a10.87,10.87,0,0,1,5.71-8.44c4-2.09,8.77-1.81,13-.79A60.14,60.14,0,0,1,83.7,66.34c4.41,2.27,8.63,4.89,12.83,7.52a14.21,14.21,0,0,1,4.73,4,7.41,7.41,0,0,1,.76,5.82c-1,4.16-4.22,7.85-6.88,11.1s-5.49,6.11-9.13,7.9a18.41,18.41,0,0,1-13.24.87c-5.12-1.39-10-3.79-14.9-5.81L35.42,88.47c-2.29-1-4.67-1.79-6.88-2.92a7.92,7.92,0,0,1-4.05-4,8.16,8.16,0,0,1,.56-6.23,51.73,51.73,0,0,1,3.81-6.51l4.32-6.92,8.75-14.07c2.21-3.54,4.39-7.4,7.89-9.84,4-2.77,8.52-2,12.78-.36,5.05,1.89,10.06,3.88,15.09,5.81,10.22,3.95,20.46,7.86,30.66,11.85,3.54,1.38,7.49,3.1,9.3,6.69,2.17,4.27.59,9.08-1.16,13.19-4.28,10-8.83,19.94-13.24,29.9-2.07,4.65-3.93,9.47-6.29,14-1.72,3.28-4.22,6.66-8,7.55a12.83,12.83,0,0,1-6.88-.65c-2.48-.8-4.93-1.71-7.39-2.59q-7.58-2.73-15.1-5.59-14.85-5.66-29.47-11.9-7.41-3.15-14.75-6.46C11.69,97.74,7.91,96,5,93.18A11.2,11.2,0,0,1,1.86,82.12a36.54,36.54,0,0,1,2.75-6.71Q6.26,72,8,68.54A515.36,515.36,0,0,1,38.63,14.9q4.13-6.28,8.43-12.45A1.41,1.41,0,0,1,48.92,2q32.16,14.49,64.32,29l18.17,8.2C133,39.86,131.62,42.22,130,41.5Z" transform="translate(-1.48 -1.8)"/></svg>