<svg id="Calque_1" data-name="Calque 1" xmlns="http://www.w3.org/2000/svg" viewBox="0 0 100.67 102.33"><defs><style>.cls-1{fill:#fff;}.cls-2{fill:#d08bbb;}</style></defs><path id="_Color" data-name=" Color" class="cls-1" d="M20,28.76a17.34,17.34,0,0,1-9.31-2.66,15.27,15.27,0,0,1-5.91-6.81,15.25,15.25,0,0,1,5.91-6.82,17.62,17.62,0,0,1,18.62,0,15.21,15.21,0,0,1,5.92,6.82,15.24,15.24,0,0,1-5.92,6.81A17.2,17.2,0,0,1,20,28.76ZM20,13C16.15,13,13,15.8,13,19.29S16.15,25.6,20,25.6s6.92-2.83,6.92-6.31S23.78,13,20,13Zm0,10.11a4,4,0,0,1-4.15-3.79A4,4,0,0,1,20,15.5a4,4,0,0,1,4.16,3.79A4,4,0,0,1,20,23.08Z" transform="translate(-2 -2.15)"/><path class="cls-2" d="M24.43,94.82c16,11.34,37.56,13.07,54.66,3.2a46.43,46.43,0,0,0,23-47.75A42.45,42.45,0,0,0,89.32,26.21a47.49,47.49,0,0,0-4.71-7.32A44.51,44.51,0,0,0,35.92,4.42c-17.8,6-31.1,21.48-33.5,40.18A53.75,53.75,0,0,0,24.43,94.82Zm65-41.91c-.69,16.34-15.54,29-30.52,32.59-15.16,3.65-31.62-1.93-40.62-14.89-8.52-12.27-8.08-29.77,2.08-41C31.37,17.36,50.91,15.44,66,19.39a44.16,44.16,0,0,1,17.38,9c.31.52.61,1,.89,1.57C72.16,19,52.37,14.87,37.5,20.32c-16,5.89-25,23.52-21.33,40.09S37.4,87.09,53.76,84.9C71,82.58,84.35,65.07,80.3,47.73,76.47,31.32,55.57,20.52,41.1,31.06c-12.5,9.1-14.77,29.72.32,37.49,6.25,3.22,14.08,3.75,20.4.44a17.5,17.5,0,0,0,9-17.11c-.52-6.73-4.16-13.67-10.39-16.76a16.66,16.66,0,0,0-20.35,5c-4.57,6.21-2.75,15.76,4.12,19.59s15.38-1.06,16.38-8.64c.9-6.79-7.2-13.28-13.31-8.84-5,3.66-1.67,12.67,4.59,11.63,1.39-.23,1-2.62-.33-2.45-3.67.45-5.38-5.17-2.17-7,3.41-1.91,7.79,1.36,8,4.92.19,3.75-3.12,7.57-6.8,8.13s-6.94-2.15-8.42-5.31c-3.61-7.74,3.66-15,11.33-15,12.64,0,18.3,18.78,9.19,26.7C53,72.27,35.77,65.25,34.28,52.77c-.81-6.78,2.56-13.7,7.73-18a19.4,19.4,0,0,1,20.48-2.43A24,24,0,0,1,76.11,48.44c1.67,7.21-.53,15-4.76,20.91C63,81.05,47.11,83.52,34.69,77,22,70.29,16.8,55.88,21.33,42.45A28.62,28.62,0,0,1,33.78,26.73c7.56-4.35,16.82-5,25.25-3.33C73.49,26.23,90.13,36.24,89.43,52.91ZM63.13,10.7a39.29,39.29,0,0,1,8.63,4.81,53.54,53.54,0,0,0-7.9-2.17c-18.33-3.51-40.72.79-51.19,17.59A42.22,42.22,0,0,1,22,18.86C33,9.1,49.24,5.25,63.13,10.7ZM11.37,69.43a40.1,40.1,0,0,0,10,12.5c15.15,12.62,36.72,13.24,53.34,3,13.56-8.36,23.68-25.5,19-41a2.46,2.46,0,0,0,.13-1c0-.35-.07-.69-.1-1a38,38,0,0,1,2.89,9A40.27,40.27,0,0,1,80.32,90.37,44.43,44.43,0,0,1,36,94.82,47.49,47.49,0,0,1,11.37,69.43Z" transform="translate(-2 -2.15)"/></svg>