<svg id="Calque_1" data-name="Calque 1" xmlns="http://www.w3.org/2000/svg" viewBox="0 0 74.94 74.94"><defs><style>.cls-1{fill:#e28ebc;}</style></defs><path class="cls-1" d="M62.12,29.93a16.21,16.21,0,0,1-3.93,1.12c.63-.11,1.53-1.24,1.9-1.7A7.13,7.13,0,0,0,61.37,27c0-.07.06-.16,0-.21a.26.26,0,0,0-.21,0,20,20,0,0,1-4.62,1.77.32.32,0,0,1-.32-.08,3.28,3.28,0,0,0-.41-.42,8.17,8.17,0,0,0-2.24-1.37,7.74,7.74,0,0,0-3.43-.55,8.09,8.09,0,0,0-3.26.92,8.38,8.38,0,0,0-2.63,2.14,8.13,8.13,0,0,0-1.57,3.15,8.44,8.44,0,0,0-.08,3.32c0,.19,0,.21-.16.19-6.36-.95-11.62-3.22-15.89-8.09-.19-.21-.29-.21-.44,0-1.87,2.81-1,7.31,1.37,9.52a11.59,11.59,0,0,0,1,.86,8,8,0,0,1-3.07-.86c-.18-.11-.28-.05-.29.16a4.67,4.67,0,0,0,.05.91,8.14,8.14,0,0,0,5,6.5,5,5,0,0,0,1,.31,8.93,8.93,0,0,1-3,.09c-.22,0-.3.07-.22.28,1.32,3.61,4.18,4.68,6.32,5.29.29,0,.57,0,.86.12l-.05.05c-.71,1.08-3.17,1.89-4.32,2.29a15.52,15.52,0,0,1-6.55.84c-.35-.06-.42,0-.52,0s0,.14.1.23a15.88,15.88,0,0,0,1.37.81,21.31,21.31,0,0,0,4.38,1.75c7.87,2.18,16.74.58,22.65-5.29,4.64-4.62,6.26-11,6.26-17.34,0-.25.3-.39.47-.52a15.76,15.76,0,0,0,3.16-3.21,1.23,1.23,0,0,0,.27-.61v0C62.35,29.83,62.28,29.86,62.12,29.93Z" transform="translate(-5.53 -4.53)"/><path class="cls-1" d="M43,4.53A37.47,37.47,0,1,0,80.47,42,37.51,37.51,0,0,0,43,4.53Zm0,70.13A32.66,32.66,0,1,1,75.67,42,32.7,32.7,0,0,1,43,74.66Z" transform="translate(-5.53 -4.53)"/></svg>