<svg id="Calque_1" data-name="Calque 1" xmlns="http://www.w3.org/2000/svg" viewBox="0 0 74.94 74.94"><defs><style>.cls-1{fill:#e28ebc;}</style></defs><path class="cls-1" d="M63,37.06a8.74,8.74,0,0,0-8.75-8.75H31.74A8.74,8.74,0,0,0,23,37.06v9.88a8.74,8.74,0,0,0,8.75,8.75H54.26A8.74,8.74,0,0,0,63,46.94Zm-12.38,5.2-10.08,5c-.39.21-1.76-.08-1.76-.52V36.51c0-.45,1.38-.73,1.78-.51l9.62,5.23C50.59,41.46,51,42,50.63,42.26Z" transform="translate(-5.53 -4.53)"/><path class="cls-1" d="M43,4.53A37.47,37.47,0,1,0,80.47,42,37.51,37.51,0,0,0,43,4.53Zm0,70.13A32.66,32.66,0,1,1,75.67,42,32.7,32.7,0,0,1,43,74.66Z" transform="translate(-5.53 -4.53)"/></svg>